<svg xmlns="http://www.w3.org/2000/svg" xmlns:xlink="http://www.w3.org/1999/xlink">

  <symbol id="image-smoothing" viewBox="0 0 48 48">
    <title>Image Smoothing</title>
    <g id="image-smoothing" stroke-width="3" stroke-linecap="round" stroke-linejoin="round">
      <path d="M0.07 0.04L24.07 0.04L24.07 24.04L0.07 24.04L0.07 0.04Z" fill="none" id="n5aXcZtWKK"></path>
      <path d="M24.01 23.98L48.01 23.98L48.01 47.98L24.01 47.98L24.01 23.98Z" fill="none" id="b1erkirdLS"></path>
      <path d="M24.48 0.52L47.48 0.52L47.48 23.52L24.48 23.52L24.48 0.52Z" id="eDZzthFMD"></path>
      <path d="M0.57 24.46L23.57 24.46L23.57 47.46L0.57 47.46L0.57 24.46Z" id="a29d3dEdUA"></path>
    </g>
  </symbol>

  <symbol id="icon-freehand-menu" viewBox="0 0 18 18">
    <title>ROI Menu</title>
    <g id="icon-freehand-menu" fill="none" stroke-width="1.5" stroke-linecap="round" stroke-linejoin="round">
      <line id="svg_4" y2="9.12785" x2="2.045199" y1="2.602749" x1="5.482813"/>
      <line id="svg_5" y2="16.607843" x2="6.565024" y1="9.509807" x1="2.204347"/>
      <line id="svg_6" y2="16.003078" x2="14.267826" y1="16.576014" x1="6.692343"/>
      <line id="svg_7" y2="10.942146" x2="15.572846" y1="15.939418" x1="14.331486"/>
      <line id="svg_8" y2="2.825558" x2="13.058295" y1="2.889217" x1="5.641961"/>
      <line id="svg_9" y2="7.568192" x2="15.795655" y1="3.398493" x1="12.930976"/>
      <line id="svg_10" y2="11.037635" x2="15.509187" y1="7.727341" x1="15.700165"/>
     </g>
   </symbol>

   <symbol id="icon-freehand-menu-help" viewBox="0 0 18 18">
     <title>ROI Help</title>
     <g id="icon-freehand-menu-help" fill="none" stroke-width="1.5" stroke-linecap="round" stroke-linejoin="round">
       <line id="svg_4" y2="9.12785" x2="2.045199" y1="2.602749" x1="5.482813"/>
       <line id="svg_5" y2="16.607843" x2="6.565024" y1="9.509807" x1="2.204347"/>
       <line id="svg_6" y2="16.003078" x2="14.267826" y1="16.576014" x1="6.692343"/>
       <line id="svg_7" y2="10.942146" x2="15.572846" y1="15.939418" x1="14.331486"/>
       <line id="svg_8" y2="2.825558" x2="13.058295" y1="2.889217" x1="5.641961"/>
       <line id="svg_9" y2="7.568192" x2="15.795655" y1="3.398493" x1="12.930976"/>
       <line id="svg_10" y2="11.037635" x2="15.509187" y1="7.727341" x1="15.700165"/>
       <text xml:space="preserve" text-anchor="start" font-family="Helvetica, Arial, sans-serif" font-size="13" id="svg_16" y="14.029172" x="5.761269">?</text>
      </g>
    </symbol>

   <symbol id="icon-freehand-draw" viewBox="0 0 18 18">
     <title>Draw</title>
     <g id="icon-freehand-draw" fill="none" stroke-width="1.5" stroke-linecap="round" stroke-linejoin="round">
       <ellipse ry="1" rx="1" id="svg_3" cy="4.240343" cx="14.306499"/>
       <line id="svg_4" y2="3.58462" x2="12.242186" y1="3.997482" x1="13.432202"/>
       <line id="svg_5" y2="3.268901" x2="10.857882" y1="3.608906" x1="12.387902"/>
       <line id="svg_6" y2="3.147471" x2="9.740724" y1="3.293187" x1="10.955026"/>
       <line id="svg_7" y2="3.147471" x2="8.089274" y1="3.196043" x1="9.983585"/>
       <line id="svg_8" y2="3.268901" x2="6.874972" y1="3.123185" x1="8.307848"/>
       <line id="svg_9" y2="3.657478" x2="5.587812" y1="3.220329" x1="7.020688"/>
       <line id="svg_10" y2="4.046054" x2="4.737801" y1="3.560334" x1="5.854959"/>
       <line id="svg_11" y2="4.337487" x2="4.300652" y1="3.997482" x1="4.834945"/>
       <line id="svg_12" y2="4.726063" x2="3.88779" y1="4.191771" x1="4.470655"/>
       <line id="svg_15" y2="5.3575" x2="3.377783" y1="4.604633" x1="3.960648"/>
       <line id="svg_16" y2="6.183226" x2="2.916348" y1="5.138926" x1="3.547785"/>
       <line id="svg_17" y2="6.960379" x2="2.770632" y1="5.867507" x1="3.037779"/>
       <line id="svg_18" y2="7.713246" x2="2.673488" y1="6.741804" x1="2.819204"/>
       <line id="svg_19" y2="8.684687" x2="2.697774" y1="7.616102" x1="2.673488"/>
       <line id="svg_20" y2="9.753273" x2="2.892062" y1="8.611829" x1="2.697774"/>
       <line id="svg_21" y2="10.724714" x2="3.134923" y1="9.534698" x1="2.84349"/>
       <line id="svg_23" y2="11.647583" x2="3.596357" y1="10.578998" x1="3.086351"/>
       <line id="svg_25" y2="12.521881" x2="4.276366" y1="11.501867" x1="3.499213"/>
       <line id="svg_26" y2="13.930471" x2="5.830673" y1="12.376165" x1="4.13065"/>
       <line id="svg_28" y2="14.707624" x2="7.263549" y1="13.881899" x1="5.733528"/>
       <line id="svg_29" y2="15.339061" x2="8.963571" y1="14.61048" x1="7.06926"/>
       <line id="svg_30" y2="15.581921" x2="10.882168" y1="15.314775" x1="8.817855"/>
       <line id="svg_31" y2="15.460491" x2="12.023612" y1="15.581921" x1="10.785024"/>
       <line id="svg_33" y2="15.120487" x2="13.092197" y1="15.484777" x1="11.877895"/>
       <line id="svg_34" y2="14.586194" x2="13.86935" y1="15.217631" x1="12.897909"/>
       <line id="svg_35" y2="13.833327" x2="14.597931" y1="14.756196" x1="13.699348"/>
       <line id="svg_37" y2="12.716169" x2="15.180796" y1="13.881899" x1="14.549359"/>
       <line id="svg_39" y2="11.429009" x2="15.520801" y1="12.813313" x1="15.15651"/>
       <ellipse ry="1" rx="1" id="svg_40" cy="10.967574" cx="15.520801"/>
    </g>
    </symbol>

    <symbol id="icon-freehand-sculpt" viewBox="0 0 18 18">
      <title>Sculpt</title>
      <g id="icon-freehand-sculpt" fill="none" stroke-width="1.5" stroke-linecap="round" stroke-linejoin="round">
        <line id="svg_1" y2="2.559367" x2="10.184807" y1="4.467781" x1="8.81711"/>
        <line id="svg_4" y2="1.493836" x2="11.727442" y1="2.766112" x1="10.089386"/>
        <line id="svg_7" y2="1.080346" x2="13.047428" y1="1.748291" x1="11.345759"/>
        <line id="svg_8" y2="1.000829" x2="14.351511" y1="1.112153" x1="12.77707"/>
        <line id="svg_9" y2="1.350705" x2="15.242104" y1="0.905408" x1="13.969828"/>
        <line id="svg_10" y2="2.098167" x2="15.862339" y1="1.14396" x1="14.955842"/>
        <line id="svg_11" y2="3.195505" x2="16.41896" y1="1.939133" x1="15.766918"/>
        <line id="svg_12" y2="4.292843" x2="16.530284" y1="2.925147" x1="16.387153"/>
        <line id="svg_16" y2="5.644637" x2="16.196311" y1="3.831643" x1="16.593898"/>
        <line id="svg_18" y2="7.266789" x2="15.623787" y1="5.19934" x1="16.275829"/>
        <line id="svg_19" y2="10.813258" x2="14.526449" y1="6.726071" x1="15.766918"/>
        <line id="svg_20" y2="5.056209" x2="8.085552" y1="4.181519" x1="8.976145"/>
        <line id="svg_23" y2="5.326568" x2="7.481221" y1="4.78585" x1="8.403621"/>
        <line id="svg_24" y2="5.565119" x2="6.749662" y1="5.294761" x1="7.624352"/>
        <line id="svg_25" y2="5.994512" x2="5.429675" y1="5.533312" x1="6.956407"/>
        <line id="svg_27" y2="6.551133" x2="4.284627" y1="5.962706" x1="5.572807"/>
        <line id="svg_28" y2="7.584858" x2="3.044158" y1="6.392099" x1="4.427758"/>
        <line id="svg_29" y2="8.84123" x2="2.185372" y1="7.489437" x1="3.219096"/>
        <line id="svg_31" y2="10.606513" x2="1.644654" y1="8.602678" x1="2.280792"/>
        <line id="svg_32" y2="13.214679" x2="1.48562" y1="10.352058" x1="1.724171"/>
        <line id="svg_33" y2="14.375631" x2="1.676461" y1="12.992031" x1="1.453813"/>
        <line id="svg_34" y2="15.298031" x2="2.264889" y1="14.152983" x1="1.517427"/>
        <line id="svg_35" y2="16.172721" x2="3.521261" y1="14.948155" x1="1.915013"/>
        <line id="svg_36" y2="16.824762" x2="5.207027" y1="15.997783" x1="3.28271"/>
        <line id="svg_38" y2="17.063314" x2="7.035924" y1="16.745245" x1="4.968475"/>
        <line id="svg_39" y2="16.888376" x2="9.278311" y1="17.047411" x1="6.733758"/>
        <line id="svg_40" y2="16.284045" x2="10.661911" y1="16.983797" x1="8.992048"/>
        <line id="svg_41" y2="15.313934" x2="11.647925" y1="16.395369" x1="10.455166"/>
        <line id="svg_44" y2="13.898527" x2="12.82478" y1="15.425259" x1="11.504794"/>
        <line id="svg_45" y2="12.037824" x2="14.144766" y1="14.312017" x1="12.522614"/>
        <line id="svg_47" y2="10.59061" x2="14.605966" y1="12.228665" x1="13.953925"/>
        <ellipse ry="1" rx="1" id="svg_48" cy="3.982726" cx="13.460918"/>
     </g>
     </symbol>

     <symbol id="icon-freehand-switch-volume" viewBox="0 0 18 18">
       <title>Volume</title>
       <g id="icon-freehand-switch-volume" fill="none" stroke-width="1.5" stroke-linecap="round" stroke-linejoin="round">
         <line  id="svg_3" y2="2.395644" x2="3.640793" y1="3.172672" x1="2.178153" />
         <line  id="svg_8" y2="2.167107" x2="4.280699" y1="2.441352" x1="3.572232" />
         <line  id="svg_9" y2="2.167107" x2="4.737774" y1="2.167107" x1="4.16643" />
         <line  id="svg_10" y2="2.212814" x2="5.012019" y1="2.144253" x1="4.692066" />
         <line  id="svg_12" y2="2.418498" x2="5.400533" y1="2.167107" x1="4.806335" />
         <line  id="svg_14" y2="2.784158" x2="5.674778" y1="2.349937" x1="5.240557" />
         <line  id="svg_15" y2="3.332649" x2="5.880462" y1="2.692743" x1="5.583363" />
         <line  id="svg_16" y2="3.881139" x2="5.971877" y1="3.21838" x1="5.834754" />
         <line  id="svg_17" y2="4.452483" x2="5.926169" y1="3.789724" x1="5.949023" />
         <line  id="svg_19" y2="3.515479" x2="1.926761" y1="3.081257" x1="2.292422" />
         <line  id="svg_20" y2="4.018261" x2="1.721078" y1="3.40121" x1="2.018176" />
         <line  id="svg_21" y2="4.49819" x2="1.721078" y1="3.926846" x1="1.721078" />
         <line  id="svg_22" y2="4.909558" x2="1.903908" y1="4.406775" x1="1.67537" />
         <line  id="svg_23" y2="5.252364" x2="2.22386" y1="4.818143" x1="1.8582" />
         <line  id="svg_24" y2="5.480902" x2="2.749497" y1="5.183803" x1="2.086738" />
         <line  id="svg_26" y2="5.572317" x2="3.412256" y1="5.480902" x1="2.612374" />
         <line  id="svg_27" y2="5.549463" x2="4.120722" y1="5.572317" x1="3.25228" />
         <line  id="svg_28" y2="5.435195" x2="5.034873" y1="5.549463" x1="4.029307" />
         <line  id="svg_29" y2="5.275218" x2="5.423387" y1="5.435195" x1="4.966312" />
         <line  id="svg_30" y2="4.978119" x2="5.743339" y1="5.343779" x1="5.309118" />
         <line  id="svg_31" y2="4.31536" x2="5.949023" y1="5.115242" x1="5.697632" />
         <line  id="svg_32" y2="7.720571" x2="4.89775" y1="8.38333" x1="5.834754" />
         <line  id="svg_33" y2="7.583448" x2="4.440675" y1="7.743424" x1="4.943458" />
         <line  id="svg_34" y2="7.560594" x2="4.029307" y1="7.629156" x1="4.554944" />
         <line  id="svg_35" y2="7.674863" x2="3.457963" y1="7.514887" x1="4.189284" />
         <line  id="svg_36" y2="7.971962" x2="3.046596" y1="7.629156" x1="3.526525" />
         <line  id="svg_37" y2="8.429037" x2="2.635228" y1="7.857693" x1="3.138011" />
         <line  id="svg_38" y2="8.840405" x2="2.452398" y1="8.269061" x1="2.726643" />
         <line  id="svg_39" y2="9.388895" x2="2.429544" y1="8.657575" x1="2.520959" />
         <line  id="svg_40" y2="10.143069" x2="2.520959" y1="9.320334" x1="2.429544" />
         <line  id="svg_41" y2="10.828682" x2="2.795204" y1="10.097362" x1="2.498105" />
         <line  id="svg_42" y2="11.400026" x2="3.389402" y1="10.737267" x1="2.749497" />
         <line  id="svg_45" y2="11.857101" x2="3.595086" y1="11.24005" x1="3.297987" />
         <line  id="svg_46" y2="12.565568" x2="3.549378" y1="11.719979" x1="3.572232" />
         <line  id="svg_47" y2="13.228327" x2="3.320841" y1="12.474153" x1="3.549378" />
         <line  id="svg_48" y2="13.891086" x2="3.25228" y1="13.045497" x1="3.343695" />
         <line  id="svg_51" y2="14.508137" x2="3.366548" y1="13.685402" x1="3.229426" />
         <line  id="svg_52" y2="15.19375" x2="3.686501" y1="14.348161" x1="3.320841" />
         <line  id="svg_54" y2="15.582264" x2="4.120722" y1="15.079481" x1="3.61794" />
         <line  id="svg_55" y2="15.970778" x2="4.920604" y1="15.536556" x1="4.052161" />
         <line  id="svg_57" y2="16.016485" x2="5.469094" y1="15.902217" x1="4.737774" />
         <line  id="svg_58" y2="15.810802" x2="5.926169" y1="15.993632" x1="5.331972" />
         <line  id="svg_61" y2="15.445141" x2="6.360391" y1="15.902217" x1="5.766193" />
         <line  id="svg_62" y2="14.942359" x2="6.680344" y1="15.582264" x1="6.223268" />
         <line  id="svg_64" y2="14.371015" x2="6.84032" y1="15.148043" x1="6.566075" />
         <line  id="svg_66" y2="13.708256" x2="6.726051" y1="14.553845" x1="6.84032" />
         <line  id="svg_67" y2="12.816959" x2="6.428952" y1="14.028208" x1="6.794612" />
         <line  id="svg_70" y2="12.039931" x2="6.063292" y1="13.022643" x1="6.451806" />
         <line  id="svg_71" y2="11.194342" x2="5.903316" y1="12.085639" x1="6.063292" />
         <line  id="svg_72" y2="10.554437" x2="5.949023" y1="11.331465" x1="5.949023" />
         <line  id="svg_73" y2="9.891678" x2="6.131853" y1="10.691559" x1="5.926169" />
         <line  id="svg_74" y2="9.320334" x2="6.200415" y1="9.983093" x1="6.131853" />
         <line  id="svg_75" y2="8.74899" x2="6.063292" y1="9.548871" x1="6.223268" />
         <line  id="svg_76" y2="8.314768" x2="5.766193" y1="8.840405" x1="6.109" />
         <line  id="svg_78" y2="8.497598" x2="13.10225" y1="7.857693" x1="13.65074" />
         <line  id="svg_79" y2="9.183211" x2="12.942274" y1="8.360476" x1="13.170811" />
         <line  id="svg_80" y2="9.868824" x2="12.965127" y1="9.068942" x1="12.965127" />
         <line  id="svg_81" y2="10.508729" x2="13.193665" y1="9.777409" x1="12.965127" />
         <line  id="svg_82" y2="10.760121" x2="13.83357" y1="10.39446" x1="13.10225" />
         <line  id="svg_83" y2="10.805828" x2="14.610598" y1="10.714413" x1="13.673594" />
         <line  id="svg_88" y2="10.668706" x2="15.159088" y1="10.828682" x1="14.473476" />
         <line  id="svg_89" y2="10.348753" x2="15.501895" y1="10.714413" x1="15.067673" />
         <line  id="svg_91" y2="9.777409" x2="15.821847" y1="10.440168" x1="15.364772" />
         <line  id="svg_92" y2="9.11465" x2="15.936116" y1="9.960239" x1="15.798994" />
         <line  id="svg_93" y2="8.451891" x2="15.844701" y1="9.343187" x1="15.981824" />
         <line  id="svg_94" y2="7.834839" x2="15.501895" y1="8.657575" x1="15.936116" />
         <line  id="svg_101" y2="7.560594" x2="14.382061" y1="7.926254" x1="13.536471"  />
         <line  id="svg_102" y2="7.53774" x2="14.953405" y1="7.629155" x1="14.153523"  />
         <line  id="svg_103" y2="7.560594" x2="15.319065" y1="7.583448" x1="14.816282"  />
         <line  id="svg_104" y2="7.994816" x2="15.616164" y1="7.492033" x1="15.136235"  />
         <line  id="svg_105" y2="12.999789" x2="12.622321" y1="13.045497" x1="13.559325"  />
         <line  id="svg_106" y2="12.70269" x2="12.028123" y1="12.999789" x1="12.73659"  />
         <line  id="svg_107" y2="12.199908" x2="11.479633" y1="12.748398" x1="12.073831"  />
         <line  id="svg_108" y2="11.78854" x2="10.953997" y1="12.291323" x1="11.571048"  />
         <line  id="svg_111" y2="11.60571" x2="10.314091" y1="11.857101" x1="11.136827"  />
         <line  id="svg_112" y2="11.628564" x2="9.87987" y1="11.628564" x1="10.496921"  />
         <line  id="svg_114" y2="11.78854" x2="9.468502" y1="11.560002" x1="10.108408"  />
         <line  id="svg_115" y2="12.131346" x2="9.262818" y1="11.674271" x1="9.582771"  />
         <line  id="svg_116" y2="12.611275" x2="9.194257" y1="11.902809" x1="9.33138"  />
         <line  id="svg_117" y2="13.25118" x2="9.14855" y1="12.382738" x1="9.239965"  />
         <line  id="svg_118" y2="13.822524" x2="9.14855" y1="13.022643" x1="9.14855"  />
         <line  id="svg_119" y2="14.530991" x2="9.377087" y1="13.685402" x1="9.102842"  />
         <line  id="svg_120" y2="15.125189" x2="9.765601" y1="14.416722" x1="9.33138"  />
         <line  id="svg_121" y2="15.490849" x2="10.336945" y1="15.079481" x1="9.651332"  />
         <line  id="svg_122" y2="15.582264" x2="11.182534" y1="15.467995" x1="10.24553"  />
         <line  id="svg_123" y2="15.513703" x2="13.330788" y1="15.582264" x1="11.113973"  />
         <line  id="svg_124" y2="15.422288" x2="14.244938" y1="15.513703" x1="13.307934"  />
         <line  id="svg_125" y2="15.262311" x2="15.090527" y1="15.422288" x1="14.244938"  />
         <line  id="svg_127" y2="14.896651" x2="15.387626" y1="15.285165" x1="14.884843"  />
         <line  id="svg_129" y2="14.302453" x2="15.684725" y1="14.988066" x1="15.273357"  />
         <line  id="svg_130" y2="13.731109" x2="15.639017" y1="14.416722" x1="15.661871"  />
         <line  id="svg_131" y2="13.25118" x2="15.296211" y1="13.868232" x1="15.661871"  />
         <line  id="svg_132" y2="13.045497" x2="14.656306" y1="13.388303" x1="15.41048"  />
         <line  id="svg_133" y2="13.045497" x2="13.445056" y1="13.091204" x1="14.884843"  />
         <line  id="svg_137" y2="7.994816" x2="8.942866" y1="7.012104" x1="7.731616" />
         <line  id="svg_138" y2="8.177646" x2="9.559917" y1="7.903401" x1="8.851451" />
         <line  id="svg_139" y2="8.131938" x2="10.405506" y1="8.086231" x1="9.422795" />
         <line  id="svg_140" y2="7.857693" x2="10.97685" y1="8.131938" x1="10.24553" />
         <line  id="svg_141" y2="7.057812" x2="11.82244" y1="7.949108" x1="10.885435" />
         <line  id="svg_142" y2="5.52661" x2="12.439491" y1="7.17208" x1="11.708171" />
         <line  id="svg_143" y2="4.818143" x2="13.125104" y1="5.572317" x1="12.393784" />
         <line  id="svg_144" y2="4.589605" x2="13.924985" y1="4.886704" x1="12.987981" />
         <line  id="svg_145" y2="4.383922" x2="15.273357" y1="4.612459" x1="13.83357" />
         <line  id="svg_146" y2="4.109676" x2="15.95897" y1="4.383922" x1="15.090527" />
         <line  id="svg_147" y2="3.721163" x2="16.393192" y1="4.109676" x1="15.844701" />
         <line  id="svg_149" y2="3.21838" x2="16.644583" y1="3.881139" x1="16.301776" />
         <line  id="svg_150" y2="2.715597" x2="16.667437" y1="3.40121" x1="16.598875" />
         <line  id="svg_151" y2="2.235668" x2="16.553168" y1="2.921281" x1="16.69029" />
         <line  id="svg_152" y2="1.801447" x2="16.1418" y1="2.372791" x1="16.667437" />
         <line  id="svg_153" y2="1.572909" x2="15.59331" y1="1.984277" x1="16.370338" />
         <line  id="svg_154" y2="1.435787" x2="14.930551" y1="1.664324" x1="15.844701" />
         <line  id="svg_155" y2="1.435787" x2="14.107816" y1="1.435787" x1="15.090527" />
         <line  id="svg_156" y2="1.595763" x2="11.319657" y1="1.435787" x1="14.336353" />
         <line  id="svg_157" y2="1.755739" x2="10.382653" y1="1.595763" x1="11.639609" />
         <line  id="svg_158" y2="1.984277" x2="9.742747" y1="1.710032" x1="10.451214" />
         <line  id="svg_159" y2="2.304229" x2="9.102842" y1="1.938569" x1="9.765601" />
         <line  id="svg_161" y2="2.807012" x2="8.417229" y1="2.098546" x1="9.377087" />
         <line  id="svg_162" y2="3.378356" x2="7.960154" y1="2.647036" x1="8.531498" />
         <line  id="svg_163" y2="4.109676" x2="7.57164" y1="3.241234" x1="8.028715" />
         <line  id="svg_165" y2="4.909558" x2="7.320249" y1="3.926846" x1="7.640201" />
         <line  id="svg_166" y2="5.846562" x2="7.228834" y1="4.703874" x1="7.343103" />
         <line  id="svg_167" y2="6.600736" x2="7.411664" y1="5.663732" x1="7.160272" />
         <line  id="svg_168" y2="7.17208" x2="7.891593" y1="6.463614" x1="7.343103" />
      </g>
      </symbol>

      <symbol id="icon-xnat-logo" viewBox="0 0 128 128">
        <title>XNAT Logo</title>
        <g id="icon-xnat-logo-group" stroke-width="1" stroke-linecap="round" stroke-linejoin="round">
          <path id="xnat-logo-path-1" d="M33.4 29.3L31.8 23.7L31.2 19.1L31.8 14.1L33.4 9.1L44.2 9.1L53.8 8.7L62.4 7.9L69.6 6.7L76.4 5.1L74.2 7.5L69.6 11.7L65.2 17.1L62.8 21.3L60.8 26.1L60.8 30.1L62.4 33.1L60.2 34.5L54.4 40.7L50.4 46.3L46.8 51.1L43.8 47.5L39.6 41.9L35.4 34.1L33.4 29.3Z"></path>
          <path id="xnat-logo-path-2" d="M57.6 60.9L62 65.1L66.8 70.1L70.4 74.9L75.6 69.1L82 64L91 58.5L101.2 53.3L110.2 50.1L109.6 38.1L110.2 29.3L111.4 21.9L113 15.5L114.6 10.1L109.6 11.9L101.2 15.5L90.4 20.3L82 24.3L75.6 28.1L68.4 34.1L62 40.1L57.2 45.5L54.2 50.5L50.4 56.3L57.6 60.9Z"></path>
          <path id="xnat-logo-path-3" d="M76.4 83.9L78.4 89.9L78.4 97.1L77.4 103.7L75.4 110.3L72.6 118.9L79 110.9L82.5 104.9L86.6 97.1L88.6 89.9L89.8 80.7L88.6 73.3L86.6 67.1L83.4 69.5L79 73.3L73.8 78.3L76.4 83.9Z"></path>
          <path id="xnat-logo-path-4" d="M65.6 113.5L65.6 106.9L64 100.9L62 96.1L56.6 90.1L49.4 85.1L37.2 79.1L24.8 74.3L13.2 70.7L14.8 67.1L17 59.1L18.6 51.5L19 43.9L30.4 50.7L42.6 58.1L52.4 64.7L59.8 70.7L65.6 76.9L69.6 82.7L72.6 89.5L73.2 96.7L72 104.5L69.6 113.5L66.4 121.1L65.6 113.5Z"></path>
          <path id="xnat-logo-path-5" d="M57.38 112.81L54.13 106.94L51.25 101.44L49.63 96.44L48.13 90.94L50.88 92.31L54.13 95.06L57.75 98.81L60.13 104.44L61 110.94L61 118.06L57.38 112.81Z"></path>
        </g>
      </symbol>

      <symbol id="icon-xnat-ohif-logo" viewBox="0 0 128 128">
        <title>XNAT Logo</title>
        <g id="icon-ohif-logo-group" stroke="#fff" stroke-width="8" stroke-miterlimit="10">
          <rect x="3.4" y="3.4" width="51.2" height="51.2" rx="2.7" ry="2.7"/>
          <rect x="70.8" y="3.4" width="51.2" height="51.2" rx="1" ry="2.7"/>
          <rect x="3.4" y="70.8" width="51.2" height="51.2" rx="2.7" ry="2.7"/>
          <rect x="70.8" y="70.8" width="51.2" height="51.2" rx="2.7" ry="2.7"/>
        </g>
        <g id="icon-xnat-logo-group" fill="#91B9CD" stroke="#000" stroke-width="2" stroke-linecap="round" stroke-linejoin="round">
          <path id="xnat-logo-path-1" d="M33.4 29.3L31.8 23.7L31.2 19.1L31.8 14.1L33.4 9.1L44.2 9.1L53.8 8.7L62.4 7.9L69.6 6.7L76.4 5.1L74.2 7.5L69.6 11.7L65.2 17.1L62.8 21.3L60.8 26.1L60.8 30.1L62.4 33.1L60.2 34.5L54.4 40.7L50.4 46.3L46.8 51.1L43.8 47.5L39.6 41.9L35.4 34.1L33.4 29.3Z"></path>
          <path id="xnat-logo-path-2" d="M57.6 60.9L62 65.1L66.8 70.1L70.4 74.9L75.6 69.1L82 64L91 58.5L101.2 53.3L110.2 50.1L109.6 38.1L110.2 29.3L111.4 21.9L113 15.5L114.6 10.1L109.6 11.9L101.2 15.5L90.4 20.3L82 24.3L75.6 28.1L68.4 34.1L62 40.1L57.2 45.5L54.2 50.5L50.4 56.3L57.6 60.9Z"></path>
          <path id="xnat-logo-path-3" d="M76.4 83.9L78.4 89.9L78.4 97.1L77.4 103.7L75.4 110.3L72.6 118.9L79 110.9L82.5 104.9L86.6 97.1L88.6 89.9L89.8 80.7L88.6 73.3L86.6 67.1L83.4 69.5L79 73.3L73.8 78.3L76.4 83.9Z"></path>
          <path id="xnat-logo-path-4" d="M65.6 113.5L65.6 106.9L64 100.9L62 96.1L56.6 90.1L49.4 85.1L37.2 79.1L24.8 74.3L13.2 70.7L14.8 67.1L17 59.1L18.6 51.5L19 43.9L30.4 50.7L42.6 58.1L52.4 64.7L59.8 70.7L65.6 76.9L69.6 82.7L72.6 89.5L73.2 96.7L72 104.5L69.6 113.5L66.4 121.1L65.6 113.5Z"></path>
          <path id="xnat-logo-path-5" d="M57.38 112.81L54.13 106.94L51.25 101.44L49.63 96.44L48.13 90.94L50.88 92.31L54.13 95.06L57.75 98.81L60.13 104.44L61 110.94L61 118.06L57.38 112.81Z"></path>
        </g>

      </symbol>

      <symbol id="icon-xnat-import" viewBox="0 0 128 128">
        <title>XNAT Import</title>
        <g id="icon-xnat-import-group" stroke-width="1" stroke-linecap="round" stroke-linejoin="round">
          <path d="M32.06 10L42.41 10L51.6 9.61L59.84 8.85L66.73 7.7L73.25 6.17L71.14 8.47L66.73 12.49L62.52 17.66L60.22 21.68L58.31 26.28L58.31 30.11L59.84 32.98L57.73 34.32L52.18 40.26L48.35 45.63L44.9 50.22L42.03 46.77L38 41.41L33.98 33.94L32.06 29.34L30.53 23.98L29.96 19.57L30.53 14.79L32.06 10Z" id="l16G6B4Cv"></path>
          <path d="M32.06 10L42.41 10L51.6 9.61L59.84 8.85L66.73 7.7L73.25 6.17L71.14 8.47L66.73 12.49L62.52 17.66L60.22 21.68L58.31 26.28L58.31 30.11L59.84 32.98L57.73 34.32L52.18 40.26L48.35 45.63L44.9 50.22L42.03 46.77L38 41.41L33.98 33.94L32.06 29.34L30.53 23.98L29.96 19.57L30.53 14.79L32.06 10Z" id="bs85zEr4x"></path>
          <path d="M32.06 10L42.41 10L51.6 9.61L59.84 8.85L66.73 7.7L73.25 6.17L71.14 8.47L66.73 12.49L62.52 17.66L60.22 21.68L58.31 26.28L58.31 30.11L59.84 32.98L57.73 34.32L52.18 40.26L48.35 45.63L44.9 50.22L42.03 46.77L38 41.41L33.98 33.94L32.06 29.34L30.53 23.98L29.96 19.57L30.53 14.79L32.06 10Z" id="d2AcM1Rr2D"></path>
          <path d="M32.06 10L42.41 10L51.6 9.61L59.84 8.85L66.73 7.7L73.25 6.17L71.14 8.47L66.73 12.49L62.52 17.66L60.22 21.68L58.31 26.28L58.31 30.11L59.84 32.98L57.73 34.32L52.18 40.26L48.35 45.63L44.9 50.22L42.03 46.77L38 41.41L33.98 33.94L32.06 29.34L30.53 23.98L29.96 19.57L30.53 14.79L32.06 10Z" id="aO46nPHhL"></path>
          <path d="M32.06 10L42.41 10L51.6 9.61L59.84 8.85L66.73 7.7L73.25 6.17L71.14 8.47L66.73 12.49L62.52 17.66L60.22 21.68L58.31 26.28L58.31 30.11L59.84 32.98L57.73 34.32L52.18 40.26L48.35 45.63L44.9 50.22L42.03 46.77L38 41.41L33.98 33.94L32.06 29.34L30.53 23.98L29.96 19.57L30.53 14.79L32.06 10Z" id="aTXhaUGIZ"></path>
          <path d="M32.06 10L42.41 10L51.6 9.61L59.84 8.85L66.73 7.7L73.25 6.17L71.14 8.47L66.73 12.49L62.52 17.66L60.22 21.68L58.31 26.28L58.31 30.11L59.84 32.98L57.73 34.32L52.18 40.26L48.35 45.63L44.9 50.22L42.03 46.77L38 41.41L33.98 33.94L32.06 29.34L30.53 23.98L29.96 19.57L30.53 14.79L32.06 10Z" id="cx6ewtT"></path>
          <path d="M32.06 10L42.41 10L51.6 9.61L59.84 8.85L66.73 7.7L73.25 6.17L71.14 8.47L66.73 12.49L62.52 17.66L60.22 21.68L58.31 26.28L58.31 30.11L59.84 32.98L57.73 34.32L52.18 40.26L48.35 45.63L44.9 50.22L42.03 46.77L38 41.41L33.98 33.94L32.06 29.34L30.53 23.98L29.96 19.57L30.53 14.79L32.06 10Z" id="d1RzwcILaq"></path>
          <path d="M32.06 10L42.41 10L51.6 9.61L59.84 8.85L66.73 7.7L73.25 6.17L71.14 8.47L66.73 12.49L62.52 17.66L60.22 21.68L58.31 26.28L58.31 30.11L59.84 32.98L57.73 34.32L52.18 40.26L48.35 45.63L44.9 50.22L42.03 46.77L38 41.41L33.98 33.94L32.06 29.34L30.53 23.98L29.96 19.57L30.53 14.79L32.06 10Z" id="b29PvyuwfK"></path>
          <path d="M32.06 10L42.41 10L51.6 9.61L59.84 8.85L66.73 7.7L73.25 6.17L71.14 8.47L66.73 12.49L62.52 17.66L60.22 21.68L58.31 26.28L58.31 30.11L59.84 32.98L57.73 34.32L52.18 40.26L48.35 45.63L44.9 50.22L42.03 46.77L38 41.41L33.98 33.94L32.06 29.34L30.53 23.98L29.96 19.57L30.53 14.79L32.06 10Z" id="d77cQoMye"></path>
          <path d="M32.06 10L42.41 10L51.6 9.61L59.84 8.85L66.73 7.7L73.25 6.17L71.14 8.47L66.73 12.49L62.52 17.66L60.22 21.68L58.31 26.28L58.31 30.11L59.84 32.98L57.73 34.32L52.18 40.26L48.35 45.63L44.9 50.22L42.03 46.77L38 41.41L33.98 33.94L32.06 29.34L30.53 23.98L29.96 19.57L30.53 14.79L32.06 10Z" id="b3ph0yHWsu"></path>
          <path d="M32.06 10L42.41 10L51.6 9.61L59.84 8.85L66.73 7.7L73.25 6.17L71.14 8.47L66.73 12.49L62.52 17.66L60.22 21.68L58.31 26.28L58.31 30.11L59.84 32.98L57.73 34.32L52.18 40.26L48.35 45.63L44.9 50.22L42.03 46.77L38 41.41L33.98 33.94L32.06 29.34L30.53 23.98L29.96 19.57L30.53 14.79L32.06 10Z" id="f2LTyoLjId"></path>
          <path d="M32.06 10L42.41 10L51.6 9.61L59.84 8.85L66.73 7.7L73.25 6.17L71.14 8.47L66.73 12.49L62.52 17.66L60.22 21.68L58.31 26.28L58.31 30.11L59.84 32.98L57.73 34.32L52.18 40.26L48.35 45.63L44.9 50.22L42.03 46.77L38 41.41L33.98 33.94L32.06 29.34L30.53 23.98L29.96 19.57L30.53 14.79L32.06 10Z" id="b3jqg97Q9D"></path>
          <path d="M32.06 10L42.41 10L51.6 9.61L59.84 8.85L66.73 7.7L73.25 6.17L71.14 8.47L66.73 12.49L62.52 17.66L60.22 21.68L58.31 26.28L58.31 30.11L59.84 32.98L57.73 34.32L52.18 40.26L48.35 45.63L44.9 50.22L42.03 46.77L38 41.41L33.98 33.94L32.06 29.34L30.53 23.98L29.96 19.57L30.53 14.79L32.06 10Z" id="bQi16Y8Vn"></path>
          <path d="M32.06 10L42.41 10L51.6 9.61L59.84 8.85L66.73 7.7L73.25 6.17L71.14 8.47L66.73 12.49L62.52 17.66L60.22 21.68L58.31 26.28L58.31 30.11L59.84 32.98L57.73 34.32L52.18 40.26L48.35 45.63L44.9 50.22L42.03 46.77L38 41.41L33.98 33.94L32.06 29.34L30.53 23.98L29.96 19.57L30.53 14.79L32.06 10Z" id="e6mWjPDYs"></path>
          <path d="M32.06 10L42.41 10L51.6 9.61L59.84 8.85L66.73 7.7L73.25 6.17L71.14 8.47L66.73 12.49L62.52 17.66L60.22 21.68L58.31 26.28L58.31 30.11L59.84 32.98L57.73 34.32L52.18 40.26L48.35 45.63L44.9 50.22L42.03 46.77L38 41.41L33.98 33.94L32.06 29.34L30.53 23.98L29.96 19.57L30.53 14.79L32.06 10Z" id="bTRhKakBQ"></path>
          <path d="M32.06 10L42.41 10L51.6 9.61L59.84 8.85L66.73 7.7L73.25 6.17L71.14 8.47L66.73 12.49L62.52 17.66L60.22 21.68L58.31 26.28L58.31 30.11L59.84 32.98L57.73 34.32L52.18 40.26L48.35 45.63L44.9 50.22L42.03 46.77L38 41.41L33.98 33.94L32.06 29.34L30.53 23.98L29.96 19.57L30.53 14.79L32.06 10Z" id="c13BUTLk5r"></path>
          <path d="M72.48 67.46L78.61 62.58L87.23 57.31L97 52.33L105.62 49.26L105.04 37.77L105.62 29.34L106.77 22.26L108.3 16.13L109.83 10.96L105.04 12.68L97 16.13L86.66 20.72L78.61 24.55L72.48 28.19L65.59 33.94L59.46 39.69L54.86 44.86L51.99 49.65L48.35 55.2L55.24 59.61L59.46 63.63L64.05 68.42L67.5 73.02L72.48 67.46Z" id="bIpWK4iP"></path>
          <path d="M72.48 67.46L78.61 62.58L87.23 57.31L97 52.33L105.62 49.26L105.04 37.77L105.62 29.34L106.77 22.26L108.3 16.13L109.83 10.96L105.04 12.68L97 16.13L86.66 20.72L78.61 24.55L72.48 28.19L65.59 33.94L59.46 39.69L54.86 44.86L51.99 49.65L48.35 55.2L55.24 59.61L59.46 63.63L64.05 68.42L67.5 73.02L72.48 67.46Z" id="cFZ0HMGOh"></path>
          <path d="M72.48 67.46L78.61 62.58L87.23 57.31L97 52.33L105.62 49.26L105.04 37.77L105.62 29.34L106.77 22.26L108.3 16.13L109.83 10.96L105.04 12.68L97 16.13L86.66 20.72L78.61 24.55L72.48 28.19L65.59 33.94L59.46 39.69L54.86 44.86L51.99 49.65L48.35 55.2L55.24 59.61L59.46 63.63L64.05 68.42L67.5 73.02L72.48 67.46Z" id="a7qLTwfwOa"></path>
          <path d="M72.48 67.46L78.61 62.58L87.23 57.31L97 52.33L105.62 49.26L105.04 37.77L105.62 29.34L106.77 22.26L108.3 16.13L109.83 10.96L105.04 12.68L97 16.13L86.66 20.72L78.61 24.55L72.48 28.19L65.59 33.94L59.46 39.69L54.86 44.86L51.99 49.65L48.35 55.2L55.24 59.61L59.46 63.63L64.05 68.42L67.5 73.02L72.48 67.46Z" id="f8sADGAJ1"></path>
          <path d="M72.48 67.46L78.61 62.58L87.23 57.31L97 52.33L105.62 49.26L105.04 37.77L105.62 29.34L106.77 22.26L108.3 16.13L109.83 10.96L105.04 12.68L97 16.13L86.66 20.72L78.61 24.55L72.48 28.19L65.59 33.94L59.46 39.69L54.86 44.86L51.99 49.65L48.35 55.2L55.24 59.61L59.46 63.63L64.05 68.42L67.5 73.02L72.48 67.46Z" id="dH1ioGGt5"></path>
          <path d="M72.48 67.46L78.61 62.58L87.23 57.31L97 52.33L105.62 49.26L105.04 37.77L105.62 29.34L106.77 22.26L108.3 16.13L109.83 10.96L105.04 12.68L97 16.13L86.66 20.72L78.61 24.55L72.48 28.19L65.59 33.94L59.46 39.69L54.86 44.86L51.99 49.65L48.35 55.2L55.24 59.61L59.46 63.63L64.05 68.42L67.5 73.02L72.48 67.46Z" id="f2nuLeZX0u"></path>
          <path d="M72.48 67.46L78.61 62.58L87.23 57.31L97 52.33L105.62 49.26L105.04 37.77L105.62 29.34L106.77 22.26L108.3 16.13L109.83 10.96L105.04 12.68L97 16.13L86.66 20.72L78.61 24.55L72.48 28.19L65.59 33.94L59.46 39.69L54.86 44.86L51.99 49.65L48.35 55.2L55.24 59.61L59.46 63.63L64.05 68.42L67.5 73.02L72.48 67.46Z" id="g1TkHRqufw"></path>
          <path d="M72.48 67.46L78.61 62.58L87.23 57.31L97 52.33L105.62 49.26L105.04 37.77L105.62 29.34L106.77 22.26L108.3 16.13L109.83 10.96L105.04 12.68L97 16.13L86.66 20.72L78.61 24.55L72.48 28.19L65.59 33.94L59.46 39.69L54.86 44.86L51.99 49.65L48.35 55.2L55.24 59.61L59.46 63.63L64.05 68.42L67.5 73.02L72.48 67.46Z" id="c4QkNOIS6"></path>
          <path d="M72.48 67.46L78.61 62.58L87.23 57.31L97 52.33L105.62 49.26L105.04 37.77L105.62 29.34L106.77 22.26L108.3 16.13L109.83 10.96L105.04 12.68L97 16.13L86.66 20.72L78.61 24.55L72.48 28.19L65.59 33.94L59.46 39.69L54.86 44.86L51.99 49.65L48.35 55.2L55.24 59.61L59.46 63.63L64.05 68.42L67.5 73.02L72.48 67.46Z" id="g3iYHqpebs"></path>
          <path d="M72.48 67.46L78.61 62.58L87.23 57.31L97 52.33L105.62 49.26L105.04 37.77L105.62 29.34L106.77 22.26L108.3 16.13L109.83 10.96L105.04 12.68L97 16.13L86.66 20.72L78.61 24.55L72.48 28.19L65.59 33.94L59.46 39.69L54.86 44.86L51.99 49.65L48.35 55.2L55.24 59.61L59.46 63.63L64.05 68.42L67.5 73.02L72.48 67.46Z" id="d1KAkWJhNe"></path>
          <path d="M72.48 67.46L78.61 62.58L87.23 57.31L97 52.33L105.62 49.26L105.04 37.77L105.62 29.34L106.77 22.26L108.3 16.13L109.83 10.96L105.04 12.68L97 16.13L86.66 20.72L78.61 24.55L72.48 28.19L65.59 33.94L59.46 39.69L54.86 44.86L51.99 49.65L48.35 55.2L55.24 59.61L59.46 63.63L64.05 68.42L67.5 73.02L72.48 67.46Z" id="b61klJlTHo"></path>
          <path d="M72.48 67.46L78.61 62.58L87.23 57.31L97 52.33L105.62 49.26L105.04 37.77L105.62 29.34L106.77 22.26L108.3 16.13L109.83 10.96L105.04 12.68L97 16.13L86.66 20.72L78.61 24.55L72.48 28.19L65.59 33.94L59.46 39.69L54.86 44.86L51.99 49.65L48.35 55.2L55.24 59.61L59.46 63.63L64.05 68.42L67.5 73.02L72.48 67.46Z" id="bchcM3S4m"></path>
          <path d="M72.48 67.46L78.61 62.58L87.23 57.31L97 52.33L105.62 49.26L105.04 37.77L105.62 29.34L106.77 22.26L108.3 16.13L109.83 10.96L105.04 12.68L97 16.13L86.66 20.72L78.61 24.55L72.48 28.19L65.59 33.94L59.46 39.69L54.86 44.86L51.99 49.65L48.35 55.2L55.24 59.61L59.46 63.63L64.05 68.42L67.5 73.02L72.48 67.46Z" id="dtmKsiM4m"></path>
          <path d="M72.48 67.46L78.61 62.58L87.23 57.31L97 52.33L105.62 49.26L105.04 37.77L105.62 29.34L106.77 22.26L108.3 16.13L109.83 10.96L105.04 12.68L97 16.13L86.66 20.72L78.61 24.55L72.48 28.19L65.59 33.94L59.46 39.69L54.86 44.86L51.99 49.65L48.35 55.2L55.24 59.61L59.46 63.63L64.05 68.42L67.5 73.02L72.48 67.46Z" id="d3QCSc2vDa"></path>
          <path d="M72.48 67.46L78.61 62.58L87.23 57.31L97 52.33L105.62 49.26L105.04 37.77L105.62 29.34L106.77 22.26L108.3 16.13L109.83 10.96L105.04 12.68L97 16.13L86.66 20.72L78.61 24.55L72.48 28.19L65.59 33.94L59.46 39.69L54.86 44.86L51.99 49.65L48.35 55.2L55.24 59.61L59.46 63.63L64.05 68.42L67.5 73.02L72.48 67.46Z" id="aT3FcOVT2"></path>
          <path d="M72.48 67.46L78.61 62.58L87.23 57.31L97 52.33L105.62 49.26L105.04 37.77L105.62 29.34L106.77 22.26L108.3 16.13L109.83 10.96L105.04 12.68L97 16.13L86.66 20.72L78.61 24.55L72.48 28.19L65.59 33.94L59.46 39.69L54.86 44.86L51.99 49.65L48.35 55.2L55.24 59.61L59.46 63.63L64.05 68.42L67.5 73.02L72.48 67.46Z" id="c8I688uGM"></path>
          <path d="M72.29 106.92L69.61 115.16L75.74 107.49L79.09 101.75L83.02 94.28L84.93 87.38L86.08 78.57L84.93 71.48L83.02 65.55L79.95 67.84L75.74 71.48L70.76 76.27L73.25 81.64L75.16 87.38L75.16 94.28L74.21 100.6L72.29 106.92Z" id="c3ZLDGNOP2"></path>
          <path d="M72.29 106.92L69.61 115.16L75.74 107.49L79.09 101.75L83.02 94.28L84.93 87.38L86.08 78.57L84.93 71.48L83.02 65.55L79.95 67.84L75.74 71.48L70.76 76.27L73.25 81.64L75.16 87.38L75.16 94.28L74.21 100.6L72.29 106.92Z" id="gu6ZAbalB"></path>
          <path d="M72.29 106.92L69.61 115.16L75.74 107.49L79.09 101.75L83.02 94.28L84.93 87.38L86.08 78.57L84.93 71.48L83.02 65.55L79.95 67.84L75.74 71.48L70.76 76.27L73.25 81.64L75.16 87.38L75.16 94.28L74.21 100.6L72.29 106.92Z" id="b2NhrPamVB"></path>
          <path d="M72.29 106.92L69.61 115.16L75.74 107.49L79.09 101.75L83.02 94.28L84.93 87.38L86.08 78.57L84.93 71.48L83.02 65.55L79.95 67.84L75.74 71.48L70.76 76.27L73.25 81.64L75.16 87.38L75.16 94.28L74.21 100.6L72.29 106.92Z" id="anJWWO0Uc"></path>
          <path d="M72.29 106.92L69.61 115.16L75.74 107.49L79.09 101.75L83.02 94.28L84.93 87.38L86.08 78.57L84.93 71.48L83.02 65.55L79.95 67.84L75.74 71.48L70.76 76.27L73.25 81.64L75.16 87.38L75.16 94.28L74.21 100.6L72.29 106.92Z" id="b1HUYyRu3Q"></path>
          <path d="M72.29 106.92L69.61 115.16L75.74 107.49L79.09 101.75L83.02 94.28L84.93 87.38L86.08 78.57L84.93 71.48L83.02 65.55L79.95 67.84L75.74 71.48L70.76 76.27L73.25 81.64L75.16 87.38L75.16 94.28L74.21 100.6L72.29 106.92Z" id="atozcAOe3"></path>
          <path d="M72.29 106.92L69.61 115.16L75.74 107.49L79.09 101.75L83.02 94.28L84.93 87.38L86.08 78.57L84.93 71.48L83.02 65.55L79.95 67.84L75.74 71.48L70.76 76.27L73.25 81.64L75.16 87.38L75.16 94.28L74.21 100.6L72.29 106.92Z" id="dar0Ptyn3Y"></path>
          <path d="M72.29 106.92L69.61 115.16L75.74 107.49L79.09 101.75L83.02 94.28L84.93 87.38L86.08 78.57L84.93 71.48L83.02 65.55L79.95 67.84L75.74 71.48L70.76 76.27L73.25 81.64L75.16 87.38L75.16 94.28L74.21 100.6L72.29 106.92Z" id="kD41JDQPX"></path>
          <path d="M72.29 106.92L69.61 115.16L75.74 107.49L79.09 101.75L83.02 94.28L84.93 87.38L86.08 78.57L84.93 71.48L83.02 65.55L79.95 67.84L75.74 71.48L70.76 76.27L73.25 81.64L75.16 87.38L75.16 94.28L74.21 100.6L72.29 106.92Z" id="a3oyK9NOI"></path>
          <path d="M72.29 106.92L69.61 115.16L75.74 107.49L79.09 101.75L83.02 94.28L84.93 87.38L86.08 78.57L84.93 71.48L83.02 65.55L79.95 67.84L75.74 71.48L70.76 76.27L73.25 81.64L75.16 87.38L75.16 94.28L74.21 100.6L72.29 106.92Z" id="cbPxmuA6"></path>
          <path d="M72.29 106.92L69.61 115.16L75.74 107.49L79.09 101.75L83.02 94.28L84.93 87.38L86.08 78.57L84.93 71.48L83.02 65.55L79.95 67.84L75.74 71.48L70.76 76.27L73.25 81.64L75.16 87.38L75.16 94.28L74.21 100.6L72.29 106.92Z" id="c6plLSSkI6"></path>
          <path d="M72.29 106.92L69.61 115.16L75.74 107.49L79.09 101.75L83.02 94.28L84.93 87.38L86.08 78.57L84.93 71.48L83.02 65.55L79.95 67.84L75.74 71.48L70.76 76.27L73.25 81.64L75.16 87.38L75.16 94.28L74.21 100.6L72.29 106.92Z" id="b16hUano3Q"></path>
          <path d="M72.29 106.92L69.61 115.16L75.74 107.49L79.09 101.75L83.02 94.28L84.93 87.38L86.08 78.57L84.93 71.48L83.02 65.55L79.95 67.84L75.74 71.48L70.76 76.27L73.25 81.64L75.16 87.38L75.16 94.28L74.21 100.6L72.29 106.92Z" id="d3QAfY59c"></path>
          <path d="M72.29 106.92L69.61 115.16L75.74 107.49L79.09 101.75L83.02 94.28L84.93 87.38L86.08 78.57L84.93 71.48L83.02 65.55L79.95 67.84L75.74 71.48L70.76 76.27L73.25 81.64L75.16 87.38L75.16 94.28L74.21 100.6L72.29 106.92Z" id="a61cIJH60"></path>
          <path d="M72.29 106.92L69.61 115.16L75.74 107.49L79.09 101.75L83.02 94.28L84.93 87.38L86.08 78.57L84.93 71.48L83.02 65.55L79.95 67.84L75.74 71.48L70.76 76.27L73.25 81.64L75.16 87.38L75.16 94.28L74.21 100.6L72.29 106.92Z" id="e7gP0x6IE"></path>
          <path d="M72.29 106.92L69.61 115.16L75.74 107.49L79.09 101.75L83.02 94.28L84.93 87.38L86.08 78.57L84.93 71.48L83.02 65.55L79.95 67.84L75.74 71.48L70.76 76.27L73.25 81.64L75.16 87.38L75.16 94.28L74.21 100.6L72.29 106.92Z" id="b13AkeRCll"></path>
          <path d="M54.28 87.57L47.39 82.79L35.7 77.04L23.83 72.44L12.72 68.99L14.25 65.55L16.36 57.88L17.89 50.61L18.27 43.33L29.19 49.84L40.88 56.93L50.26 63.25L57.35 68.99L62.9 74.93L66.73 80.49L69.61 87L70.18 93.89L69.03 101.37L66.73 109.98L63.67 117.26L62.9 109.98L62.9 103.66L61.37 97.92L59.46 93.32L54.28 87.57Z" id="bgAkoPRAD"></path>
          <path d="M54.28 87.57L47.39 82.79L35.7 77.04L23.83 72.44L12.72 68.99L14.25 65.55L16.36 57.88L17.89 50.61L18.27 43.33L29.19 49.84L40.88 56.93L50.26 63.25L57.35 68.99L62.9 74.93L66.73 80.49L69.61 87L70.18 93.89L69.03 101.37L66.73 109.98L63.67 117.26L62.9 109.98L62.9 103.66L61.37 97.92L59.46 93.32L54.28 87.57Z" id="eBu3hBijU"></path>
          <path d="M54.28 87.57L47.39 82.79L35.7 77.04L23.83 72.44L12.72 68.99L14.25 65.55L16.36 57.88L17.89 50.61L18.27 43.33L29.19 49.84L40.88 56.93L50.26 63.25L57.35 68.99L62.9 74.93L66.73 80.49L69.61 87L70.18 93.89L69.03 101.37L66.73 109.98L63.67 117.26L62.9 109.98L62.9 103.66L61.37 97.92L59.46 93.32L54.28 87.57Z" id="b4rvyieRAE"></path>
          <path d="M54.28 87.57L47.39 82.79L35.7 77.04L23.83 72.44L12.72 68.99L14.25 65.55L16.36 57.88L17.89 50.61L18.27 43.33L29.19 49.84L40.88 56.93L50.26 63.25L57.35 68.99L62.9 74.93L66.73 80.49L69.61 87L70.18 93.89L69.03 101.37L66.73 109.98L63.67 117.26L62.9 109.98L62.9 103.66L61.37 97.92L59.46 93.32L54.28 87.57Z" id="apFOnfmy"></path>
          <path d="M54.28 87.57L47.39 82.79L35.7 77.04L23.83 72.44L12.72 68.99L14.25 65.55L16.36 57.88L17.89 50.61L18.27 43.33L29.19 49.84L40.88 56.93L50.26 63.25L57.35 68.99L62.9 74.93L66.73 80.49L69.61 87L70.18 93.89L69.03 101.37L66.73 109.98L63.67 117.26L62.9 109.98L62.9 103.66L61.37 97.92L59.46 93.32L54.28 87.57Z" id="n63UFTVU1y"></path>
          <path d="M54.28 87.57L47.39 82.79L35.7 77.04L23.83 72.44L12.72 68.99L14.25 65.55L16.36 57.88L17.89 50.61L18.27 43.33L29.19 49.84L40.88 56.93L50.26 63.25L57.35 68.99L62.9 74.93L66.73 80.49L69.61 87L70.18 93.89L69.03 101.37L66.73 109.98L63.67 117.26L62.9 109.98L62.9 103.66L61.37 97.92L59.46 93.32L54.28 87.57Z" id="c4F5LeCIpg"></path>
          <path d="M54.28 87.57L47.39 82.79L35.7 77.04L23.83 72.44L12.72 68.99L14.25 65.55L16.36 57.88L17.89 50.61L18.27 43.33L29.19 49.84L40.88 56.93L50.26 63.25L57.35 68.99L62.9 74.93L66.73 80.49L69.61 87L70.18 93.89L69.03 101.37L66.73 109.98L63.67 117.26L62.9 109.98L62.9 103.66L61.37 97.92L59.46 93.32L54.28 87.57Z" id="o285IlA4HS"></path>
          <path d="M54.28 87.57L47.39 82.79L35.7 77.04L23.83 72.44L12.72 68.99L14.25 65.55L16.36 57.88L17.89 50.61L18.27 43.33L29.19 49.84L40.88 56.93L50.26 63.25L57.35 68.99L62.9 74.93L66.73 80.49L69.61 87L70.18 93.89L69.03 101.37L66.73 109.98L63.67 117.26L62.9 109.98L62.9 103.66L61.37 97.92L59.46 93.32L54.28 87.57Z" id="f2hpZ3Xv62"></path>
          <path d="M54.28 87.57L47.39 82.79L35.7 77.04L23.83 72.44L12.72 68.99L14.25 65.55L16.36 57.88L17.89 50.61L18.27 43.33L29.19 49.84L40.88 56.93L50.26 63.25L57.35 68.99L62.9 74.93L66.73 80.49L69.61 87L70.18 93.89L69.03 101.37L66.73 109.98L63.67 117.26L62.9 109.98L62.9 103.66L61.37 97.92L59.46 93.32L54.28 87.57Z" id="cAHpQeHg6"></path>
          <path d="M54.28 87.57L47.39 82.79L35.7 77.04L23.83 72.44L12.72 68.99L14.25 65.55L16.36 57.88L17.89 50.61L18.27 43.33L29.19 49.84L40.88 56.93L50.26 63.25L57.35 68.99L62.9 74.93L66.73 80.49L69.61 87L70.18 93.89L69.03 101.37L66.73 109.98L63.67 117.26L62.9 109.98L62.9 103.66L61.37 97.92L59.46 93.32L54.28 87.57Z" id="b4U1tQbt6c"></path>
          <path d="M54.28 87.57L47.39 82.79L35.7 77.04L23.83 72.44L12.72 68.99L14.25 65.55L16.36 57.88L17.89 50.61L18.27 43.33L29.19 49.84L40.88 56.93L50.26 63.25L57.35 68.99L62.9 74.93L66.73 80.49L69.61 87L70.18 93.89L69.03 101.37L66.73 109.98L63.67 117.26L62.9 109.98L62.9 103.66L61.37 97.92L59.46 93.32L54.28 87.57Z" id="f2iAZEKEeZ"></path>
          <path d="M54.28 87.57L47.39 82.79L35.7 77.04L23.83 72.44L12.72 68.99L14.25 65.55L16.36 57.88L17.89 50.61L18.27 43.33L29.19 49.84L40.88 56.93L50.26 63.25L57.35 68.99L62.9 74.93L66.73 80.49L69.61 87L70.18 93.89L69.03 101.37L66.73 109.98L63.67 117.26L62.9 109.98L62.9 103.66L61.37 97.92L59.46 93.32L54.28 87.57Z" id="beu1qtx8z"></path>
          <path d="M54.28 87.57L47.39 82.79L35.7 77.04L23.83 72.44L12.72 68.99L14.25 65.55L16.36 57.88L17.89 50.61L18.27 43.33L29.19 49.84L40.88 56.93L50.26 63.25L57.35 68.99L62.9 74.93L66.73 80.49L69.61 87L70.18 93.89L69.03 101.37L66.73 109.98L63.67 117.26L62.9 109.98L62.9 103.66L61.37 97.92L59.46 93.32L54.28 87.57Z" id="c1kXP9I11u"></path>
          <path d="M54.28 87.57L47.39 82.79L35.7 77.04L23.83 72.44L12.72 68.99L14.25 65.55L16.36 57.88L17.89 50.61L18.27 43.33L29.19 49.84L40.88 56.93L50.26 63.25L57.35 68.99L62.9 74.93L66.73 80.49L69.61 87L70.18 93.89L69.03 101.37L66.73 109.98L63.67 117.26L62.9 109.98L62.9 103.66L61.37 97.92L59.46 93.32L54.28 87.57Z" id="b1a665Lgso"></path>
          <path d="M54.28 87.57L47.39 82.79L35.7 77.04L23.83 72.44L12.72 68.99L14.25 65.55L16.36 57.88L17.89 50.61L18.27 43.33L29.19 49.84L40.88 56.93L50.26 63.25L57.35 68.99L62.9 74.93L66.73 80.49L69.61 87L70.18 93.89L69.03 101.37L66.73 109.98L63.67 117.26L62.9 109.98L62.9 103.66L61.37 97.92L59.46 93.32L54.28 87.57Z" id="d2zIywrb6n"></path>
          <path d="M54.28 87.57L47.39 82.79L35.7 77.04L23.83 72.44L12.72 68.99L14.25 65.55L16.36 57.88L17.89 50.61L18.27 43.33L29.19 49.84L40.88 56.93L50.26 63.25L57.35 68.99L62.9 74.93L66.73 80.49L69.61 87L70.18 93.89L69.03 101.37L66.73 109.98L63.67 117.26L62.9 109.98L62.9 103.66L61.37 97.92L59.46 93.32L54.28 87.57Z" id="b2tL3hWznt"></path>
          <path d="M46.17 88.38L48.81 89.69L51.92 92.32L55.39 95.92L57.67 101.31L58.5 107.53L58.5 114.35L55.03 109.32L51.92 103.7L49.16 98.43L47.61 93.65L46.17 88.38Z" id="gyMwmbIpd"></path>
          <path d="M46.17 88.38L48.81 89.69L51.92 92.32L55.39 95.92L57.67 101.31L58.5 107.53L58.5 114.35L55.03 109.32L51.92 103.7L49.16 98.43L47.61 93.65L46.17 88.38Z" id="d1Gtacutft"></path>
          <path d="M46.17 88.38L48.81 89.69L51.92 92.32L55.39 95.92L57.67 101.31L58.5 107.53L58.5 114.35L55.03 109.32L51.92 103.7L49.16 98.43L47.61 93.65L46.17 88.38Z" id="b2a6f6v1YF"></path>
          <path d="M46.17 88.38L48.81 89.69L51.92 92.32L55.39 95.92L57.67 101.31L58.5 107.53L58.5 114.35L55.03 109.32L51.92 103.7L49.16 98.43L47.61 93.65L46.17 88.38Z" id="d6D4hF6ry"></path>
          <path d="M46.17 88.38L48.81 89.69L51.92 92.32L55.39 95.92L57.67 101.31L58.5 107.53L58.5 114.35L55.03 109.32L51.92 103.7L49.16 98.43L47.61 93.65L46.17 88.38Z" id="cl96XLxet"></path>
          <path d="M46.17 88.38L48.81 89.69L51.92 92.32L55.39 95.92L57.67 101.31L58.5 107.53L58.5 114.35L55.03 109.32L51.92 103.7L49.16 98.43L47.61 93.65L46.17 88.38Z" id="dYXS1PpeD"></path>
          <path d="M46.17 88.38L48.81 89.69L51.92 92.32L55.39 95.92L57.67 101.31L58.5 107.53L58.5 114.35L55.03 109.32L51.92 103.7L49.16 98.43L47.61 93.65L46.17 88.38Z" id="a38wXaBzQH"></path>
          <path d="M46.17 88.38L48.81 89.69L51.92 92.32L55.39 95.92L57.67 101.31L58.5 107.53L58.5 114.35L55.03 109.32L51.92 103.7L49.16 98.43L47.61 93.65L46.17 88.38Z" id="aj436ctdR"></path>
          <path d="M46.17 88.38L48.81 89.69L51.92 92.32L55.39 95.92L57.67 101.31L58.5 107.53L58.5 114.35L55.03 109.32L51.92 103.7L49.16 98.43L47.61 93.65L46.17 88.38Z" id="aotA8BtYr"></path>
          <path d="M46.17 88.38L48.81 89.69L51.92 92.32L55.39 95.92L57.67 101.31L58.5 107.53L58.5 114.35L55.03 109.32L51.92 103.7L49.16 98.43L47.61 93.65L46.17 88.38Z" id="a26eeVUsNA"></path>
          <path d="M46.17 88.38L48.81 89.69L51.92 92.32L55.39 95.92L57.67 101.31L58.5 107.53L58.5 114.35L55.03 109.32L51.92 103.7L49.16 98.43L47.61 93.65L46.17 88.38Z" id="dKtbcelN9"></path>
          <path d="M46.17 88.38L48.81 89.69L51.92 92.32L55.39 95.92L57.67 101.31L58.5 107.53L58.5 114.35L55.03 109.32L51.92 103.7L49.16 98.43L47.61 93.65L46.17 88.38Z" id="b3svDBgcQ5"></path>
          <path d="M46.17 88.38L48.81 89.69L51.92 92.32L55.39 95.92L57.67 101.31L58.5 107.53L58.5 114.35L55.03 109.32L51.92 103.7L49.16 98.43L47.61 93.65L46.17 88.38Z" id="b1Eun96Gn"></path><path d="M46.17 88.38L48.81 89.69L51.92 92.32L55.39 95.92L57.67 101.31L58.5 107.53L58.5 114.35L55.03 109.32L51.92 103.7L49.16 98.43L47.61 93.65L46.17 88.38Z" id="atpp6niwv"></path><path d="M46.17 88.38L48.81 89.69L51.92 92.32L55.39 95.92L57.67 101.31L58.5 107.53L58.5 114.35L55.03 109.32L51.92 103.7L49.16 98.43L47.61 93.65L46.17 88.38Z" id="b3939npS9n"></path><path d="M46.17 88.38L48.81 89.69L51.92 92.32L55.39 95.92L57.67 101.31L58.5 107.53L58.5 114.35L55.03 109.32L51.92 103.7L49.16 98.43L47.61 93.65L46.17 88.38Z" id="cdyEkQjqC"></path>
          <path d="M115.17 92.3L117.5 113.42L96.53 110.01L102.44 104.4L90.08 91.39L96.92 84.89L109.28 97.9L115.17 92.3Z" id="b3YcGfqbvk"></path>
        </g>
      </symbol>

      <symbol id="icon-xnat-export" viewBox="0 0 128 128">
        <title>XNAT Export</title>
        <g id="icon-xnat-export-group" stroke-width="1" stroke-linecap="round" stroke-linejoin="round">
          <path d="M35.64 10.14L45.98 10.14L55.17 9.76L63.41 8.99L70.31 7.84L76.82 6.31L74.71 8.61L70.31 12.63L66.09 17.8L63.79 21.82L61.88 26.42L61.88 30.25L63.41 33.13L61.3 34.47L55.75 40.4L51.92 45.77L48.47 50.37L45.6 46.92L41.57 41.55L37.55 34.08L35.64 29.49L34.1 24.12L33.53 19.72L34.1 14.93L35.64 10.14Z" id="dHwjXFj1g"></path>
          <path d="M35.64 10.14L45.98 10.14L55.17 9.76L63.41 8.99L70.31 7.84L76.82 6.31L74.71 8.61L70.31 12.63L66.09 17.8L63.79 21.82L61.88 26.42L61.88 30.25L63.41 33.13L61.3 34.47L55.75 40.4L51.92 45.77L48.47 50.37L45.6 46.92L41.57 41.55L37.55 34.08L35.64 29.49L34.1 24.12L33.53 19.72L34.1 14.93L35.64 10.14Z" id="aS4ddDS6L"></path>
          <path d="M35.64 10.14L45.98 10.14L55.17 9.76L63.41 8.99L70.31 7.84L76.82 6.31L74.71 8.61L70.31 12.63L66.09 17.8L63.79 21.82L61.88 26.42L61.88 30.25L63.41 33.13L61.3 34.47L55.75 40.4L51.92 45.77L48.47 50.37L45.6 46.92L41.57 41.55L37.55 34.08L35.64 29.49L34.1 24.12L33.53 19.72L34.1 14.93L35.64 10.14Z" id="aLFJdP5XB"></path>
          <path d="M35.64 10.14L45.98 10.14L55.17 9.76L63.41 8.99L70.31 7.84L76.82 6.31L74.71 8.61L70.31 12.63L66.09 17.8L63.79 21.82L61.88 26.42L61.88 30.25L63.41 33.13L61.3 34.47L55.75 40.4L51.92 45.77L48.47 50.37L45.6 46.92L41.57 41.55L37.55 34.08L35.64 29.49L34.1 24.12L33.53 19.72L34.1 14.93L35.64 10.14Z" id="b3VGCUXiqt"></path>
          <path d="M35.64 10.14L45.98 10.14L55.17 9.76L63.41 8.99L70.31 7.84L76.82 6.31L74.71 8.61L70.31 12.63L66.09 17.8L63.79 21.82L61.88 26.42L61.88 30.25L63.41 33.13L61.3 34.47L55.75 40.4L51.92 45.77L48.47 50.37L45.6 46.92L41.57 41.55L37.55 34.08L35.64 29.49L34.1 24.12L33.53 19.72L34.1 14.93L35.64 10.14Z" id="a2x4fIWZmw"></path>
          <path d="M35.64 10.14L45.98 10.14L55.17 9.76L63.41 8.99L70.31 7.84L76.82 6.31L74.71 8.61L70.31 12.63L66.09 17.8L63.79 21.82L61.88 26.42L61.88 30.25L63.41 33.13L61.3 34.47L55.75 40.4L51.92 45.77L48.47 50.37L45.6 46.92L41.57 41.55L37.55 34.08L35.64 29.49L34.1 24.12L33.53 19.72L34.1 14.93L35.64 10.14Z" id="aJJyB917Z"></path>
          <path d="M35.64 10.14L45.98 10.14L55.17 9.76L63.41 8.99L70.31 7.84L76.82 6.31L74.71 8.61L70.31 12.63L66.09 17.8L63.79 21.82L61.88 26.42L61.88 30.25L63.41 33.13L61.3 34.47L55.75 40.4L51.92 45.77L48.47 50.37L45.6 46.92L41.57 41.55L37.55 34.08L35.64 29.49L34.1 24.12L33.53 19.72L34.1 14.93L35.64 10.14Z" id="cuNmzkD4F"></path>
          <path d="M35.64 10.14L45.98 10.14L55.17 9.76L63.41 8.99L70.31 7.84L76.82 6.31L74.71 8.61L70.31 12.63L66.09 17.8L63.79 21.82L61.88 26.42L61.88 30.25L63.41 33.13L61.3 34.47L55.75 40.4L51.92 45.77L48.47 50.37L45.6 46.92L41.57 41.55L37.55 34.08L35.64 29.49L34.1 24.12L33.53 19.72L34.1 14.93L35.64 10.14Z" id="gX62QmSM"></path>
          <path d="M35.64 10.14L45.98 10.14L55.17 9.76L63.41 8.99L70.31 7.84L76.82 6.31L74.71 8.61L70.31 12.63L66.09 17.8L63.79 21.82L61.88 26.42L61.88 30.25L63.41 33.13L61.3 34.47L55.75 40.4L51.92 45.77L48.47 50.37L45.6 46.92L41.57 41.55L37.55 34.08L35.64 29.49L34.1 24.12L33.53 19.72L34.1 14.93L35.64 10.14Z" id="csRLCk1f5"></path>
          <path d="M35.64 10.14L45.98 10.14L55.17 9.76L63.41 8.99L70.31 7.84L76.82 6.31L74.71 8.61L70.31 12.63L66.09 17.8L63.79 21.82L61.88 26.42L61.88 30.25L63.41 33.13L61.3 34.47L55.75 40.4L51.92 45.77L48.47 50.37L45.6 46.92L41.57 41.55L37.55 34.08L35.64 29.49L34.1 24.12L33.53 19.72L34.1 14.93L35.64 10.14Z" id="c1qRvinGMq"></path>
          <path d="M35.64 10.14L45.98 10.14L55.17 9.76L63.41 8.99L70.31 7.84L76.82 6.31L74.71 8.61L70.31 12.63L66.09 17.8L63.79 21.82L61.88 26.42L61.88 30.25L63.41 33.13L61.3 34.47L55.75 40.4L51.92 45.77L48.47 50.37L45.6 46.92L41.57 41.55L37.55 34.08L35.64 29.49L34.1 24.12L33.53 19.72L34.1 14.93L35.64 10.14Z" id="e3nSGaG4qP"></path>
          <path d="M35.64 10.14L45.98 10.14L55.17 9.76L63.41 8.99L70.31 7.84L76.82 6.31L74.71 8.61L70.31 12.63L66.09 17.8L63.79 21.82L61.88 26.42L61.88 30.25L63.41 33.13L61.3 34.47L55.75 40.4L51.92 45.77L48.47 50.37L45.6 46.92L41.57 41.55L37.55 34.08L35.64 29.49L34.1 24.12L33.53 19.72L34.1 14.93L35.64 10.14Z" id="a3YjkS5QQV"></path>
          <path d="M35.64 10.14L45.98 10.14L55.17 9.76L63.41 8.99L70.31 7.84L76.82 6.31L74.71 8.61L70.31 12.63L66.09 17.8L63.79 21.82L61.88 26.42L61.88 30.25L63.41 33.13L61.3 34.47L55.75 40.4L51.92 45.77L48.47 50.37L45.6 46.92L41.57 41.55L37.55 34.08L35.64 29.49L34.1 24.12L33.53 19.72L34.1 14.93L35.64 10.14Z" id="b3YQR3CzM"></path>
          <path d="M35.64 10.14L45.98 10.14L55.17 9.76L63.41 8.99L70.31 7.84L76.82 6.31L74.71 8.61L70.31 12.63L66.09 17.8L63.79 21.82L61.88 26.42L61.88 30.25L63.41 33.13L61.3 34.47L55.75 40.4L51.92 45.77L48.47 50.37L45.6 46.92L41.57 41.55L37.55 34.08L35.64 29.49L34.1 24.12L33.53 19.72L34.1 14.93L35.64 10.14Z" id="c3eGm5yVUa"></path>
          <path d="M35.64 10.14L45.98 10.14L55.17 9.76L63.41 8.99L70.31 7.84L76.82 6.31L74.71 8.61L70.31 12.63L66.09 17.8L63.79 21.82L61.88 26.42L61.88 30.25L63.41 33.13L61.3 34.47L55.75 40.4L51.92 45.77L48.47 50.37L45.6 46.92L41.57 41.55L37.55 34.08L35.64 29.49L34.1 24.12L33.53 19.72L34.1 14.93L35.64 10.14Z" id="a3BjLx1Cr"></path>
          <path d="M35.64 10.14L45.98 10.14L55.17 9.76L63.41 8.99L70.31 7.84L76.82 6.31L74.71 8.61L70.31 12.63L66.09 17.8L63.79 21.82L61.88 26.42L61.88 30.25L63.41 33.13L61.3 34.47L55.75 40.4L51.92 45.77L48.47 50.37L45.6 46.92L41.57 41.55L37.55 34.08L35.64 29.49L34.1 24.12L33.53 19.72L34.1 14.93L35.64 10.14Z" id="c3mXiL076"></path>
          <path d="M76.05 67.6L82.18 62.72L90.8 57.45L100.57 52.47L109.19 49.41L108.62 37.91L109.19 29.49L110.34 22.4L111.87 16.27L113.4 11.1L108.62 12.82L100.57 16.27L90.23 20.87L82.18 24.7L76.05 28.34L69.16 34.08L63.03 39.83L58.43 45L55.56 49.79L51.92 55.35L58.81 59.75L63.03 63.77L67.62 68.56L71.07 73.16L76.05 67.6Z" id="b4I9C2ziau"></path>
          <path d="M76.05 67.6L82.18 62.72L90.8 57.45L100.57 52.47L109.19 49.41L108.62 37.91L109.19 29.49L110.34 22.4L111.87 16.27L113.4 11.1L108.62 12.82L100.57 16.27L90.23 20.87L82.18 24.7L76.05 28.34L69.16 34.08L63.03 39.83L58.43 45L55.56 49.79L51.92 55.35L58.81 59.75L63.03 63.77L67.62 68.56L71.07 73.16L76.05 67.6Z" id="aOfcwqojb"></path>
          <path d="M76.05 67.6L82.18 62.72L90.8 57.45L100.57 52.47L109.19 49.41L108.62 37.91L109.19 29.49L110.34 22.4L111.87 16.27L113.4 11.1L108.62 12.82L100.57 16.27L90.23 20.87L82.18 24.7L76.05 28.34L69.16 34.08L63.03 39.83L58.43 45L55.56 49.79L51.92 55.35L58.81 59.75L63.03 63.77L67.62 68.56L71.07 73.16L76.05 67.6Z" id="m25ZggWTXb"></path>
          <path d="M76.05 67.6L82.18 62.72L90.8 57.45L100.57 52.47L109.19 49.41L108.62 37.91L109.19 29.49L110.34 22.4L111.87 16.27L113.4 11.1L108.62 12.82L100.57 16.27L90.23 20.87L82.18 24.7L76.05 28.34L69.16 34.08L63.03 39.83L58.43 45L55.56 49.79L51.92 55.35L58.81 59.75L63.03 63.77L67.62 68.56L71.07 73.16L76.05 67.6Z" id="aRHlSHf0P"></path>
          <path d="M76.05 67.6L82.18 62.72L90.8 57.45L100.57 52.47L109.19 49.41L108.62 37.91L109.19 29.49L110.34 22.4L111.87 16.27L113.4 11.1L108.62 12.82L100.57 16.27L90.23 20.87L82.18 24.7L76.05 28.34L69.16 34.08L63.03 39.83L58.43 45L55.56 49.79L51.92 55.35L58.81 59.75L63.03 63.77L67.62 68.56L71.07 73.16L76.05 67.6Z" id="bs5AqM6bI"></path>
          <path d="M76.05 67.6L82.18 62.72L90.8 57.45L100.57 52.47L109.19 49.41L108.62 37.91L109.19 29.49L110.34 22.4L111.87 16.27L113.4 11.1L108.62 12.82L100.57 16.27L90.23 20.87L82.18 24.7L76.05 28.34L69.16 34.08L63.03 39.83L58.43 45L55.56 49.79L51.92 55.35L58.81 59.75L63.03 63.77L67.62 68.56L71.07 73.16L76.05 67.6Z" id="da8OTZliDA"></path>
          <path d="M76.05 67.6L82.18 62.72L90.8 57.45L100.57 52.47L109.19 49.41L108.62 37.91L109.19 29.49L110.34 22.4L111.87 16.27L113.4 11.1L108.62 12.82L100.57 16.27L90.23 20.87L82.18 24.7L76.05 28.34L69.16 34.08L63.03 39.83L58.43 45L55.56 49.79L51.92 55.35L58.81 59.75L63.03 63.77L67.62 68.56L71.07 73.16L76.05 67.6Z" id="dq29PVoJr"></path>
          <path d="M76.05 67.6L82.18 62.72L90.8 57.45L100.57 52.47L109.19 49.41L108.62 37.91L109.19 29.49L110.34 22.4L111.87 16.27L113.4 11.1L108.62 12.82L100.57 16.27L90.23 20.87L82.18 24.7L76.05 28.34L69.16 34.08L63.03 39.83L58.43 45L55.56 49.79L51.92 55.35L58.81 59.75L63.03 63.77L67.62 68.56L71.07 73.16L76.05 67.6Z" id="akOZ5OhJc"></path>
          <path d="M76.05 67.6L82.18 62.72L90.8 57.45L100.57 52.47L109.19 49.41L108.62 37.91L109.19 29.49L110.34 22.4L111.87 16.27L113.4 11.1L108.62 12.82L100.57 16.27L90.23 20.87L82.18 24.7L76.05 28.34L69.16 34.08L63.03 39.83L58.43 45L55.56 49.79L51.92 55.35L58.81 59.75L63.03 63.77L67.62 68.56L71.07 73.16L76.05 67.6Z" id="a4Vqduk7MR"></path>
          <path d="M76.05 67.6L82.18 62.72L90.8 57.45L100.57 52.47L109.19 49.41L108.62 37.91L109.19 29.49L110.34 22.4L111.87 16.27L113.4 11.1L108.62 12.82L100.57 16.27L90.23 20.87L82.18 24.7L76.05 28.34L69.16 34.08L63.03 39.83L58.43 45L55.56 49.79L51.92 55.35L58.81 59.75L63.03 63.77L67.62 68.56L71.07 73.16L76.05 67.6Z" id="dA3MtqyEA"></path>
          <path d="M76.05 67.6L82.18 62.72L90.8 57.45L100.57 52.47L109.19 49.41L108.62 37.91L109.19 29.49L110.34 22.4L111.87 16.27L113.4 11.1L108.62 12.82L100.57 16.27L90.23 20.87L82.18 24.7L76.05 28.34L69.16 34.08L63.03 39.83L58.43 45L55.56 49.79L51.92 55.35L58.81 59.75L63.03 63.77L67.62 68.56L71.07 73.16L76.05 67.6Z" id="b7iMaNbOAo"></path>
          <path d="M76.05 67.6L82.18 62.72L90.8 57.45L100.57 52.47L109.19 49.41L108.62 37.91L109.19 29.49L110.34 22.4L111.87 16.27L113.4 11.1L108.62 12.82L100.57 16.27L90.23 20.87L82.18 24.7L76.05 28.34L69.16 34.08L63.03 39.83L58.43 45L55.56 49.79L51.92 55.35L58.81 59.75L63.03 63.77L67.62 68.56L71.07 73.16L76.05 67.6Z" id="dbuO42BC8"></path>
          <path d="M76.05 67.6L82.18 62.72L90.8 57.45L100.57 52.47L109.19 49.41L108.62 37.91L109.19 29.49L110.34 22.4L111.87 16.27L113.4 11.1L108.62 12.82L100.57 16.27L90.23 20.87L82.18 24.7L76.05 28.34L69.16 34.08L63.03 39.83L58.43 45L55.56 49.79L51.92 55.35L58.81 59.75L63.03 63.77L67.62 68.56L71.07 73.16L76.05 67.6Z" id="bbpOb47WM"></path>
          <path d="M76.05 67.6L82.18 62.72L90.8 57.45L100.57 52.47L109.19 49.41L108.62 37.91L109.19 29.49L110.34 22.4L111.87 16.27L113.4 11.1L108.62 12.82L100.57 16.27L90.23 20.87L82.18 24.7L76.05 28.34L69.16 34.08L63.03 39.83L58.43 45L55.56 49.79L51.92 55.35L58.81 59.75L63.03 63.77L67.62 68.56L71.07 73.16L76.05 67.6Z" id="axMa2qse6"></path>
          <path d="M76.05 67.6L82.18 62.72L90.8 57.45L100.57 52.47L109.19 49.41L108.62 37.91L109.19 29.49L110.34 22.4L111.87 16.27L113.4 11.1L108.62 12.82L100.57 16.27L90.23 20.87L82.18 24.7L76.05 28.34L69.16 34.08L63.03 39.83L58.43 45L55.56 49.79L51.92 55.35L58.81 59.75L63.03 63.77L67.62 68.56L71.07 73.16L76.05 67.6Z" id="f1TBsW9gMZ"></path>
          <path d="M76.05 67.6L82.18 62.72L90.8 57.45L100.57 52.47L109.19 49.41L108.62 37.91L109.19 29.49L110.34 22.4L111.87 16.27L113.4 11.1L108.62 12.82L100.57 16.27L90.23 20.87L82.18 24.7L76.05 28.34L69.16 34.08L63.03 39.83L58.43 45L55.56 49.79L51.92 55.35L58.81 59.75L63.03 63.77L67.62 68.56L71.07 73.16L76.05 67.6Z" id="dhFD14ZB"></path>
          <path d="M75.86 107.06L73.18 115.3L79.31 107.64L82.66 101.89L86.59 94.42L88.5 87.53L89.65 78.71L88.5 71.63L86.59 65.69L83.52 67.99L79.31 71.63L74.33 76.42L76.82 81.78L78.73 87.53L78.73 94.42L77.78 100.74L75.86 107.06Z" id="b1WNmytIHf"></path>
          <path d="M75.86 107.06L73.18 115.3L79.31 107.64L82.66 101.89L86.59 94.42L88.5 87.53L89.65 78.71L88.5 71.63L86.59 65.69L83.52 67.99L79.31 71.63L74.33 76.42L76.82 81.78L78.73 87.53L78.73 94.42L77.78 100.74L75.86 107.06Z" id="c4kvDrKAi"></path>
          <path d="M75.86 107.06L73.18 115.3L79.31 107.64L82.66 101.89L86.59 94.42L88.5 87.53L89.65 78.71L88.5 71.63L86.59 65.69L83.52 67.99L79.31 71.63L74.33 76.42L76.82 81.78L78.73 87.53L78.73 94.42L77.78 100.74L75.86 107.06Z" id="b1xDo0Wq1"></path>
          <path d="M75.86 107.06L73.18 115.3L79.31 107.64L82.66 101.89L86.59 94.42L88.5 87.53L89.65 78.71L88.5 71.63L86.59 65.69L83.52 67.99L79.31 71.63L74.33 76.42L76.82 81.78L78.73 87.53L78.73 94.42L77.78 100.74L75.86 107.06Z" id="f2JRp70hFT"></path>
          <path d="M75.86 107.06L73.18 115.3L79.31 107.64L82.66 101.89L86.59 94.42L88.5 87.53L89.65 78.71L88.5 71.63L86.59 65.69L83.52 67.99L79.31 71.63L74.33 76.42L76.82 81.78L78.73 87.53L78.73 94.42L77.78 100.74L75.86 107.06Z" id="a1sDmI1Fw4"></path>
          <path d="M75.86 107.06L73.18 115.3L79.31 107.64L82.66 101.89L86.59 94.42L88.5 87.53L89.65 78.71L88.5 71.63L86.59 65.69L83.52 67.99L79.31 71.63L74.33 76.42L76.82 81.78L78.73 87.53L78.73 94.42L77.78 100.74L75.86 107.06Z" id="gpCKVKdky"></path>
          <path d="M75.86 107.06L73.18 115.3L79.31 107.64L82.66 101.89L86.59 94.42L88.5 87.53L89.65 78.71L88.5 71.63L86.59 65.69L83.52 67.99L79.31 71.63L74.33 76.42L76.82 81.78L78.73 87.53L78.73 94.42L77.78 100.74L75.86 107.06Z" id="e5eNmJ5MjV"></path>
          <path d="M75.86 107.06L73.18 115.3L79.31 107.64L82.66 101.89L86.59 94.42L88.5 87.53L89.65 78.71L88.5 71.63L86.59 65.69L83.52 67.99L79.31 71.63L74.33 76.42L76.82 81.78L78.73 87.53L78.73 94.42L77.78 100.74L75.86 107.06Z" id="ali2ZrcmZ"></path>
          <path d="M75.86 107.06L73.18 115.3L79.31 107.64L82.66 101.89L86.59 94.42L88.5 87.53L89.65 78.71L88.5 71.63L86.59 65.69L83.52 67.99L79.31 71.63L74.33 76.42L76.82 81.78L78.73 87.53L78.73 94.42L77.78 100.74L75.86 107.06Z" id="cdbrJ0OWH"></path>
          <path d="M75.86 107.06L73.18 115.3L79.31 107.64L82.66 101.89L86.59 94.42L88.5 87.53L89.65 78.71L88.5 71.63L86.59 65.69L83.52 67.99L79.31 71.63L74.33 76.42L76.82 81.78L78.73 87.53L78.73 94.42L77.78 100.74L75.86 107.06Z" id="aJKhAKyK"></path>
          <path d="M75.86 107.06L73.18 115.3L79.31 107.64L82.66 101.89L86.59 94.42L88.5 87.53L89.65 78.71L88.5 71.63L86.59 65.69L83.52 67.99L79.31 71.63L74.33 76.42L76.82 81.78L78.73 87.53L78.73 94.42L77.78 100.74L75.86 107.06Z" id="a8een9z5Z"></path>
          <path d="M75.86 107.06L73.18 115.3L79.31 107.64L82.66 101.89L86.59 94.42L88.5 87.53L89.65 78.71L88.5 71.63L86.59 65.69L83.52 67.99L79.31 71.63L74.33 76.42L76.82 81.78L78.73 87.53L78.73 94.42L77.78 100.74L75.86 107.06Z" id="c1VDeTQmJT"></path>
          <path d="M75.86 107.06L73.18 115.3L79.31 107.64L82.66 101.89L86.59 94.42L88.5 87.53L89.65 78.71L88.5 71.63L86.59 65.69L83.52 67.99L79.31 71.63L74.33 76.42L76.82 81.78L78.73 87.53L78.73 94.42L77.78 100.74L75.86 107.06Z" id="g7oiLIijT"></path>
          <path d="M75.86 107.06L73.18 115.3L79.31 107.64L82.66 101.89L86.59 94.42L88.5 87.53L89.65 78.71L88.5 71.63L86.59 65.69L83.52 67.99L79.31 71.63L74.33 76.42L76.82 81.78L78.73 87.53L78.73 94.42L77.78 100.74L75.86 107.06Z" id="c2gGQ1DOfE"></path>
          <path d="M75.86 107.06L73.18 115.3L79.31 107.64L82.66 101.89L86.59 94.42L88.5 87.53L89.65 78.71L88.5 71.63L86.59 65.69L83.52 67.99L79.31 71.63L74.33 76.42L76.82 81.78L78.73 87.53L78.73 94.42L77.78 100.74L75.86 107.06Z" id="dwDprG5Dq"></path>
          <path d="M75.86 107.06L73.18 115.3L79.31 107.64L82.66 101.89L86.59 94.42L88.5 87.53L89.65 78.71L88.5 71.63L86.59 65.69L83.52 67.99L79.31 71.63L74.33 76.42L76.82 81.78L78.73 87.53L78.73 94.42L77.78 100.74L75.86 107.06Z" id="axxpqOYS3"></path>
          <path d="M57.86 87.72L50.96 82.93L39.28 77.18L27.4 72.58L16.29 69.14L17.82 65.69L19.93 58.03L21.46 50.75L21.84 43.47L32.76 49.98L44.45 57.07L53.83 63.39L60.92 69.14L66.48 75.07L70.31 80.63L73.18 87.14L73.75 94.04L72.6 101.51L70.31 110.13L67.24 117.41L66.48 110.13L66.48 103.81L64.94 98.06L63.03 93.46L57.86 87.72Z" id="fxXdSVlcq"></path>
          <path d="M57.86 87.72L50.96 82.93L39.28 77.18L27.4 72.58L16.29 69.14L17.82 65.69L19.93 58.03L21.46 50.75L21.84 43.47L32.76 49.98L44.45 57.07L53.83 63.39L60.92 69.14L66.48 75.07L70.31 80.63L73.18 87.14L73.75 94.04L72.6 101.51L70.31 110.13L67.24 117.41L66.48 110.13L66.48 103.81L64.94 98.06L63.03 93.46L57.86 87.72Z" id="a2aSkNycSp"></path>
          <path d="M57.86 87.72L50.96 82.93L39.28 77.18L27.4 72.58L16.29 69.14L17.82 65.69L19.93 58.03L21.46 50.75L21.84 43.47L32.76 49.98L44.45 57.07L53.83 63.39L60.92 69.14L66.48 75.07L70.31 80.63L73.18 87.14L73.75 94.04L72.6 101.51L70.31 110.13L67.24 117.41L66.48 110.13L66.48 103.81L64.94 98.06L63.03 93.46L57.86 87.72Z" id="a14iuGTkNl"></path>
          <path d="M57.86 87.72L50.96 82.93L39.28 77.18L27.4 72.58L16.29 69.14L17.82 65.69L19.93 58.03L21.46 50.75L21.84 43.47L32.76 49.98L44.45 57.07L53.83 63.39L60.92 69.14L66.48 75.07L70.31 80.63L73.18 87.14L73.75 94.04L72.6 101.51L70.31 110.13L67.24 117.41L66.48 110.13L66.48 103.81L64.94 98.06L63.03 93.46L57.86 87.72Z" id="g1b3YYmFL0"></path>
          <path d="M57.86 87.72L50.96 82.93L39.28 77.18L27.4 72.58L16.29 69.14L17.82 65.69L19.93 58.03L21.46 50.75L21.84 43.47L32.76 49.98L44.45 57.07L53.83 63.39L60.92 69.14L66.48 75.07L70.31 80.63L73.18 87.14L73.75 94.04L72.6 101.51L70.31 110.13L67.24 117.41L66.48 110.13L66.48 103.81L64.94 98.06L63.03 93.46L57.86 87.72Z" id="aRw8fzEob"></path>
          <path d="M57.86 87.72L50.96 82.93L39.28 77.18L27.4 72.58L16.29 69.14L17.82 65.69L19.93 58.03L21.46 50.75L21.84 43.47L32.76 49.98L44.45 57.07L53.83 63.39L60.92 69.14L66.48 75.07L70.31 80.63L73.18 87.14L73.75 94.04L72.6 101.51L70.31 110.13L67.24 117.41L66.48 110.13L66.48 103.81L64.94 98.06L63.03 93.46L57.86 87.72Z" id="e1DMQAglr9"></path>
          <path d="M57.86 87.72L50.96 82.93L39.28 77.18L27.4 72.58L16.29 69.14L17.82 65.69L19.93 58.03L21.46 50.75L21.84 43.47L32.76 49.98L44.45 57.07L53.83 63.39L60.92 69.14L66.48 75.07L70.31 80.63L73.18 87.14L73.75 94.04L72.6 101.51L70.31 110.13L67.24 117.41L66.48 110.13L66.48 103.81L64.94 98.06L63.03 93.46L57.86 87.72Z" id="apqamD1lm"></path>
          <path d="M57.86 87.72L50.96 82.93L39.28 77.18L27.4 72.58L16.29 69.14L17.82 65.69L19.93 58.03L21.46 50.75L21.84 43.47L32.76 49.98L44.45 57.07L53.83 63.39L60.92 69.14L66.48 75.07L70.31 80.63L73.18 87.14L73.75 94.04L72.6 101.51L70.31 110.13L67.24 117.41L66.48 110.13L66.48 103.81L64.94 98.06L63.03 93.46L57.86 87.72Z" id="a1sXzMXf7e"></path>
          <path d="M57.86 87.72L50.96 82.93L39.28 77.18L27.4 72.58L16.29 69.14L17.82 65.69L19.93 58.03L21.46 50.75L21.84 43.47L32.76 49.98L44.45 57.07L53.83 63.39L60.92 69.14L66.48 75.07L70.31 80.63L73.18 87.14L73.75 94.04L72.6 101.51L70.31 110.13L67.24 117.41L66.48 110.13L66.48 103.81L64.94 98.06L63.03 93.46L57.86 87.72Z" id="a1qNJ6x6q5"></path>
          <path d="M57.86 87.72L50.96 82.93L39.28 77.18L27.4 72.58L16.29 69.14L17.82 65.69L19.93 58.03L21.46 50.75L21.84 43.47L32.76 49.98L44.45 57.07L53.83 63.39L60.92 69.14L66.48 75.07L70.31 80.63L73.18 87.14L73.75 94.04L72.6 101.51L70.31 110.13L67.24 117.41L66.48 110.13L66.48 103.81L64.94 98.06L63.03 93.46L57.86 87.72Z" id="e6ty275hN"></path>
          <path d="M57.86 87.72L50.96 82.93L39.28 77.18L27.4 72.58L16.29 69.14L17.82 65.69L19.93 58.03L21.46 50.75L21.84 43.47L32.76 49.98L44.45 57.07L53.83 63.39L60.92 69.14L66.48 75.07L70.31 80.63L73.18 87.14L73.75 94.04L72.6 101.51L70.31 110.13L67.24 117.41L66.48 110.13L66.48 103.81L64.94 98.06L63.03 93.46L57.86 87.72Z" id="a1knaboExO"></path>
          <path d="M57.86 87.72L50.96 82.93L39.28 77.18L27.4 72.58L16.29 69.14L17.82 65.69L19.93 58.03L21.46 50.75L21.84 43.47L32.76 49.98L44.45 57.07L53.83 63.39L60.92 69.14L66.48 75.07L70.31 80.63L73.18 87.14L73.75 94.04L72.6 101.51L70.31 110.13L67.24 117.41L66.48 110.13L66.48 103.81L64.94 98.06L63.03 93.46L57.86 87.72Z" id="a1iOKtXQgH"></path>
          <path d="M57.86 87.72L50.96 82.93L39.28 77.18L27.4 72.58L16.29 69.14L17.82 65.69L19.93 58.03L21.46 50.75L21.84 43.47L32.76 49.98L44.45 57.07L53.83 63.39L60.92 69.14L66.48 75.07L70.31 80.63L73.18 87.14L73.75 94.04L72.6 101.51L70.31 110.13L67.24 117.41L66.48 110.13L66.48 103.81L64.94 98.06L63.03 93.46L57.86 87.72Z" id="bBzlx59RW"></path>
          <path d="M57.86 87.72L50.96 82.93L39.28 77.18L27.4 72.58L16.29 69.14L17.82 65.69L19.93 58.03L21.46 50.75L21.84 43.47L32.76 49.98L44.45 57.07L53.83 63.39L60.92 69.14L66.48 75.07L70.31 80.63L73.18 87.14L73.75 94.04L72.6 101.51L70.31 110.13L67.24 117.41L66.48 110.13L66.48 103.81L64.94 98.06L63.03 93.46L57.86 87.72Z" id="e1h4wOMaYH"></path>
          <path d="M57.86 87.72L50.96 82.93L39.28 77.18L27.4 72.58L16.29 69.14L17.82 65.69L19.93 58.03L21.46 50.75L21.84 43.47L32.76 49.98L44.45 57.07L53.83 63.39L60.92 69.14L66.48 75.07L70.31 80.63L73.18 87.14L73.75 94.04L72.6 101.51L70.31 110.13L67.24 117.41L66.48 110.13L66.48 103.81L64.94 98.06L63.03 93.46L57.86 87.72Z" id="d1GiazmS5D"></path>
          <path d="M57.86 87.72L50.96 82.93L39.28 77.18L27.4 72.58L16.29 69.14L17.82 65.69L19.93 58.03L21.46 50.75L21.84 43.47L32.76 49.98L44.45 57.07L53.83 63.39L60.92 69.14L66.48 75.07L70.31 80.63L73.18 87.14L73.75 94.04L72.6 101.51L70.31 110.13L67.24 117.41L66.48 110.13L66.48 103.81L64.94 98.06L63.03 93.46L57.86 87.72Z" id="b4dEMcuBX"></path>
          <path d="M49.74 88.52L52.38 89.83L55.49 92.47L58.96 96.06L61.24 101.45L62.07 107.68L62.07 114.5L58.6 109.47L55.49 103.85L52.73 98.58L51.18 93.79L49.74 88.52Z" id="d95nTRMo4"></path>
          <path d="M49.74 88.52L52.38 89.83L55.49 92.47L58.96 96.06L61.24 101.45L62.07 107.68L62.07 114.5L58.6 109.47L55.49 103.85L52.73 98.58L51.18 93.79L49.74 88.52Z" id="a2iKaBuu"></path>
          <path d="M49.74 88.52L52.38 89.83L55.49 92.47L58.96 96.06L61.24 101.45L62.07 107.68L62.07 114.5L58.6 109.47L55.49 103.85L52.73 98.58L51.18 93.79L49.74 88.52Z" id="ctHu6XyvM"></path>
          <path d="M49.74 88.52L52.38 89.83L55.49 92.47L58.96 96.06L61.24 101.45L62.07 107.68L62.07 114.5L58.6 109.47L55.49 103.85L52.73 98.58L51.18 93.79L49.74 88.52Z" id="h1fewrNbae"></path>
          <path d="M49.74 88.52L52.38 89.83L55.49 92.47L58.96 96.06L61.24 101.45L62.07 107.68L62.07 114.5L58.6 109.47L55.49 103.85L52.73 98.58L51.18 93.79L49.74 88.52Z" id="f3unReVhce"></path>
          <path d="M49.74 88.52L52.38 89.83L55.49 92.47L58.96 96.06L61.24 101.45L62.07 107.68L62.07 114.5L58.6 109.47L55.49 103.85L52.73 98.58L51.18 93.79L49.74 88.52Z" id="bV7FQM5ke"></path>
          <path d="M49.74 88.52L52.38 89.83L55.49 92.47L58.96 96.06L61.24 101.45L62.07 107.68L62.07 114.5L58.6 109.47L55.49 103.85L52.73 98.58L51.18 93.79L49.74 88.52Z" id="arOWntc4J"></path>
          <path d="M49.74 88.52L52.38 89.83L55.49 92.47L58.96 96.06L61.24 101.45L62.07 107.68L62.07 114.5L58.6 109.47L55.49 103.85L52.73 98.58L51.18 93.79L49.74 88.52Z" id="dA0IvcsEn"></path>
          <path d="M49.74 88.52L52.38 89.83L55.49 92.47L58.96 96.06L61.24 101.45L62.07 107.68L62.07 114.5L58.6 109.47L55.49 103.85L52.73 98.58L51.18 93.79L49.74 88.52Z" id="euUKIWF1Z"></path>
          <path d="M49.74 88.52L52.38 89.83L55.49 92.47L58.96 96.06L61.24 101.45L62.07 107.68L62.07 114.5L58.6 109.47L55.49 103.85L52.73 98.58L51.18 93.79L49.74 88.52Z" id="b3RaclfHDv"></path>
          <path d="M49.74 88.52L52.38 89.83L55.49 92.47L58.96 96.06L61.24 101.45L62.07 107.68L62.07 114.5L58.6 109.47L55.49 103.85L52.73 98.58L51.18 93.79L49.74 88.52Z" id="a689yeK6KJ"></path>
          <path d="M49.74 88.52L52.38 89.83L55.49 92.47L58.96 96.06L61.24 101.45L62.07 107.68L62.07 114.5L58.6 109.47L55.49 103.85L52.73 98.58L51.18 93.79L49.74 88.52Z" id="g1B6QMG7kO"></path>
          <path d="M49.74 88.52L52.38 89.83L55.49 92.47L58.96 96.06L61.24 101.45L62.07 107.68L62.07 114.5L58.6 109.47L55.49 103.85L52.73 98.58L51.18 93.79L49.74 88.52Z" id="adSuPPbDJ"></path>
          <path d="M49.74 88.52L52.38 89.83L55.49 92.47L58.96 96.06L61.24 101.45L62.07 107.68L62.07 114.5L58.6 109.47L55.49 103.85L52.73 98.58L51.18 93.79L49.74 88.52Z" id="d2U57oulZy"></path>
          <path d="M49.74 88.52L52.38 89.83L55.49 92.47L58.96 96.06L61.24 101.45L62.07 107.68L62.07 114.5L58.6 109.47L55.49 103.85L52.73 98.58L51.18 93.79L49.74 88.52Z" id="k1rKJRgPpK"></path>
          <path d="M49.74 88.52L52.38 89.83L55.49 92.47L58.96 96.06L61.24 101.45L62.07 107.68L62.07 114.5L58.6 109.47L55.49 103.85L52.73 98.58L51.18 93.79L49.74 88.52Z" id="h1eGIzao0s"></path>
          <path d="M15.67 92.85L36.58 89.1L34.6 110.26L28.6 104.74L16.45 117.94L9.51 111.56L21.65 98.35L15.67 92.85Z" id="c4gIgQO61s"></path>
        </g>
      </symbol>

</svg>
