<svg xmlns="http://www.w3.org/2000/svg" xmlns:xlink="http://www.w3.org/1999/xlink">

      <symbol id="icon-xnat-logo" viewBox="0 0 128 128">
        <title>XNAT Logo</title>
        <g id="icon-xnat-logo-group" stroke-width="1" stroke-linecap="round" stroke-linejoin="round">
          <path id="xnat-logo-path-1" d="M33.4 29.3L31.8 23.7L31.2 19.1L31.8 14.1L33.4 9.1L44.2 9.1L53.8 8.7L62.4 7.9L69.6 6.7L76.4 5.1L74.2 7.5L69.6 11.7L65.2 17.1L62.8 21.3L60.8 26.1L60.8 30.1L62.4 33.1L60.2 34.5L54.4 40.7L50.4 46.3L46.8 51.1L43.8 47.5L39.6 41.9L35.4 34.1L33.4 29.3Z"></path>
          <path id="xnat-logo-path-2" d="M57.6 60.9L62 65.1L66.8 70.1L70.4 74.9L75.6 69.1L82 64L91 58.5L101.2 53.3L110.2 50.1L109.6 38.1L110.2 29.3L111.4 21.9L113 15.5L114.6 10.1L109.6 11.9L101.2 15.5L90.4 20.3L82 24.3L75.6 28.1L68.4 34.1L62 40.1L57.2 45.5L54.2 50.5L50.4 56.3L57.6 60.9Z"></path>
          <path id="xnat-logo-path-3" d="M76.4 83.9L78.4 89.9L78.4 97.1L77.4 103.7L75.4 110.3L72.6 118.9L79 110.9L82.5 104.9L86.6 97.1L88.6 89.9L89.8 80.7L88.6 73.3L86.6 67.1L83.4 69.5L79 73.3L73.8 78.3L76.4 83.9Z"></path>
          <path id="xnat-logo-path-4" d="M65.6 113.5L65.6 106.9L64 100.9L62 96.1L56.6 90.1L49.4 85.1L37.2 79.1L24.8 74.3L13.2 70.7L14.8 67.1L17 59.1L18.6 51.5L19 43.9L30.4 50.7L42.6 58.1L52.4 64.7L59.8 70.7L65.6 76.9L69.6 82.7L72.6 89.5L73.2 96.7L72 104.5L69.6 113.5L66.4 121.1L65.6 113.5Z"></path>
          <path id="xnat-logo-path-5" d="M57.38 112.81L54.13 106.94L51.25 101.44L49.63 96.44L48.13 90.94L50.88 92.31L54.13 95.06L57.75 98.81L60.13 104.44L61 110.94L61 118.06L57.38 112.81Z"></path>
        </g>
      </symbol>

      <symbol id="icon-xnat-ohif-logo" viewBox="0 0 128 128">
        <title>XNAT-OHIF Logo</title>
        <g id="icon-ohif-logo-group" stroke="#fff" stroke-width="8" stroke-miterlimit="10">
          <rect x="3.4" y="3.4" width="51.2" height="51.2" rx="2.7" ry="2.7"/>
          <rect x="70.8" y="3.4" width="51.2" height="51.2" rx="1" ry="2.7"/>
          <rect x="3.4" y="70.8" width="51.2" height="51.2" rx="2.7" ry="2.7"/>
          <rect x="70.8" y="70.8" width="51.2" height="51.2" rx="2.7" ry="2.7"/>
        </g>
        <g id="icon-xnat-logo-group" fill="#91B9CD" stroke="#000" stroke-width="2" stroke-linecap="round" stroke-linejoin="round">
          <path id="xnat-logo-path-1" d="M33.4 29.3L31.8 23.7L31.2 19.1L31.8 14.1L33.4 9.1L44.2 9.1L53.8 8.7L62.4 7.9L69.6 6.7L76.4 5.1L74.2 7.5L69.6 11.7L65.2 17.1L62.8 21.3L60.8 26.1L60.8 30.1L62.4 33.1L60.2 34.5L54.4 40.7L50.4 46.3L46.8 51.1L43.8 47.5L39.6 41.9L35.4 34.1L33.4 29.3Z"></path>
          <path id="xnat-logo-path-2" d="M57.6 60.9L62 65.1L66.8 70.1L70.4 74.9L75.6 69.1L82 64L91 58.5L101.2 53.3L110.2 50.1L109.6 38.1L110.2 29.3L111.4 21.9L113 15.5L114.6 10.1L109.6 11.9L101.2 15.5L90.4 20.3L82 24.3L75.6 28.1L68.4 34.1L62 40.1L57.2 45.5L54.2 50.5L50.4 56.3L57.6 60.9Z"></path>
          <path id="xnat-logo-path-3" d="M76.4 83.9L78.4 89.9L78.4 97.1L77.4 103.7L75.4 110.3L72.6 118.9L79 110.9L82.5 104.9L86.6 97.1L88.6 89.9L89.8 80.7L88.6 73.3L86.6 67.1L83.4 69.5L79 73.3L73.8 78.3L76.4 83.9Z"></path>
          <path id="xnat-logo-path-4" d="M65.6 113.5L65.6 106.9L64 100.9L62 96.1L56.6 90.1L49.4 85.1L37.2 79.1L24.8 74.3L13.2 70.7L14.8 67.1L17 59.1L18.6 51.5L19 43.9L30.4 50.7L42.6 58.1L52.4 64.7L59.8 70.7L65.6 76.9L69.6 82.7L72.6 89.5L73.2 96.7L72 104.5L69.6 113.5L66.4 121.1L65.6 113.5Z"></path>
          <path id="xnat-logo-path-5" d="M57.38 112.81L54.13 106.94L51.25 101.44L49.63 96.44L48.13 90.94L50.88 92.31L54.13 95.06L57.75 98.81L60.13 104.44L61 110.94L61 118.06L57.38 112.81Z"></path>
        </g>

      </symbol>

      <symbol id="icon-xnat-import" viewBox="0 0 128 128">
        <title>XNAT Import</title>
        <g id="icon-xnat-import-group" stroke-width="1" stroke-linecap="round" stroke-linejoin="round">
          <path d="M32.06 10L42.41 10L51.6 9.61L59.84 8.85L66.73 7.7L73.25 6.17L71.14 8.47L66.73 12.49L62.52 17.66L60.22 21.68L58.31 26.28L58.31 30.11L59.84 32.98L57.73 34.32L52.18 40.26L48.35 45.63L44.9 50.22L42.03 46.77L38 41.41L33.98 33.94L32.06 29.34L30.53 23.98L29.96 19.57L30.53 14.79L32.06 10Z" id="l16G6B4Cv"></path>
          <path d="M32.06 10L42.41 10L51.6 9.61L59.84 8.85L66.73 7.7L73.25 6.17L71.14 8.47L66.73 12.49L62.52 17.66L60.22 21.68L58.31 26.28L58.31 30.11L59.84 32.98L57.73 34.32L52.18 40.26L48.35 45.63L44.9 50.22L42.03 46.77L38 41.41L33.98 33.94L32.06 29.34L30.53 23.98L29.96 19.57L30.53 14.79L32.06 10Z" id="bs85zEr4x"></path>
          <path d="M32.06 10L42.41 10L51.6 9.61L59.84 8.85L66.73 7.7L73.25 6.17L71.14 8.47L66.73 12.49L62.52 17.66L60.22 21.68L58.31 26.28L58.31 30.11L59.84 32.98L57.73 34.32L52.18 40.26L48.35 45.63L44.9 50.22L42.03 46.77L38 41.41L33.98 33.94L32.06 29.34L30.53 23.98L29.96 19.57L30.53 14.79L32.06 10Z" id="d2AcM1Rr2D"></path>
          <path d="M32.06 10L42.41 10L51.6 9.61L59.84 8.85L66.73 7.7L73.25 6.17L71.14 8.47L66.73 12.49L62.52 17.66L60.22 21.68L58.31 26.28L58.31 30.11L59.84 32.98L57.73 34.32L52.18 40.26L48.35 45.63L44.9 50.22L42.03 46.77L38 41.41L33.98 33.94L32.06 29.34L30.53 23.98L29.96 19.57L30.53 14.79L32.06 10Z" id="aO46nPHhL"></path>
          <path d="M32.06 10L42.41 10L51.6 9.61L59.84 8.85L66.73 7.7L73.25 6.17L71.14 8.47L66.73 12.49L62.52 17.66L60.22 21.68L58.31 26.28L58.31 30.11L59.84 32.98L57.73 34.32L52.18 40.26L48.35 45.63L44.9 50.22L42.03 46.77L38 41.41L33.98 33.94L32.06 29.34L30.53 23.98L29.96 19.57L30.53 14.79L32.06 10Z" id="aTXhaUGIZ"></path>
          <path d="M32.06 10L42.41 10L51.6 9.61L59.84 8.85L66.73 7.7L73.25 6.17L71.14 8.47L66.73 12.49L62.52 17.66L60.22 21.68L58.31 26.28L58.31 30.11L59.84 32.98L57.73 34.32L52.18 40.26L48.35 45.63L44.9 50.22L42.03 46.77L38 41.41L33.98 33.94L32.06 29.34L30.53 23.98L29.96 19.57L30.53 14.79L32.06 10Z" id="cx6ewtT"></path>
          <path d="M32.06 10L42.41 10L51.6 9.61L59.84 8.85L66.73 7.7L73.25 6.17L71.14 8.47L66.73 12.49L62.52 17.66L60.22 21.68L58.31 26.28L58.31 30.11L59.84 32.98L57.73 34.32L52.18 40.26L48.35 45.63L44.9 50.22L42.03 46.77L38 41.41L33.98 33.94L32.06 29.34L30.53 23.98L29.96 19.57L30.53 14.79L32.06 10Z" id="d1RzwcILaq"></path>
          <path d="M32.06 10L42.41 10L51.6 9.61L59.84 8.85L66.73 7.7L73.25 6.17L71.14 8.47L66.73 12.49L62.52 17.66L60.22 21.68L58.31 26.28L58.31 30.11L59.84 32.98L57.73 34.32L52.18 40.26L48.35 45.63L44.9 50.22L42.03 46.77L38 41.41L33.98 33.94L32.06 29.34L30.53 23.98L29.96 19.57L30.53 14.79L32.06 10Z" id="b29PvyuwfK"></path>
          <path d="M32.06 10L42.41 10L51.6 9.61L59.84 8.85L66.73 7.7L73.25 6.17L71.14 8.47L66.73 12.49L62.52 17.66L60.22 21.68L58.31 26.28L58.31 30.11L59.84 32.98L57.73 34.32L52.18 40.26L48.35 45.63L44.9 50.22L42.03 46.77L38 41.41L33.98 33.94L32.06 29.34L30.53 23.98L29.96 19.57L30.53 14.79L32.06 10Z" id="d77cQoMye"></path>
          <path d="M32.06 10L42.41 10L51.6 9.61L59.84 8.85L66.73 7.7L73.25 6.17L71.14 8.47L66.73 12.49L62.52 17.66L60.22 21.68L58.31 26.28L58.31 30.11L59.84 32.98L57.73 34.32L52.18 40.26L48.35 45.63L44.9 50.22L42.03 46.77L38 41.41L33.98 33.94L32.06 29.34L30.53 23.98L29.96 19.57L30.53 14.79L32.06 10Z" id="b3ph0yHWsu"></path>
          <path d="M32.06 10L42.41 10L51.6 9.61L59.84 8.85L66.73 7.7L73.25 6.17L71.14 8.47L66.73 12.49L62.52 17.66L60.22 21.68L58.31 26.28L58.31 30.11L59.84 32.98L57.73 34.32L52.18 40.26L48.35 45.63L44.9 50.22L42.03 46.77L38 41.41L33.98 33.94L32.06 29.34L30.53 23.98L29.96 19.57L30.53 14.79L32.06 10Z" id="f2LTyoLjId"></path>
          <path d="M32.06 10L42.41 10L51.6 9.61L59.84 8.85L66.73 7.7L73.25 6.17L71.14 8.47L66.73 12.49L62.52 17.66L60.22 21.68L58.31 26.28L58.31 30.11L59.84 32.98L57.73 34.32L52.18 40.26L48.35 45.63L44.9 50.22L42.03 46.77L38 41.41L33.98 33.94L32.06 29.34L30.53 23.98L29.96 19.57L30.53 14.79L32.06 10Z" id="b3jqg97Q9D"></path>
          <path d="M32.06 10L42.41 10L51.6 9.61L59.84 8.85L66.73 7.7L73.25 6.17L71.14 8.47L66.73 12.49L62.52 17.66L60.22 21.68L58.31 26.28L58.31 30.11L59.84 32.98L57.73 34.32L52.18 40.26L48.35 45.63L44.9 50.22L42.03 46.77L38 41.41L33.98 33.94L32.06 29.34L30.53 23.98L29.96 19.57L30.53 14.79L32.06 10Z" id="bQi16Y8Vn"></path>
          <path d="M32.06 10L42.41 10L51.6 9.61L59.84 8.85L66.73 7.7L73.25 6.17L71.14 8.47L66.73 12.49L62.52 17.66L60.22 21.68L58.31 26.28L58.31 30.11L59.84 32.98L57.73 34.32L52.18 40.26L48.35 45.63L44.9 50.22L42.03 46.77L38 41.41L33.98 33.94L32.06 29.34L30.53 23.98L29.96 19.57L30.53 14.79L32.06 10Z" id="e6mWjPDYs"></path>
          <path d="M32.06 10L42.41 10L51.6 9.61L59.84 8.85L66.73 7.7L73.25 6.17L71.14 8.47L66.73 12.49L62.52 17.66L60.22 21.68L58.31 26.28L58.31 30.11L59.84 32.98L57.73 34.32L52.18 40.26L48.35 45.63L44.9 50.22L42.03 46.77L38 41.41L33.98 33.94L32.06 29.34L30.53 23.98L29.96 19.57L30.53 14.79L32.06 10Z" id="bTRhKakBQ"></path>
          <path d="M32.06 10L42.41 10L51.6 9.61L59.84 8.85L66.73 7.7L73.25 6.17L71.14 8.47L66.73 12.49L62.52 17.66L60.22 21.68L58.31 26.28L58.31 30.11L59.84 32.98L57.73 34.32L52.18 40.26L48.35 45.63L44.9 50.22L42.03 46.77L38 41.41L33.98 33.94L32.06 29.34L30.53 23.98L29.96 19.57L30.53 14.79L32.06 10Z" id="c13BUTLk5r"></path>
          <path d="M72.48 67.46L78.61 62.58L87.23 57.31L97 52.33L105.62 49.26L105.04 37.77L105.62 29.34L106.77 22.26L108.3 16.13L109.83 10.96L105.04 12.68L97 16.13L86.66 20.72L78.61 24.55L72.48 28.19L65.59 33.94L59.46 39.69L54.86 44.86L51.99 49.65L48.35 55.2L55.24 59.61L59.46 63.63L64.05 68.42L67.5 73.02L72.48 67.46Z" id="bIpWK4iP"></path>
          <path d="M72.48 67.46L78.61 62.58L87.23 57.31L97 52.33L105.62 49.26L105.04 37.77L105.62 29.34L106.77 22.26L108.3 16.13L109.83 10.96L105.04 12.68L97 16.13L86.66 20.72L78.61 24.55L72.48 28.19L65.59 33.94L59.46 39.69L54.86 44.86L51.99 49.65L48.35 55.2L55.24 59.61L59.46 63.63L64.05 68.42L67.5 73.02L72.48 67.46Z" id="cFZ0HMGOh"></path>
          <path d="M72.48 67.46L78.61 62.58L87.23 57.31L97 52.33L105.62 49.26L105.04 37.77L105.62 29.34L106.77 22.26L108.3 16.13L109.83 10.96L105.04 12.68L97 16.13L86.66 20.72L78.61 24.55L72.48 28.19L65.59 33.94L59.46 39.69L54.86 44.86L51.99 49.65L48.35 55.2L55.24 59.61L59.46 63.63L64.05 68.42L67.5 73.02L72.48 67.46Z" id="a7qLTwfwOa"></path>
          <path d="M72.48 67.46L78.61 62.58L87.23 57.31L97 52.33L105.62 49.26L105.04 37.77L105.62 29.34L106.77 22.26L108.3 16.13L109.83 10.96L105.04 12.68L97 16.13L86.66 20.72L78.61 24.55L72.48 28.19L65.59 33.94L59.46 39.69L54.86 44.86L51.99 49.65L48.35 55.2L55.24 59.61L59.46 63.63L64.05 68.42L67.5 73.02L72.48 67.46Z" id="f8sADGAJ1"></path>
          <path d="M72.48 67.46L78.61 62.58L87.23 57.31L97 52.33L105.62 49.26L105.04 37.77L105.62 29.34L106.77 22.26L108.3 16.13L109.83 10.96L105.04 12.68L97 16.13L86.66 20.72L78.61 24.55L72.48 28.19L65.59 33.94L59.46 39.69L54.86 44.86L51.99 49.65L48.35 55.2L55.24 59.61L59.46 63.63L64.05 68.42L67.5 73.02L72.48 67.46Z" id="dH1ioGGt5"></path>
          <path d="M72.48 67.46L78.61 62.58L87.23 57.31L97 52.33L105.62 49.26L105.04 37.77L105.62 29.34L106.77 22.26L108.3 16.13L109.83 10.96L105.04 12.68L97 16.13L86.66 20.72L78.61 24.55L72.48 28.19L65.59 33.94L59.46 39.69L54.86 44.86L51.99 49.65L48.35 55.2L55.24 59.61L59.46 63.63L64.05 68.42L67.5 73.02L72.48 67.46Z" id="f2nuLeZX0u"></path>
          <path d="M72.48 67.46L78.61 62.58L87.23 57.31L97 52.33L105.62 49.26L105.04 37.77L105.62 29.34L106.77 22.26L108.3 16.13L109.83 10.96L105.04 12.68L97 16.13L86.66 20.72L78.61 24.55L72.48 28.19L65.59 33.94L59.46 39.69L54.86 44.86L51.99 49.65L48.35 55.2L55.24 59.61L59.46 63.63L64.05 68.42L67.5 73.02L72.48 67.46Z" id="g1TkHRqufw"></path>
          <path d="M72.48 67.46L78.61 62.58L87.23 57.31L97 52.33L105.62 49.26L105.04 37.77L105.62 29.34L106.77 22.26L108.3 16.13L109.83 10.96L105.04 12.68L97 16.13L86.66 20.72L78.61 24.55L72.48 28.19L65.59 33.94L59.46 39.69L54.86 44.86L51.99 49.65L48.35 55.2L55.24 59.61L59.46 63.63L64.05 68.42L67.5 73.02L72.48 67.46Z" id="c4QkNOIS6"></path>
          <path d="M72.48 67.46L78.61 62.58L87.23 57.31L97 52.33L105.62 49.26L105.04 37.77L105.62 29.34L106.77 22.26L108.3 16.13L109.83 10.96L105.04 12.68L97 16.13L86.66 20.72L78.61 24.55L72.48 28.19L65.59 33.94L59.46 39.69L54.86 44.86L51.99 49.65L48.35 55.2L55.24 59.61L59.46 63.63L64.05 68.42L67.5 73.02L72.48 67.46Z" id="g3iYHqpebs"></path>
          <path d="M72.48 67.46L78.61 62.58L87.23 57.31L97 52.33L105.62 49.26L105.04 37.77L105.62 29.34L106.77 22.26L108.3 16.13L109.83 10.96L105.04 12.68L97 16.13L86.66 20.72L78.61 24.55L72.48 28.19L65.59 33.94L59.46 39.69L54.86 44.86L51.99 49.65L48.35 55.2L55.24 59.61L59.46 63.63L64.05 68.42L67.5 73.02L72.48 67.46Z" id="d1KAkWJhNe"></path>
          <path d="M72.48 67.46L78.61 62.58L87.23 57.31L97 52.33L105.62 49.26L105.04 37.77L105.62 29.34L106.77 22.26L108.3 16.13L109.83 10.96L105.04 12.68L97 16.13L86.66 20.72L78.61 24.55L72.48 28.19L65.59 33.94L59.46 39.69L54.86 44.86L51.99 49.65L48.35 55.2L55.24 59.61L59.46 63.63L64.05 68.42L67.5 73.02L72.48 67.46Z" id="b61klJlTHo"></path>
          <path d="M72.48 67.46L78.61 62.58L87.23 57.31L97 52.33L105.62 49.26L105.04 37.77L105.62 29.34L106.77 22.26L108.3 16.13L109.83 10.96L105.04 12.68L97 16.13L86.66 20.72L78.61 24.55L72.48 28.19L65.59 33.94L59.46 39.69L54.86 44.86L51.99 49.65L48.35 55.2L55.24 59.61L59.46 63.63L64.05 68.42L67.5 73.02L72.48 67.46Z" id="bchcM3S4m"></path>
          <path d="M72.48 67.46L78.61 62.58L87.23 57.31L97 52.33L105.62 49.26L105.04 37.77L105.62 29.34L106.77 22.26L108.3 16.13L109.83 10.96L105.04 12.68L97 16.13L86.66 20.72L78.61 24.55L72.48 28.19L65.59 33.94L59.46 39.69L54.86 44.86L51.99 49.65L48.35 55.2L55.24 59.61L59.46 63.63L64.05 68.42L67.5 73.02L72.48 67.46Z" id="dtmKsiM4m"></path>
          <path d="M72.48 67.46L78.61 62.58L87.23 57.31L97 52.33L105.62 49.26L105.04 37.77L105.62 29.34L106.77 22.26L108.3 16.13L109.83 10.96L105.04 12.68L97 16.13L86.66 20.72L78.61 24.55L72.48 28.19L65.59 33.94L59.46 39.69L54.86 44.86L51.99 49.65L48.35 55.2L55.24 59.61L59.46 63.63L64.05 68.42L67.5 73.02L72.48 67.46Z" id="d3QCSc2vDa"></path>
          <path d="M72.48 67.46L78.61 62.58L87.23 57.31L97 52.33L105.62 49.26L105.04 37.77L105.62 29.34L106.77 22.26L108.3 16.13L109.83 10.96L105.04 12.68L97 16.13L86.66 20.72L78.61 24.55L72.48 28.19L65.59 33.94L59.46 39.69L54.86 44.86L51.99 49.65L48.35 55.2L55.24 59.61L59.46 63.63L64.05 68.42L67.5 73.02L72.48 67.46Z" id="aT3FcOVT2"></path>
          <path d="M72.48 67.46L78.61 62.58L87.23 57.31L97 52.33L105.62 49.26L105.04 37.77L105.62 29.34L106.77 22.26L108.3 16.13L109.83 10.96L105.04 12.68L97 16.13L86.66 20.72L78.61 24.55L72.48 28.19L65.59 33.94L59.46 39.69L54.86 44.86L51.99 49.65L48.35 55.2L55.24 59.61L59.46 63.63L64.05 68.42L67.5 73.02L72.48 67.46Z" id="c8I688uGM"></path>
          <path d="M72.29 106.92L69.61 115.16L75.74 107.49L79.09 101.75L83.02 94.28L84.93 87.38L86.08 78.57L84.93 71.48L83.02 65.55L79.95 67.84L75.74 71.48L70.76 76.27L73.25 81.64L75.16 87.38L75.16 94.28L74.21 100.6L72.29 106.92Z" id="c3ZLDGNOP2"></path>
          <path d="M72.29 106.92L69.61 115.16L75.74 107.49L79.09 101.75L83.02 94.28L84.93 87.38L86.08 78.57L84.93 71.48L83.02 65.55L79.95 67.84L75.74 71.48L70.76 76.27L73.25 81.64L75.16 87.38L75.16 94.28L74.21 100.6L72.29 106.92Z" id="gu6ZAbalB"></path>
          <path d="M72.29 106.92L69.61 115.16L75.74 107.49L79.09 101.75L83.02 94.28L84.93 87.38L86.08 78.57L84.93 71.48L83.02 65.55L79.95 67.84L75.74 71.48L70.76 76.27L73.25 81.64L75.16 87.38L75.16 94.28L74.21 100.6L72.29 106.92Z" id="b2NhrPamVB"></path>
          <path d="M72.29 106.92L69.61 115.16L75.74 107.49L79.09 101.75L83.02 94.28L84.93 87.38L86.08 78.57L84.93 71.48L83.02 65.55L79.95 67.84L75.74 71.48L70.76 76.27L73.25 81.64L75.16 87.38L75.16 94.28L74.21 100.6L72.29 106.92Z" id="anJWWO0Uc"></path>
          <path d="M72.29 106.92L69.61 115.16L75.74 107.49L79.09 101.75L83.02 94.28L84.93 87.38L86.08 78.57L84.93 71.48L83.02 65.55L79.95 67.84L75.74 71.48L70.76 76.27L73.25 81.64L75.16 87.38L75.16 94.28L74.21 100.6L72.29 106.92Z" id="b1HUYyRu3Q"></path>
          <path d="M72.29 106.92L69.61 115.16L75.74 107.49L79.09 101.75L83.02 94.28L84.93 87.38L86.08 78.57L84.93 71.48L83.02 65.55L79.95 67.84L75.74 71.48L70.76 76.27L73.25 81.64L75.16 87.38L75.16 94.28L74.21 100.6L72.29 106.92Z" id="atozcAOe3"></path>
          <path d="M72.29 106.92L69.61 115.16L75.74 107.49L79.09 101.75L83.02 94.28L84.93 87.38L86.08 78.57L84.93 71.48L83.02 65.55L79.95 67.84L75.74 71.48L70.76 76.27L73.25 81.64L75.16 87.38L75.16 94.28L74.21 100.6L72.29 106.92Z" id="dar0Ptyn3Y"></path>
          <path d="M72.29 106.92L69.61 115.16L75.74 107.49L79.09 101.75L83.02 94.28L84.93 87.38L86.08 78.57L84.93 71.48L83.02 65.55L79.95 67.84L75.74 71.48L70.76 76.27L73.25 81.64L75.16 87.38L75.16 94.28L74.21 100.6L72.29 106.92Z" id="kD41JDQPX"></path>
          <path d="M72.29 106.92L69.61 115.16L75.74 107.49L79.09 101.75L83.02 94.28L84.93 87.38L86.08 78.57L84.93 71.48L83.02 65.55L79.95 67.84L75.74 71.48L70.76 76.27L73.25 81.64L75.16 87.38L75.16 94.28L74.21 100.6L72.29 106.92Z" id="a3oyK9NOI"></path>
          <path d="M72.29 106.92L69.61 115.16L75.74 107.49L79.09 101.75L83.02 94.28L84.93 87.38L86.08 78.57L84.93 71.48L83.02 65.55L79.95 67.84L75.74 71.48L70.76 76.27L73.25 81.64L75.16 87.38L75.16 94.28L74.21 100.6L72.29 106.92Z" id="cbPxmuA6"></path>
          <path d="M72.29 106.92L69.61 115.16L75.74 107.49L79.09 101.75L83.02 94.28L84.93 87.38L86.08 78.57L84.93 71.48L83.02 65.55L79.95 67.84L75.74 71.48L70.76 76.27L73.25 81.64L75.16 87.38L75.16 94.28L74.21 100.6L72.29 106.92Z" id="c6plLSSkI6"></path>
          <path d="M72.29 106.92L69.61 115.16L75.74 107.49L79.09 101.75L83.02 94.28L84.93 87.38L86.08 78.57L84.93 71.48L83.02 65.55L79.95 67.84L75.74 71.48L70.76 76.27L73.25 81.64L75.16 87.38L75.16 94.28L74.21 100.6L72.29 106.92Z" id="b16hUano3Q"></path>
          <path d="M72.29 106.92L69.61 115.16L75.74 107.49L79.09 101.75L83.02 94.28L84.93 87.38L86.08 78.57L84.93 71.48L83.02 65.55L79.95 67.84L75.74 71.48L70.76 76.27L73.25 81.64L75.16 87.38L75.16 94.28L74.21 100.6L72.29 106.92Z" id="d3QAfY59c"></path>
          <path d="M72.29 106.92L69.61 115.16L75.74 107.49L79.09 101.75L83.02 94.28L84.93 87.38L86.08 78.57L84.93 71.48L83.02 65.55L79.95 67.84L75.74 71.48L70.76 76.27L73.25 81.64L75.16 87.38L75.16 94.28L74.21 100.6L72.29 106.92Z" id="a61cIJH60"></path>
          <path d="M72.29 106.92L69.61 115.16L75.74 107.49L79.09 101.75L83.02 94.28L84.93 87.38L86.08 78.57L84.93 71.48L83.02 65.55L79.95 67.84L75.74 71.48L70.76 76.27L73.25 81.64L75.16 87.38L75.16 94.28L74.21 100.6L72.29 106.92Z" id="e7gP0x6IE"></path>
          <path d="M72.29 106.92L69.61 115.16L75.74 107.49L79.09 101.75L83.02 94.28L84.93 87.38L86.08 78.57L84.93 71.48L83.02 65.55L79.95 67.84L75.74 71.48L70.76 76.27L73.25 81.64L75.16 87.38L75.16 94.28L74.21 100.6L72.29 106.92Z" id="b13AkeRCll"></path>
          <path d="M54.28 87.57L47.39 82.79L35.7 77.04L23.83 72.44L12.72 68.99L14.25 65.55L16.36 57.88L17.89 50.61L18.27 43.33L29.19 49.84L40.88 56.93L50.26 63.25L57.35 68.99L62.9 74.93L66.73 80.49L69.61 87L70.18 93.89L69.03 101.37L66.73 109.98L63.67 117.26L62.9 109.98L62.9 103.66L61.37 97.92L59.46 93.32L54.28 87.57Z" id="bgAkoPRAD"></path>
          <path d="M54.28 87.57L47.39 82.79L35.7 77.04L23.83 72.44L12.72 68.99L14.25 65.55L16.36 57.88L17.89 50.61L18.27 43.33L29.19 49.84L40.88 56.93L50.26 63.25L57.35 68.99L62.9 74.93L66.73 80.49L69.61 87L70.18 93.89L69.03 101.37L66.73 109.98L63.67 117.26L62.9 109.98L62.9 103.66L61.37 97.92L59.46 93.32L54.28 87.57Z" id="eBu3hBijU"></path>
          <path d="M54.28 87.57L47.39 82.79L35.7 77.04L23.83 72.44L12.72 68.99L14.25 65.55L16.36 57.88L17.89 50.61L18.27 43.33L29.19 49.84L40.88 56.93L50.26 63.25L57.35 68.99L62.9 74.93L66.73 80.49L69.61 87L70.18 93.89L69.03 101.37L66.73 109.98L63.67 117.26L62.9 109.98L62.9 103.66L61.37 97.92L59.46 93.32L54.28 87.57Z" id="b4rvyieRAE"></path>
          <path d="M54.28 87.57L47.39 82.79L35.7 77.04L23.83 72.44L12.72 68.99L14.25 65.55L16.36 57.88L17.89 50.61L18.27 43.33L29.19 49.84L40.88 56.93L50.26 63.25L57.35 68.99L62.9 74.93L66.73 80.49L69.61 87L70.18 93.89L69.03 101.37L66.73 109.98L63.67 117.26L62.9 109.98L62.9 103.66L61.37 97.92L59.46 93.32L54.28 87.57Z" id="apFOnfmy"></path>
          <path d="M54.28 87.57L47.39 82.79L35.7 77.04L23.83 72.44L12.72 68.99L14.25 65.55L16.36 57.88L17.89 50.61L18.27 43.33L29.19 49.84L40.88 56.93L50.26 63.25L57.35 68.99L62.9 74.93L66.73 80.49L69.61 87L70.18 93.89L69.03 101.37L66.73 109.98L63.67 117.26L62.9 109.98L62.9 103.66L61.37 97.92L59.46 93.32L54.28 87.57Z" id="n63UFTVU1y"></path>
          <path d="M54.28 87.57L47.39 82.79L35.7 77.04L23.83 72.44L12.72 68.99L14.25 65.55L16.36 57.88L17.89 50.61L18.27 43.33L29.19 49.84L40.88 56.93L50.26 63.25L57.35 68.99L62.9 74.93L66.73 80.49L69.61 87L70.18 93.89L69.03 101.37L66.73 109.98L63.67 117.26L62.9 109.98L62.9 103.66L61.37 97.92L59.46 93.32L54.28 87.57Z" id="c4F5LeCIpg"></path>
          <path d="M54.28 87.57L47.39 82.79L35.7 77.04L23.83 72.44L12.72 68.99L14.25 65.55L16.36 57.88L17.89 50.61L18.27 43.33L29.19 49.84L40.88 56.93L50.26 63.25L57.35 68.99L62.9 74.93L66.73 80.49L69.61 87L70.18 93.89L69.03 101.37L66.73 109.98L63.67 117.26L62.9 109.98L62.9 103.66L61.37 97.92L59.46 93.32L54.28 87.57Z" id="o285IlA4HS"></path>
          <path d="M54.28 87.57L47.39 82.79L35.7 77.04L23.83 72.44L12.72 68.99L14.25 65.55L16.36 57.88L17.89 50.61L18.27 43.33L29.19 49.84L40.88 56.93L50.26 63.25L57.35 68.99L62.9 74.93L66.73 80.49L69.61 87L70.18 93.89L69.03 101.37L66.73 109.98L63.67 117.26L62.9 109.98L62.9 103.66L61.37 97.92L59.46 93.32L54.28 87.57Z" id="f2hpZ3Xv62"></path>
          <path d="M54.28 87.57L47.39 82.79L35.7 77.04L23.83 72.44L12.72 68.99L14.25 65.55L16.36 57.88L17.89 50.61L18.27 43.33L29.19 49.84L40.88 56.93L50.26 63.25L57.35 68.99L62.9 74.93L66.73 80.49L69.61 87L70.18 93.89L69.03 101.37L66.73 109.98L63.67 117.26L62.9 109.98L62.9 103.66L61.37 97.92L59.46 93.32L54.28 87.57Z" id="cAHpQeHg6"></path>
          <path d="M54.28 87.57L47.39 82.79L35.7 77.04L23.83 72.44L12.72 68.99L14.25 65.55L16.36 57.88L17.89 50.61L18.27 43.33L29.19 49.84L40.88 56.93L50.26 63.25L57.35 68.99L62.9 74.93L66.73 80.49L69.61 87L70.18 93.89L69.03 101.37L66.73 109.98L63.67 117.26L62.9 109.98L62.9 103.66L61.37 97.92L59.46 93.32L54.28 87.57Z" id="b4U1tQbt6c"></path>
          <path d="M54.28 87.57L47.39 82.79L35.7 77.04L23.83 72.44L12.72 68.99L14.25 65.55L16.36 57.88L17.89 50.61L18.27 43.33L29.19 49.84L40.88 56.93L50.26 63.25L57.35 68.99L62.9 74.93L66.73 80.49L69.61 87L70.18 93.89L69.03 101.37L66.73 109.98L63.67 117.26L62.9 109.98L62.9 103.66L61.37 97.92L59.46 93.32L54.28 87.57Z" id="f2iAZEKEeZ"></path>
          <path d="M54.28 87.57L47.39 82.79L35.7 77.04L23.83 72.44L12.72 68.99L14.25 65.55L16.36 57.88L17.89 50.61L18.27 43.33L29.19 49.84L40.88 56.93L50.26 63.25L57.35 68.99L62.9 74.93L66.73 80.49L69.61 87L70.18 93.89L69.03 101.37L66.73 109.98L63.67 117.26L62.9 109.98L62.9 103.66L61.37 97.92L59.46 93.32L54.28 87.57Z" id="beu1qtx8z"></path>
          <path d="M54.28 87.57L47.39 82.79L35.7 77.04L23.83 72.44L12.72 68.99L14.25 65.55L16.36 57.88L17.89 50.61L18.27 43.33L29.19 49.84L40.88 56.93L50.26 63.25L57.35 68.99L62.9 74.93L66.73 80.49L69.61 87L70.18 93.89L69.03 101.37L66.73 109.98L63.67 117.26L62.9 109.98L62.9 103.66L61.37 97.92L59.46 93.32L54.28 87.57Z" id="c1kXP9I11u"></path>
          <path d="M54.28 87.57L47.39 82.79L35.7 77.04L23.83 72.44L12.72 68.99L14.25 65.55L16.36 57.88L17.89 50.61L18.27 43.33L29.19 49.84L40.88 56.93L50.26 63.25L57.35 68.99L62.9 74.93L66.73 80.49L69.61 87L70.18 93.89L69.03 101.37L66.73 109.98L63.67 117.26L62.9 109.98L62.9 103.66L61.37 97.92L59.46 93.32L54.28 87.57Z" id="b1a665Lgso"></path>
          <path d="M54.28 87.57L47.39 82.79L35.7 77.04L23.83 72.44L12.72 68.99L14.25 65.55L16.36 57.88L17.89 50.61L18.27 43.33L29.19 49.84L40.88 56.93L50.26 63.25L57.35 68.99L62.9 74.93L66.73 80.49L69.61 87L70.18 93.89L69.03 101.37L66.73 109.98L63.67 117.26L62.9 109.98L62.9 103.66L61.37 97.92L59.46 93.32L54.28 87.57Z" id="d2zIywrb6n"></path>
          <path d="M54.28 87.57L47.39 82.79L35.7 77.04L23.83 72.44L12.72 68.99L14.25 65.55L16.36 57.88L17.89 50.61L18.27 43.33L29.19 49.84L40.88 56.93L50.26 63.25L57.35 68.99L62.9 74.93L66.73 80.49L69.61 87L70.18 93.89L69.03 101.37L66.73 109.98L63.67 117.26L62.9 109.98L62.9 103.66L61.37 97.92L59.46 93.32L54.28 87.57Z" id="b2tL3hWznt"></path>
          <path d="M46.17 88.38L48.81 89.69L51.92 92.32L55.39 95.92L57.67 101.31L58.5 107.53L58.5 114.35L55.03 109.32L51.92 103.7L49.16 98.43L47.61 93.65L46.17 88.38Z" id="gyMwmbIpd"></path>
          <path d="M46.17 88.38L48.81 89.69L51.92 92.32L55.39 95.92L57.67 101.31L58.5 107.53L58.5 114.35L55.03 109.32L51.92 103.7L49.16 98.43L47.61 93.65L46.17 88.38Z" id="d1Gtacutft"></path>
          <path d="M46.17 88.38L48.81 89.69L51.92 92.32L55.39 95.92L57.67 101.31L58.5 107.53L58.5 114.35L55.03 109.32L51.92 103.7L49.16 98.43L47.61 93.65L46.17 88.38Z" id="b2a6f6v1YF"></path>
          <path d="M46.17 88.38L48.81 89.69L51.92 92.32L55.39 95.92L57.67 101.31L58.5 107.53L58.5 114.35L55.03 109.32L51.92 103.7L49.16 98.43L47.61 93.65L46.17 88.38Z" id="d6D4hF6ry"></path>
          <path d="M46.17 88.38L48.81 89.69L51.92 92.32L55.39 95.92L57.67 101.31L58.5 107.53L58.5 114.35L55.03 109.32L51.92 103.7L49.16 98.43L47.61 93.65L46.17 88.38Z" id="cl96XLxet"></path>
          <path d="M46.17 88.38L48.81 89.69L51.92 92.32L55.39 95.92L57.67 101.31L58.5 107.53L58.5 114.35L55.03 109.32L51.92 103.7L49.16 98.43L47.61 93.65L46.17 88.38Z" id="dYXS1PpeD"></path>
          <path d="M46.17 88.38L48.81 89.69L51.92 92.32L55.39 95.92L57.67 101.31L58.5 107.53L58.5 114.35L55.03 109.32L51.92 103.7L49.16 98.43L47.61 93.65L46.17 88.38Z" id="a38wXaBzQH"></path>
          <path d="M46.17 88.38L48.81 89.69L51.92 92.32L55.39 95.92L57.67 101.31L58.5 107.53L58.5 114.35L55.03 109.32L51.92 103.7L49.16 98.43L47.61 93.65L46.17 88.38Z" id="aj436ctdR"></path>
          <path d="M46.17 88.38L48.81 89.69L51.92 92.32L55.39 95.92L57.67 101.31L58.5 107.53L58.5 114.35L55.03 109.32L51.92 103.7L49.16 98.43L47.61 93.65L46.17 88.38Z" id="aotA8BtYr"></path>
          <path d="M46.17 88.38L48.81 89.69L51.92 92.32L55.39 95.92L57.67 101.31L58.5 107.53L58.5 114.35L55.03 109.32L51.92 103.7L49.16 98.43L47.61 93.65L46.17 88.38Z" id="a26eeVUsNA"></path>
          <path d="M46.17 88.38L48.81 89.69L51.92 92.32L55.39 95.92L57.67 101.31L58.5 107.53L58.5 114.35L55.03 109.32L51.92 103.7L49.16 98.43L47.61 93.65L46.17 88.38Z" id="dKtbcelN9"></path>
          <path d="M46.17 88.38L48.81 89.69L51.92 92.32L55.39 95.92L57.67 101.31L58.5 107.53L58.5 114.35L55.03 109.32L51.92 103.7L49.16 98.43L47.61 93.65L46.17 88.38Z" id="b3svDBgcQ5"></path>
          <path d="M46.17 88.38L48.81 89.69L51.92 92.32L55.39 95.92L57.67 101.31L58.5 107.53L58.5 114.35L55.03 109.32L51.92 103.7L49.16 98.43L47.61 93.65L46.17 88.38Z" id="b1Eun96Gn"></path><path d="M46.17 88.38L48.81 89.69L51.92 92.32L55.39 95.92L57.67 101.31L58.5 107.53L58.5 114.35L55.03 109.32L51.92 103.7L49.16 98.43L47.61 93.65L46.17 88.38Z" id="atpp6niwv"></path><path d="M46.17 88.38L48.81 89.69L51.92 92.32L55.39 95.92L57.67 101.31L58.5 107.53L58.5 114.35L55.03 109.32L51.92 103.7L49.16 98.43L47.61 93.65L46.17 88.38Z" id="b3939npS9n"></path><path d="M46.17 88.38L48.81 89.69L51.92 92.32L55.39 95.92L57.67 101.31L58.5 107.53L58.5 114.35L55.03 109.32L51.92 103.7L49.16 98.43L47.61 93.65L46.17 88.38Z" id="cdyEkQjqC"></path>
          <path d="M115.17 92.3L117.5 113.42L96.53 110.01L102.44 104.4L90.08 91.39L96.92 84.89L109.28 97.9L115.17 92.3Z" id="b3YcGfqbvk"></path>
        </g>
      </symbol>

      <symbol id="icon-xnat-export" viewBox="0 0 128 128">
        <title>XNAT Export</title>
        <g id="icon-xnat-export-group" stroke-width="1" stroke-linecap="round" stroke-linejoin="round">
          <path d="M35.64 10.14L45.98 10.14L55.17 9.76L63.41 8.99L70.31 7.84L76.82 6.31L74.71 8.61L70.31 12.63L66.09 17.8L63.79 21.82L61.88 26.42L61.88 30.25L63.41 33.13L61.3 34.47L55.75 40.4L51.92 45.77L48.47 50.37L45.6 46.92L41.57 41.55L37.55 34.08L35.64 29.49L34.1 24.12L33.53 19.72L34.1 14.93L35.64 10.14Z" id="dHwjXFj1g"></path>
          <path d="M35.64 10.14L45.98 10.14L55.17 9.76L63.41 8.99L70.31 7.84L76.82 6.31L74.71 8.61L70.31 12.63L66.09 17.8L63.79 21.82L61.88 26.42L61.88 30.25L63.41 33.13L61.3 34.47L55.75 40.4L51.92 45.77L48.47 50.37L45.6 46.92L41.57 41.55L37.55 34.08L35.64 29.49L34.1 24.12L33.53 19.72L34.1 14.93L35.64 10.14Z" id="aS4ddDS6L"></path>
          <path d="M35.64 10.14L45.98 10.14L55.17 9.76L63.41 8.99L70.31 7.84L76.82 6.31L74.71 8.61L70.31 12.63L66.09 17.8L63.79 21.82L61.88 26.42L61.88 30.25L63.41 33.13L61.3 34.47L55.75 40.4L51.92 45.77L48.47 50.37L45.6 46.92L41.57 41.55L37.55 34.08L35.64 29.49L34.1 24.12L33.53 19.72L34.1 14.93L35.64 10.14Z" id="aLFJdP5XB"></path>
          <path d="M35.64 10.14L45.98 10.14L55.17 9.76L63.41 8.99L70.31 7.84L76.82 6.31L74.71 8.61L70.31 12.63L66.09 17.8L63.79 21.82L61.88 26.42L61.88 30.25L63.41 33.13L61.3 34.47L55.75 40.4L51.92 45.77L48.47 50.37L45.6 46.92L41.57 41.55L37.55 34.08L35.64 29.49L34.1 24.12L33.53 19.72L34.1 14.93L35.64 10.14Z" id="b3VGCUXiqt"></path>
          <path d="M35.64 10.14L45.98 10.14L55.17 9.76L63.41 8.99L70.31 7.84L76.82 6.31L74.71 8.61L70.31 12.63L66.09 17.8L63.79 21.82L61.88 26.42L61.88 30.25L63.41 33.13L61.3 34.47L55.75 40.4L51.92 45.77L48.47 50.37L45.6 46.92L41.57 41.55L37.55 34.08L35.64 29.49L34.1 24.12L33.53 19.72L34.1 14.93L35.64 10.14Z" id="a2x4fIWZmw"></path>
          <path d="M35.64 10.14L45.98 10.14L55.17 9.76L63.41 8.99L70.31 7.84L76.82 6.31L74.71 8.61L70.31 12.63L66.09 17.8L63.79 21.82L61.88 26.42L61.88 30.25L63.41 33.13L61.3 34.47L55.75 40.4L51.92 45.77L48.47 50.37L45.6 46.92L41.57 41.55L37.55 34.08L35.64 29.49L34.1 24.12L33.53 19.72L34.1 14.93L35.64 10.14Z" id="aJJyB917Z"></path>
          <path d="M35.64 10.14L45.98 10.14L55.17 9.76L63.41 8.99L70.31 7.84L76.82 6.31L74.71 8.61L70.31 12.63L66.09 17.8L63.79 21.82L61.88 26.42L61.88 30.25L63.41 33.13L61.3 34.47L55.75 40.4L51.92 45.77L48.47 50.37L45.6 46.92L41.57 41.55L37.55 34.08L35.64 29.49L34.1 24.12L33.53 19.72L34.1 14.93L35.64 10.14Z" id="cuNmzkD4F"></path>
          <path d="M35.64 10.14L45.98 10.14L55.17 9.76L63.41 8.99L70.31 7.84L76.82 6.31L74.71 8.61L70.31 12.63L66.09 17.8L63.79 21.82L61.88 26.42L61.88 30.25L63.41 33.13L61.3 34.47L55.75 40.4L51.92 45.77L48.47 50.37L45.6 46.92L41.57 41.55L37.55 34.08L35.64 29.49L34.1 24.12L33.53 19.72L34.1 14.93L35.64 10.14Z" id="gX62QmSM"></path>
          <path d="M35.64 10.14L45.98 10.14L55.17 9.76L63.41 8.99L70.31 7.84L76.82 6.31L74.71 8.61L70.31 12.63L66.09 17.8L63.79 21.82L61.88 26.42L61.88 30.25L63.41 33.13L61.3 34.47L55.75 40.4L51.92 45.77L48.47 50.37L45.6 46.92L41.57 41.55L37.55 34.08L35.64 29.49L34.1 24.12L33.53 19.72L34.1 14.93L35.64 10.14Z" id="csRLCk1f5"></path>
          <path d="M35.64 10.14L45.98 10.14L55.17 9.76L63.41 8.99L70.31 7.84L76.82 6.31L74.71 8.61L70.31 12.63L66.09 17.8L63.79 21.82L61.88 26.42L61.88 30.25L63.41 33.13L61.3 34.47L55.75 40.4L51.92 45.77L48.47 50.37L45.6 46.92L41.57 41.55L37.55 34.08L35.64 29.49L34.1 24.12L33.53 19.72L34.1 14.93L35.64 10.14Z" id="c1qRvinGMq"></path>
          <path d="M35.64 10.14L45.98 10.14L55.17 9.76L63.41 8.99L70.31 7.84L76.82 6.31L74.71 8.61L70.31 12.63L66.09 17.8L63.79 21.82L61.88 26.42L61.88 30.25L63.41 33.13L61.3 34.47L55.75 40.4L51.92 45.77L48.47 50.37L45.6 46.92L41.57 41.55L37.55 34.08L35.64 29.49L34.1 24.12L33.53 19.72L34.1 14.93L35.64 10.14Z" id="e3nSGaG4qP"></path>
          <path d="M35.64 10.14L45.98 10.14L55.17 9.76L63.41 8.99L70.31 7.84L76.82 6.31L74.71 8.61L70.31 12.63L66.09 17.8L63.79 21.82L61.88 26.42L61.88 30.25L63.41 33.13L61.3 34.47L55.75 40.4L51.92 45.77L48.47 50.37L45.6 46.92L41.57 41.55L37.55 34.08L35.64 29.49L34.1 24.12L33.53 19.72L34.1 14.93L35.64 10.14Z" id="a3YjkS5QQV"></path>
          <path d="M35.64 10.14L45.98 10.14L55.17 9.76L63.41 8.99L70.31 7.84L76.82 6.31L74.71 8.61L70.31 12.63L66.09 17.8L63.79 21.82L61.88 26.42L61.88 30.25L63.41 33.13L61.3 34.47L55.75 40.4L51.92 45.77L48.47 50.37L45.6 46.92L41.57 41.55L37.55 34.08L35.64 29.49L34.1 24.12L33.53 19.72L34.1 14.93L35.64 10.14Z" id="b3YQR3CzM"></path>
          <path d="M35.64 10.14L45.98 10.14L55.17 9.76L63.41 8.99L70.31 7.84L76.82 6.31L74.71 8.61L70.31 12.63L66.09 17.8L63.79 21.82L61.88 26.42L61.88 30.25L63.41 33.13L61.3 34.47L55.75 40.4L51.92 45.77L48.47 50.37L45.6 46.92L41.57 41.55L37.55 34.08L35.64 29.49L34.1 24.12L33.53 19.72L34.1 14.93L35.64 10.14Z" id="c3eGm5yVUa"></path>
          <path d="M35.64 10.14L45.98 10.14L55.17 9.76L63.41 8.99L70.31 7.84L76.82 6.31L74.71 8.61L70.31 12.63L66.09 17.8L63.79 21.82L61.88 26.42L61.88 30.25L63.41 33.13L61.3 34.47L55.75 40.4L51.92 45.77L48.47 50.37L45.6 46.92L41.57 41.55L37.55 34.08L35.64 29.49L34.1 24.12L33.53 19.72L34.1 14.93L35.64 10.14Z" id="a3BjLx1Cr"></path>
          <path d="M35.64 10.14L45.98 10.14L55.17 9.76L63.41 8.99L70.31 7.84L76.82 6.31L74.71 8.61L70.31 12.63L66.09 17.8L63.79 21.82L61.88 26.42L61.88 30.25L63.41 33.13L61.3 34.47L55.75 40.4L51.92 45.77L48.47 50.37L45.6 46.92L41.57 41.55L37.55 34.08L35.64 29.49L34.1 24.12L33.53 19.72L34.1 14.93L35.64 10.14Z" id="c3mXiL076"></path>
          <path d="M76.05 67.6L82.18 62.72L90.8 57.45L100.57 52.47L109.19 49.41L108.62 37.91L109.19 29.49L110.34 22.4L111.87 16.27L113.4 11.1L108.62 12.82L100.57 16.27L90.23 20.87L82.18 24.7L76.05 28.34L69.16 34.08L63.03 39.83L58.43 45L55.56 49.79L51.92 55.35L58.81 59.75L63.03 63.77L67.62 68.56L71.07 73.16L76.05 67.6Z" id="b4I9C2ziau"></path>
          <path d="M76.05 67.6L82.18 62.72L90.8 57.45L100.57 52.47L109.19 49.41L108.62 37.91L109.19 29.49L110.34 22.4L111.87 16.27L113.4 11.1L108.62 12.82L100.57 16.27L90.23 20.87L82.18 24.7L76.05 28.34L69.16 34.08L63.03 39.83L58.43 45L55.56 49.79L51.92 55.35L58.81 59.75L63.03 63.77L67.62 68.56L71.07 73.16L76.05 67.6Z" id="aOfcwqojb"></path>
          <path d="M76.05 67.6L82.18 62.72L90.8 57.45L100.57 52.47L109.19 49.41L108.62 37.91L109.19 29.49L110.34 22.4L111.87 16.27L113.4 11.1L108.62 12.82L100.57 16.27L90.23 20.87L82.18 24.7L76.05 28.34L69.16 34.08L63.03 39.83L58.43 45L55.56 49.79L51.92 55.35L58.81 59.75L63.03 63.77L67.62 68.56L71.07 73.16L76.05 67.6Z" id="m25ZggWTXb"></path>
          <path d="M76.05 67.6L82.18 62.72L90.8 57.45L100.57 52.47L109.19 49.41L108.62 37.91L109.19 29.49L110.34 22.4L111.87 16.27L113.4 11.1L108.62 12.82L100.57 16.27L90.23 20.87L82.18 24.7L76.05 28.34L69.16 34.08L63.03 39.83L58.43 45L55.56 49.79L51.92 55.35L58.81 59.75L63.03 63.77L67.62 68.56L71.07 73.16L76.05 67.6Z" id="aRHlSHf0P"></path>
          <path d="M76.05 67.6L82.18 62.72L90.8 57.45L100.57 52.47L109.19 49.41L108.62 37.91L109.19 29.49L110.34 22.4L111.87 16.27L113.4 11.1L108.62 12.82L100.57 16.27L90.23 20.87L82.18 24.7L76.05 28.34L69.16 34.08L63.03 39.83L58.43 45L55.56 49.79L51.92 55.35L58.81 59.75L63.03 63.77L67.62 68.56L71.07 73.16L76.05 67.6Z" id="bs5AqM6bI"></path>
          <path d="M76.05 67.6L82.18 62.72L90.8 57.45L100.57 52.47L109.19 49.41L108.62 37.91L109.19 29.49L110.34 22.4L111.87 16.27L113.4 11.1L108.62 12.82L100.57 16.27L90.23 20.87L82.18 24.7L76.05 28.34L69.16 34.08L63.03 39.83L58.43 45L55.56 49.79L51.92 55.35L58.81 59.75L63.03 63.77L67.62 68.56L71.07 73.16L76.05 67.6Z" id="da8OTZliDA"></path>
          <path d="M76.05 67.6L82.18 62.72L90.8 57.45L100.57 52.47L109.19 49.41L108.62 37.91L109.19 29.49L110.34 22.4L111.87 16.27L113.4 11.1L108.62 12.82L100.57 16.27L90.23 20.87L82.18 24.7L76.05 28.34L69.16 34.08L63.03 39.83L58.43 45L55.56 49.79L51.92 55.35L58.81 59.75L63.03 63.77L67.62 68.56L71.07 73.16L76.05 67.6Z" id="dq29PVoJr"></path>
          <path d="M76.05 67.6L82.18 62.72L90.8 57.45L100.57 52.47L109.19 49.41L108.62 37.91L109.19 29.49L110.34 22.4L111.87 16.27L113.4 11.1L108.62 12.82L100.57 16.27L90.23 20.87L82.18 24.7L76.05 28.34L69.16 34.08L63.03 39.83L58.43 45L55.56 49.79L51.92 55.35L58.81 59.75L63.03 63.77L67.62 68.56L71.07 73.16L76.05 67.6Z" id="akOZ5OhJc"></path>
          <path d="M76.05 67.6L82.18 62.72L90.8 57.45L100.57 52.47L109.19 49.41L108.62 37.91L109.19 29.49L110.34 22.4L111.87 16.27L113.4 11.1L108.62 12.82L100.57 16.27L90.23 20.87L82.18 24.7L76.05 28.34L69.16 34.08L63.03 39.83L58.43 45L55.56 49.79L51.92 55.35L58.81 59.75L63.03 63.77L67.62 68.56L71.07 73.16L76.05 67.6Z" id="a4Vqduk7MR"></path>
          <path d="M76.05 67.6L82.18 62.72L90.8 57.45L100.57 52.47L109.19 49.41L108.62 37.91L109.19 29.49L110.34 22.4L111.87 16.27L113.4 11.1L108.62 12.82L100.57 16.27L90.23 20.87L82.18 24.7L76.05 28.34L69.16 34.08L63.03 39.83L58.43 45L55.56 49.79L51.92 55.35L58.81 59.75L63.03 63.77L67.62 68.56L71.07 73.16L76.05 67.6Z" id="dA3MtqyEA"></path>
          <path d="M76.05 67.6L82.18 62.72L90.8 57.45L100.57 52.47L109.19 49.41L108.62 37.91L109.19 29.49L110.34 22.4L111.87 16.27L113.4 11.1L108.62 12.82L100.57 16.27L90.23 20.87L82.18 24.7L76.05 28.34L69.16 34.08L63.03 39.83L58.43 45L55.56 49.79L51.92 55.35L58.81 59.75L63.03 63.77L67.62 68.56L71.07 73.16L76.05 67.6Z" id="b7iMaNbOAo"></path>
          <path d="M76.05 67.6L82.18 62.72L90.8 57.45L100.57 52.47L109.19 49.41L108.62 37.91L109.19 29.49L110.34 22.4L111.87 16.27L113.4 11.1L108.62 12.82L100.57 16.27L90.23 20.87L82.18 24.7L76.05 28.34L69.16 34.08L63.03 39.83L58.43 45L55.56 49.79L51.92 55.35L58.81 59.75L63.03 63.77L67.62 68.56L71.07 73.16L76.05 67.6Z" id="dbuO42BC8"></path>
          <path d="M76.05 67.6L82.18 62.72L90.8 57.45L100.57 52.47L109.19 49.41L108.62 37.91L109.19 29.49L110.34 22.4L111.87 16.27L113.4 11.1L108.62 12.82L100.57 16.27L90.23 20.87L82.18 24.7L76.05 28.34L69.16 34.08L63.03 39.83L58.43 45L55.56 49.79L51.92 55.35L58.81 59.75L63.03 63.77L67.62 68.56L71.07 73.16L76.05 67.6Z" id="bbpOb47WM"></path>
          <path d="M76.05 67.6L82.18 62.72L90.8 57.45L100.57 52.47L109.19 49.41L108.62 37.91L109.19 29.49L110.34 22.4L111.87 16.27L113.4 11.1L108.62 12.82L100.57 16.27L90.23 20.87L82.18 24.7L76.05 28.34L69.16 34.08L63.03 39.83L58.43 45L55.56 49.79L51.92 55.35L58.81 59.75L63.03 63.77L67.62 68.56L71.07 73.16L76.05 67.6Z" id="axMa2qse6"></path>
          <path d="M76.05 67.6L82.18 62.72L90.8 57.45L100.57 52.47L109.19 49.41L108.62 37.91L109.19 29.49L110.34 22.4L111.87 16.27L113.4 11.1L108.62 12.82L100.57 16.27L90.23 20.87L82.18 24.7L76.05 28.34L69.16 34.08L63.03 39.83L58.43 45L55.56 49.79L51.92 55.35L58.81 59.75L63.03 63.77L67.62 68.56L71.07 73.16L76.05 67.6Z" id="f1TBsW9gMZ"></path>
          <path d="M76.05 67.6L82.18 62.72L90.8 57.45L100.57 52.47L109.19 49.41L108.62 37.91L109.19 29.49L110.34 22.4L111.87 16.27L113.4 11.1L108.62 12.82L100.57 16.27L90.23 20.87L82.18 24.7L76.05 28.34L69.16 34.08L63.03 39.83L58.43 45L55.56 49.79L51.92 55.35L58.81 59.75L63.03 63.77L67.62 68.56L71.07 73.16L76.05 67.6Z" id="dhFD14ZB"></path>
          <path d="M75.86 107.06L73.18 115.3L79.31 107.64L82.66 101.89L86.59 94.42L88.5 87.53L89.65 78.71L88.5 71.63L86.59 65.69L83.52 67.99L79.31 71.63L74.33 76.42L76.82 81.78L78.73 87.53L78.73 94.42L77.78 100.74L75.86 107.06Z" id="b1WNmytIHf"></path>
          <path d="M75.86 107.06L73.18 115.3L79.31 107.64L82.66 101.89L86.59 94.42L88.5 87.53L89.65 78.71L88.5 71.63L86.59 65.69L83.52 67.99L79.31 71.63L74.33 76.42L76.82 81.78L78.73 87.53L78.73 94.42L77.78 100.74L75.86 107.06Z" id="c4kvDrKAi"></path>
          <path d="M75.86 107.06L73.18 115.3L79.31 107.64L82.66 101.89L86.59 94.42L88.5 87.53L89.65 78.71L88.5 71.63L86.59 65.69L83.52 67.99L79.31 71.63L74.33 76.42L76.82 81.78L78.73 87.53L78.73 94.42L77.78 100.74L75.86 107.06Z" id="b1xDo0Wq1"></path>
          <path d="M75.86 107.06L73.18 115.3L79.31 107.64L82.66 101.89L86.59 94.42L88.5 87.53L89.65 78.71L88.5 71.63L86.59 65.69L83.52 67.99L79.31 71.63L74.33 76.42L76.82 81.78L78.73 87.53L78.73 94.42L77.78 100.74L75.86 107.06Z" id="f2JRp70hFT"></path>
          <path d="M75.86 107.06L73.18 115.3L79.31 107.64L82.66 101.89L86.59 94.42L88.5 87.53L89.65 78.71L88.5 71.63L86.59 65.69L83.52 67.99L79.31 71.63L74.33 76.42L76.82 81.78L78.73 87.53L78.73 94.42L77.78 100.74L75.86 107.06Z" id="a1sDmI1Fw4"></path>
          <path d="M75.86 107.06L73.18 115.3L79.31 107.64L82.66 101.89L86.59 94.42L88.5 87.53L89.65 78.71L88.5 71.63L86.59 65.69L83.52 67.99L79.31 71.63L74.33 76.42L76.82 81.78L78.73 87.53L78.73 94.42L77.78 100.74L75.86 107.06Z" id="gpCKVKdky"></path>
          <path d="M75.86 107.06L73.18 115.3L79.31 107.64L82.66 101.89L86.59 94.42L88.5 87.53L89.65 78.71L88.5 71.63L86.59 65.69L83.52 67.99L79.31 71.63L74.33 76.42L76.82 81.78L78.73 87.53L78.73 94.42L77.78 100.74L75.86 107.06Z" id="e5eNmJ5MjV"></path>
          <path d="M75.86 107.06L73.18 115.3L79.31 107.64L82.66 101.89L86.59 94.42L88.5 87.53L89.65 78.71L88.5 71.63L86.59 65.69L83.52 67.99L79.31 71.63L74.33 76.42L76.82 81.78L78.73 87.53L78.73 94.42L77.78 100.74L75.86 107.06Z" id="ali2ZrcmZ"></path>
          <path d="M75.86 107.06L73.18 115.3L79.31 107.64L82.66 101.89L86.59 94.42L88.5 87.53L89.65 78.71L88.5 71.63L86.59 65.69L83.52 67.99L79.31 71.63L74.33 76.42L76.82 81.78L78.73 87.53L78.73 94.42L77.78 100.74L75.86 107.06Z" id="cdbrJ0OWH"></path>
          <path d="M75.86 107.06L73.18 115.3L79.31 107.64L82.66 101.89L86.59 94.42L88.5 87.53L89.65 78.71L88.5 71.63L86.59 65.69L83.52 67.99L79.31 71.63L74.33 76.42L76.82 81.78L78.73 87.53L78.73 94.42L77.78 100.74L75.86 107.06Z" id="aJKhAKyK"></path>
          <path d="M75.86 107.06L73.18 115.3L79.31 107.64L82.66 101.89L86.59 94.42L88.5 87.53L89.65 78.71L88.5 71.63L86.59 65.69L83.52 67.99L79.31 71.63L74.33 76.42L76.82 81.78L78.73 87.53L78.73 94.42L77.78 100.74L75.86 107.06Z" id="a8een9z5Z"></path>
          <path d="M75.86 107.06L73.18 115.3L79.31 107.64L82.66 101.89L86.59 94.42L88.5 87.53L89.65 78.71L88.5 71.63L86.59 65.69L83.52 67.99L79.31 71.63L74.33 76.42L76.82 81.78L78.73 87.53L78.73 94.42L77.78 100.74L75.86 107.06Z" id="c1VDeTQmJT"></path>
          <path d="M75.86 107.06L73.18 115.3L79.31 107.64L82.66 101.89L86.59 94.42L88.5 87.53L89.65 78.71L88.5 71.63L86.59 65.69L83.52 67.99L79.31 71.63L74.33 76.42L76.82 81.78L78.73 87.53L78.73 94.42L77.78 100.74L75.86 107.06Z" id="g7oiLIijT"></path>
          <path d="M75.86 107.06L73.18 115.3L79.31 107.64L82.66 101.89L86.59 94.42L88.5 87.53L89.65 78.71L88.5 71.63L86.59 65.69L83.52 67.99L79.31 71.63L74.33 76.42L76.82 81.78L78.73 87.53L78.73 94.42L77.78 100.74L75.86 107.06Z" id="c2gGQ1DOfE"></path>
          <path d="M75.86 107.06L73.18 115.3L79.31 107.64L82.66 101.89L86.59 94.42L88.5 87.53L89.65 78.71L88.5 71.63L86.59 65.69L83.52 67.99L79.31 71.63L74.33 76.42L76.82 81.78L78.73 87.53L78.73 94.42L77.78 100.74L75.86 107.06Z" id="dwDprG5Dq"></path>
          <path d="M75.86 107.06L73.18 115.3L79.31 107.64L82.66 101.89L86.59 94.42L88.5 87.53L89.65 78.71L88.5 71.63L86.59 65.69L83.52 67.99L79.31 71.63L74.33 76.42L76.82 81.78L78.73 87.53L78.73 94.42L77.78 100.74L75.86 107.06Z" id="axxpqOYS3"></path>
          <path d="M57.86 87.72L50.96 82.93L39.28 77.18L27.4 72.58L16.29 69.14L17.82 65.69L19.93 58.03L21.46 50.75L21.84 43.47L32.76 49.98L44.45 57.07L53.83 63.39L60.92 69.14L66.48 75.07L70.31 80.63L73.18 87.14L73.75 94.04L72.6 101.51L70.31 110.13L67.24 117.41L66.48 110.13L66.48 103.81L64.94 98.06L63.03 93.46L57.86 87.72Z" id="fxXdSVlcq"></path>
          <path d="M57.86 87.72L50.96 82.93L39.28 77.18L27.4 72.58L16.29 69.14L17.82 65.69L19.93 58.03L21.46 50.75L21.84 43.47L32.76 49.98L44.45 57.07L53.83 63.39L60.92 69.14L66.48 75.07L70.31 80.63L73.18 87.14L73.75 94.04L72.6 101.51L70.31 110.13L67.24 117.41L66.48 110.13L66.48 103.81L64.94 98.06L63.03 93.46L57.86 87.72Z" id="a2aSkNycSp"></path>
          <path d="M57.86 87.72L50.96 82.93L39.28 77.18L27.4 72.58L16.29 69.14L17.82 65.69L19.93 58.03L21.46 50.75L21.84 43.47L32.76 49.98L44.45 57.07L53.83 63.39L60.92 69.14L66.48 75.07L70.31 80.63L73.18 87.14L73.75 94.04L72.6 101.51L70.31 110.13L67.24 117.41L66.48 110.13L66.48 103.81L64.94 98.06L63.03 93.46L57.86 87.72Z" id="a14iuGTkNl"></path>
          <path d="M57.86 87.72L50.96 82.93L39.28 77.18L27.4 72.58L16.29 69.14L17.82 65.69L19.93 58.03L21.46 50.75L21.84 43.47L32.76 49.98L44.45 57.07L53.83 63.39L60.92 69.14L66.48 75.07L70.31 80.63L73.18 87.14L73.75 94.04L72.6 101.51L70.31 110.13L67.24 117.41L66.48 110.13L66.48 103.81L64.94 98.06L63.03 93.46L57.86 87.72Z" id="g1b3YYmFL0"></path>
          <path d="M57.86 87.72L50.96 82.93L39.28 77.18L27.4 72.58L16.29 69.14L17.82 65.69L19.93 58.03L21.46 50.75L21.84 43.47L32.76 49.98L44.45 57.07L53.83 63.39L60.92 69.14L66.48 75.07L70.31 80.63L73.18 87.14L73.75 94.04L72.6 101.51L70.31 110.13L67.24 117.41L66.48 110.13L66.48 103.81L64.94 98.06L63.03 93.46L57.86 87.72Z" id="aRw8fzEob"></path>
          <path d="M57.86 87.72L50.96 82.93L39.28 77.18L27.4 72.58L16.29 69.14L17.82 65.69L19.93 58.03L21.46 50.75L21.84 43.47L32.76 49.98L44.45 57.07L53.83 63.39L60.92 69.14L66.48 75.07L70.31 80.63L73.18 87.14L73.75 94.04L72.6 101.51L70.31 110.13L67.24 117.41L66.48 110.13L66.48 103.81L64.94 98.06L63.03 93.46L57.86 87.72Z" id="e1DMQAglr9"></path>
          <path d="M57.86 87.72L50.96 82.93L39.28 77.18L27.4 72.58L16.29 69.14L17.82 65.69L19.93 58.03L21.46 50.75L21.84 43.47L32.76 49.98L44.45 57.07L53.83 63.39L60.92 69.14L66.48 75.07L70.31 80.63L73.18 87.14L73.75 94.04L72.6 101.51L70.31 110.13L67.24 117.41L66.48 110.13L66.48 103.81L64.94 98.06L63.03 93.46L57.86 87.72Z" id="apqamD1lm"></path>
          <path d="M57.86 87.72L50.96 82.93L39.28 77.18L27.4 72.58L16.29 69.14L17.82 65.69L19.93 58.03L21.46 50.75L21.84 43.47L32.76 49.98L44.45 57.07L53.83 63.39L60.92 69.14L66.48 75.07L70.31 80.63L73.18 87.14L73.75 94.04L72.6 101.51L70.31 110.13L67.24 117.41L66.48 110.13L66.48 103.81L64.94 98.06L63.03 93.46L57.86 87.72Z" id="a1sXzMXf7e"></path>
          <path d="M57.86 87.72L50.96 82.93L39.28 77.18L27.4 72.58L16.29 69.14L17.82 65.69L19.93 58.03L21.46 50.75L21.84 43.47L32.76 49.98L44.45 57.07L53.83 63.39L60.92 69.14L66.48 75.07L70.31 80.63L73.18 87.14L73.75 94.04L72.6 101.51L70.31 110.13L67.24 117.41L66.48 110.13L66.48 103.81L64.94 98.06L63.03 93.46L57.86 87.72Z" id="a1qNJ6x6q5"></path>
          <path d="M57.86 87.72L50.96 82.93L39.28 77.18L27.4 72.58L16.29 69.14L17.82 65.69L19.93 58.03L21.46 50.75L21.84 43.47L32.76 49.98L44.45 57.07L53.83 63.39L60.92 69.14L66.48 75.07L70.31 80.63L73.18 87.14L73.75 94.04L72.6 101.51L70.31 110.13L67.24 117.41L66.48 110.13L66.48 103.81L64.94 98.06L63.03 93.46L57.86 87.72Z" id="e6ty275hN"></path>
          <path d="M57.86 87.72L50.96 82.93L39.28 77.18L27.4 72.58L16.29 69.14L17.82 65.69L19.93 58.03L21.46 50.75L21.84 43.47L32.76 49.98L44.45 57.07L53.83 63.39L60.92 69.14L66.48 75.07L70.31 80.63L73.18 87.14L73.75 94.04L72.6 101.51L70.31 110.13L67.24 117.41L66.48 110.13L66.48 103.81L64.94 98.06L63.03 93.46L57.86 87.72Z" id="a1knaboExO"></path>
          <path d="M57.86 87.72L50.96 82.93L39.28 77.18L27.4 72.58L16.29 69.14L17.82 65.69L19.93 58.03L21.46 50.75L21.84 43.47L32.76 49.98L44.45 57.07L53.83 63.39L60.92 69.14L66.48 75.07L70.31 80.63L73.18 87.14L73.75 94.04L72.6 101.51L70.31 110.13L67.24 117.41L66.48 110.13L66.48 103.81L64.94 98.06L63.03 93.46L57.86 87.72Z" id="a1iOKtXQgH"></path>
          <path d="M57.86 87.72L50.96 82.93L39.28 77.18L27.4 72.58L16.29 69.14L17.82 65.69L19.93 58.03L21.46 50.75L21.84 43.47L32.76 49.98L44.45 57.07L53.83 63.39L60.92 69.14L66.48 75.07L70.31 80.63L73.18 87.14L73.75 94.04L72.6 101.51L70.31 110.13L67.24 117.41L66.48 110.13L66.48 103.81L64.94 98.06L63.03 93.46L57.86 87.72Z" id="bBzlx59RW"></path>
          <path d="M57.86 87.72L50.96 82.93L39.28 77.18L27.4 72.58L16.29 69.14L17.82 65.69L19.93 58.03L21.46 50.75L21.84 43.47L32.76 49.98L44.45 57.07L53.83 63.39L60.92 69.14L66.48 75.07L70.31 80.63L73.18 87.14L73.75 94.04L72.6 101.51L70.31 110.13L67.24 117.41L66.48 110.13L66.48 103.81L64.94 98.06L63.03 93.46L57.86 87.72Z" id="e1h4wOMaYH"></path>
          <path d="M57.86 87.72L50.96 82.93L39.28 77.18L27.4 72.58L16.29 69.14L17.82 65.69L19.93 58.03L21.46 50.75L21.84 43.47L32.76 49.98L44.45 57.07L53.83 63.39L60.92 69.14L66.48 75.07L70.31 80.63L73.18 87.14L73.75 94.04L72.6 101.51L70.31 110.13L67.24 117.41L66.48 110.13L66.48 103.81L64.94 98.06L63.03 93.46L57.86 87.72Z" id="d1GiazmS5D"></path>
          <path d="M57.86 87.72L50.96 82.93L39.28 77.18L27.4 72.58L16.29 69.14L17.82 65.69L19.93 58.03L21.46 50.75L21.84 43.47L32.76 49.98L44.45 57.07L53.83 63.39L60.92 69.14L66.48 75.07L70.31 80.63L73.18 87.14L73.75 94.04L72.6 101.51L70.31 110.13L67.24 117.41L66.48 110.13L66.48 103.81L64.94 98.06L63.03 93.46L57.86 87.72Z" id="b4dEMcuBX"></path>
          <path d="M49.74 88.52L52.38 89.83L55.49 92.47L58.96 96.06L61.24 101.45L62.07 107.68L62.07 114.5L58.6 109.47L55.49 103.85L52.73 98.58L51.18 93.79L49.74 88.52Z" id="d95nTRMo4"></path>
          <path d="M49.74 88.52L52.38 89.83L55.49 92.47L58.96 96.06L61.24 101.45L62.07 107.68L62.07 114.5L58.6 109.47L55.49 103.85L52.73 98.58L51.18 93.79L49.74 88.52Z" id="a2iKaBuu"></path>
          <path d="M49.74 88.52L52.38 89.83L55.49 92.47L58.96 96.06L61.24 101.45L62.07 107.68L62.07 114.5L58.6 109.47L55.49 103.85L52.73 98.58L51.18 93.79L49.74 88.52Z" id="ctHu6XyvM"></path>
          <path d="M49.74 88.52L52.38 89.83L55.49 92.47L58.96 96.06L61.24 101.45L62.07 107.68L62.07 114.5L58.6 109.47L55.49 103.85L52.73 98.58L51.18 93.79L49.74 88.52Z" id="h1fewrNbae"></path>
          <path d="M49.74 88.52L52.38 89.83L55.49 92.47L58.96 96.06L61.24 101.45L62.07 107.68L62.07 114.5L58.6 109.47L55.49 103.85L52.73 98.58L51.18 93.79L49.74 88.52Z" id="f3unReVhce"></path>
          <path d="M49.74 88.52L52.38 89.83L55.49 92.47L58.96 96.06L61.24 101.45L62.07 107.68L62.07 114.5L58.6 109.47L55.49 103.85L52.73 98.58L51.18 93.79L49.74 88.52Z" id="bV7FQM5ke"></path>
          <path d="M49.74 88.52L52.38 89.83L55.49 92.47L58.96 96.06L61.24 101.45L62.07 107.68L62.07 114.5L58.6 109.47L55.49 103.85L52.73 98.58L51.18 93.79L49.74 88.52Z" id="arOWntc4J"></path>
          <path d="M49.74 88.52L52.38 89.83L55.49 92.47L58.96 96.06L61.24 101.45L62.07 107.68L62.07 114.5L58.6 109.47L55.49 103.85L52.73 98.58L51.18 93.79L49.74 88.52Z" id="dA0IvcsEn"></path>
          <path d="M49.74 88.52L52.38 89.83L55.49 92.47L58.96 96.06L61.24 101.45L62.07 107.68L62.07 114.5L58.6 109.47L55.49 103.85L52.73 98.58L51.18 93.79L49.74 88.52Z" id="euUKIWF1Z"></path>
          <path d="M49.74 88.52L52.38 89.83L55.49 92.47L58.96 96.06L61.24 101.45L62.07 107.68L62.07 114.5L58.6 109.47L55.49 103.85L52.73 98.58L51.18 93.79L49.74 88.52Z" id="b3RaclfHDv"></path>
          <path d="M49.74 88.52L52.38 89.83L55.49 92.47L58.96 96.06L61.24 101.45L62.07 107.68L62.07 114.5L58.6 109.47L55.49 103.85L52.73 98.58L51.18 93.79L49.74 88.52Z" id="a689yeK6KJ"></path>
          <path d="M49.74 88.52L52.38 89.83L55.49 92.47L58.96 96.06L61.24 101.45L62.07 107.68L62.07 114.5L58.6 109.47L55.49 103.85L52.73 98.58L51.18 93.79L49.74 88.52Z" id="g1B6QMG7kO"></path>
          <path d="M49.74 88.52L52.38 89.83L55.49 92.47L58.96 96.06L61.24 101.45L62.07 107.68L62.07 114.5L58.6 109.47L55.49 103.85L52.73 98.58L51.18 93.79L49.74 88.52Z" id="adSuPPbDJ"></path>
          <path d="M49.74 88.52L52.38 89.83L55.49 92.47L58.96 96.06L61.24 101.45L62.07 107.68L62.07 114.5L58.6 109.47L55.49 103.85L52.73 98.58L51.18 93.79L49.74 88.52Z" id="d2U57oulZy"></path>
          <path d="M49.74 88.52L52.38 89.83L55.49 92.47L58.96 96.06L61.24 101.45L62.07 107.68L62.07 114.5L58.6 109.47L55.49 103.85L52.73 98.58L51.18 93.79L49.74 88.52Z" id="k1rKJRgPpK"></path>
          <path d="M49.74 88.52L52.38 89.83L55.49 92.47L58.96 96.06L61.24 101.45L62.07 107.68L62.07 114.5L58.6 109.47L55.49 103.85L52.73 98.58L51.18 93.79L49.74 88.52Z" id="h1eGIzao0s"></path>
          <path d="M15.67 92.85L36.58 89.1L34.6 110.26L28.6 104.74L16.45 117.94L9.51 111.56L21.65 98.35L15.67 92.85Z" id="c4gIgQO61s"></path>
        </g>
      </symbol>

</svg>
