<svg xmlns="http://www.w3.org/2000/svg" xmlns:xlink="http://www.w3.org/1999/xlink">
  <symbol id="icon-hud" viewBox="0 0 20 22">
    <title>HUD</title>
    <g id="icon-hud-group" fill="none" stroke-width="1" stroke-linecap="round" stroke-linejoin="round">
      <path id="icon-hud-dashes" d="m14.5,2.75 2,0 a2.5 2.5 0 0 1 2.5 2.5 l0,13.25 a2.5 2.5 0 0 1 -2.5 2.5 l-11.5,0 a2.5 2.5 0 0 1 -2.5 -2.5 l0,-1" stroke-dasharray="1,3" />
      <path id="icon-hud-box" d="m0.5,2 0,14 a1.5 1.5 0 0 0 1.5 1.5 l12,0 a1.5 1.5 0 0 0 1.5 -1.5 l0,-14" />
      <path id="icon-hud-top" d="m2,2 12,0" stroke-width="4" />
      <path id="icon-hud-paralel" d="m4.4,7.5 7.2,0 m0,3 -7.2,0 m0,3 7.2,0" stroke-linecap="square" />
    </g>
  </symbol>
  <symbol id="icon-measurements-additional" viewBox="0 0 16 16">
    <title>Additional Measurements</title>
    <g id="icon-measurements-additional-group" stroke="none">
      <path id="icon-measurements-additional-boxes" d="M11,2 l1.85,-1.85 a1 1 0 0 1 1,0 l2,2 a1 1 0 0 1 0,1 l-1.85,1.85Z  M10,3 l-10,10 0,3 3,0 10,-10Z M16,16 l0,-2 -9,0 -2,2Z" />
    </g>
  </symbol>
  <symbol id="icon-measurements-lesions" viewBox="0 0 18 10">
    <title>Lesions</title>
    <g id="icon-measurements-lesions-group" stroke="none">
      <path id="icon-measurements-lesions-boxes" d="M0,0 2,0 2,2 0,2Z M4,0 18,0 18,2 4,2Z M0,4 2,4 2,6 0,6Z M4,4 18,4 18,6 4,6Z M0,8 2,8 2,10 0,10Z M4,8 18,8 18,10 4,10Z" />
    </g>
  </symbol>
  <symbol id="icon-settings" viewBox="0 0 15 15">
    <title>Settings</title>
    <path d="M12.85 8.25C12.85 8.03 12.93 7.8 12.93 7.5 12.93 7.2 12.93 6.98 12.85 6.75L14.43 5.48C14.58 5.33 14.58 5.18 14.5 5.03L13 2.4C12.93 2.33 12.78 2.25 12.55 2.33L10.68 3.08C10.3 2.78 9.85 2.55 9.4 2.33L9.1 0.38C9.18 0.15 8.95 0 8.8 0L5.8 0C5.65 0 5.43 0.15 5.43 0.3L5.13 2.33C4.68 2.48 4.3 2.78 3.85 3.08L2.05 2.33C1.83 2.25 1.68 2.33 1.53 2.48L0.03 5.1C-0.05 5.18 0.03 5.4 0.18 5.55L1.75 6.75C1.75 6.98 1.68 7.2 1.68 7.5 1.68 7.8 1.68 8.03 1.75 8.25L0.18 9.53C0.03 9.68 0.03 9.82 0.1 9.98L1.6 12.6C1.68 12.68 1.83 12.75 2.05 12.68L3.93 11.93C4.3 12.23 4.75 12.45 5.2 12.68L5.5 14.63C5.5 14.78 5.65 14.93 5.88 14.93L8.88 14.93C9.03 14.93 9.25 14.78 9.25 14.63L9.55 12.68C10 12.45 10.45 12.23 10.83 11.93L12.7 12.68C12.85 12.75 13.08 12.68 13.15 12.53L14.65 9.9C14.73 9.75 14.73 9.53 14.58 9.45L12.85 8.25 12.85 8.25ZM7.3 10.13C5.88 10.13 4.68 8.93 4.68 7.5 4.68 6.08 5.88 4.88 7.3 4.88 8.73 4.88 9.93 6.08 9.93 7.5 9.93 8.93 8.73 10.13 7.3 10.13L7.3 10.13Z" id="Shape"/>
  </symbol>
  <symbol id="icon-status-complete" viewBox="0 0 27 27">
    <title>Complete</title>
    <g id="icon-status-complete-group" stroke="none">
      <path id="icon-status-complete-circle" d="M13.5,0 a13.5 13.5 0 0 1 0 27 a13.5 13.5 0 0 1 0 -27 M23,8 l-2,-2 -10,10, -5,-5 -2,2 7,7Z" />
    </g>
  </symbol>
  <symbol id="icon-status-lock" viewBox="0 0 16 21">
    <title>Locked</title>
    <path d="M14 7L13 7 13 5C13 2.2 10.8 0 8 0 5.2 0 3 2.2 3 5L3 7 2 7C0.9 7 0 7.9 0 9L0 19C0 20.1 0.9 21 2 21L14 21C15.1 21 16 20.1 16 19L16 9C16 7.9 15.1 7 14 7L14 7ZM11.1 7L4.9 7 4.9 5C4.9 3.3 6.3 1.9 8 1.9 9.7 1.9 11.1 3.3 11.1 5L11.1 7 11.1 7Z"/>
  </symbol>
  <symbol id="icon-studies" viewBox="0 0 15 13">
    <title>Studies</title>
    <g id="icon-studies-group" stroke="none">
      <path id="icon-studies-boxes" d="M0,0 7,0 7,6 0,6Z M8,0 15,0 15,6 8,6Z M0,7 7,7 7,13 0,13Z M8,7 15,7 15,13 8,13Z" />
    </g>
  </symbol>
  <symbol id="icon-tools-levels" viewBox="0 0 18 18">
    <title>Window / Level</title>
    <g id="icon-tools-levels-group">
      <path id="icon-tools-levels-path" d="M14.5,3.5 a1 1 0 0 1 -11,11 Z" stroke="none" opacity="0.8" />
      <circle id="icon-tools-levels-circle" cx="9" cy="9" r="8" fill="none" stroke-width="2" />
    </g>
  </symbol>
  <symbol id="icon-tools-link" viewBox="0 0 23 15">
    <title>Link</title>
    <g id="icon-tools-link-group" stroke="none">
      <circle id="icon-tools-link-circle-l" opacity="0.8" cx="7.5" cy="7.5" r="7.5" />
      <circle id="icon-tools-link-circle-r" opacity="0.6" cx="15.5" cy="7.5" r="7.5" />
    </g>
  </symbol>
  <symbol id="icon-tools-measure-non-target" viewBox="0 0 24 24">
    <title>Non-Target Measurement</title>
    <g id="icon-tools-measure-non-target-group" fill="none" stroke-width="1" stroke-linecap="round" stroke-linejoin="round">
      <circle id="icon-tools-measure-non-target-circle" cx="6.5" cy="6.5" r="6" />
      <path id="icon-tools-measure-non-target-plus" d="M6.5,3 l0,7 M3,6.5 l7,0"></path>
      <path id="icon-tools-measure-non-target-arrow" d="M23,7 l-15,15 M7,17 l0,6 6,0" stroke-width="2" />
    </g>
  </symbol>
  <symbol id="icon-tools-measure-target" viewBox="0 0 26 26">
    <title>Target Measurement</title>
    <g id="icon-tools-measure-target-group" stroke-width="0">
      <path id="icon-tools-measure-target-ruler" d="m9.5,26 2,-2 -1.5,-1.5 0.5,-0.5 1.5,1.5 1.5,-1.5 -2.5,-2.5 0.5,-0.5 2.5,2.5 1.5,-1.5 -1.5,-1.5 0.5,-0.5 1.5,1.5 1.5,-1.5 -2.5,-2.5 0.5,-0.5 2.5,2.5 1.5,-1.5 -1.5,-1.5 0.5,-0.5 1.5,1.5 1.5,-1.5 -2.5,-2.5 0.5,-0.5 2.5,2.5 1.5,-1.5 -1.5,-1.5 0.5,-0.5 1.5,1.5 2,-2 -4,-4 a2 2 0 0 0 -2.5 0 l-14 14 a2 2 0 0 0 0 2.5 l4,4 Z" />
      <path id="icon-tools-measure-target-plus" d="m6,0 a6 6 0 0 1 0 12 a6 6 0 0 1 0 -12 m0.5,3 a0.5 0.5 0 0 0 -1 0 l0,2.5 -2.5,0 a0.5 0.5 0 0 0 0 1 l2.5,0 0,2.5 a0.5 0.5 0 0 0 1 0 l0,-2.5 2.5,0 a0.5 0.5 0 0 0 0 -1 l-2.5,0 z" />
    </g>
  </symbol>
  <symbol id="icon-tools-measure-target-cr" viewBox="0 0 24 24">
    <title>Target CR Measurement</title>
    <g id="icon-tools-measure-target-cr-group" fill="none" stroke-width="1" stroke-linecap="round" stroke-linejoin="round">
      <text id="icon-tools-measure-target-cr-text" fill="#000000" x="0" y="8" style="font-size:10px; font-family:sans-serif">CR</text>
      <path id="icon-tools-measure-target-cr-arrow" d="M23,7 l-15,15 M7,17 l0,6 6,0" stroke-width="2" />
    </g>
  </symbol>
  <symbol id="icon-tools-measure-target-un" viewBox="0 0 24 24">
    <title>Target UN Measurement</title>
    <g id="icon-tools-measure-target-un-group" fill="none" stroke-width="1" stroke-linecap="round" stroke-linejoin="round">
      <text id="icon-tools-measure-target-un-text" fill="#000000" x="0" y="8" style="font-size:10px; font-family:sans-serif">UN</text>
      <path id="icon-tools-measure-target-un-arrow" d="M23,7 l-15,15 M7,17 l0,6 6,0" stroke-width="2" />
    </g>
  </symbol>
  <symbol id="icon-tools-measure-temp" viewBox="0 0 24 24">
    <title>Temporary Measurement</title>
    <g id="icon-tools-measure-temp-group" fill="none" stroke-width="1" stroke-linecap="round" stroke-linejoin="round">
      <circle id="icon-tools-measure-temp-circle" cx="6.5" cy="6.5" r="6" />
      <path id="icon-tools-measure-temp-plus" d="M6.5,3 l0,7 M3,6.5 l7,0"></path>
      <path id="icon-tools-measure-temp-dashes" d="m22.5,6 -16.5,16.5" stroke-width="3" stroke-dasharray="0.6666,5" />
    </g>
  </symbol>
  <symbol id="icon-tools-more" viewBox="0 0 18 18">
    <title>More</title>
    <g id="icon-tools-more-group" stroke="none">
      <path id="icon-tools-more-circle" d="M9,0 a9 9 0 0 1 0 18 a9 9 0 0 1 0 -18 M4.5,8 a1.5 1.5 0 0 0 0 3 a1.5 1.5 0 0 0 0 -3 M9,8 a1.5 1.5 0 0 0 0 3 a1.5 1.5 0 0 0 0 -3  M13.5,8 a1.5 1.5 0 0 0 0 3 a1.5 1.5 0 0 0 0 -3" />
    </g>
  </symbol>
  <symbol id="icon-tools-pan" viewBox="0 0 18 18">
    <title>Pan</title>
    <g id="icon-tools-pan-group" fill="none" stroke-width="2" stroke-linecap="round" stroke-linejoin="round">
      <path id="icon-tools-pan-line-v" d="M9,1 L9,17"></path>
      <path id="icon-tools-pan-line-h" d="M1,9 L17,9"></path>
      <polyline id="icon-tools-pan-caret-t" points="7 3 9 1 11 3"></polyline>
      <polyline id="icon-tools-pan-caret-r" points="15 11 17 9 15 7"></polyline>
      <polyline id="icon-tools-pan-caret-b" points="11 15 9 17 7 15"></polyline>
      <polyline id="icon-tools-pan-caret-l" points="3 7 1 9 3 11"></polyline>
    </g>
  </symbol>
  <symbol id="icon-tools-zoom" viewBox="0 0 17 17">
    <title>Zoom</title>
    <g id="icon-tools-zoom-group" fill="none" stroke-width="2" stroke-linecap="round">
      <path id="icon-tools-zoom-path" d="m11.5,11.5 4.5,4.5" />
      <circle id="icon-tools-zoom-circle" cx="7" cy="7" r="6" />
    </g>
  </symbol>
  <symbol id="icon-tools-invert" viewBox="0 0 24 28">
    <title>Invert</title>
    <path d="M12 22.5v-17c-4.688 0-8.5 3.813-8.5 8.5s3.813 8.5 8.5 8.5zM24 14c0 6.625-5.375 12-12 12s-12-5.375-12-12 5.375-12 12-12 12 5.375 12 12z"></path>
  </symbol>
  <symbol id="icon-tools-stack-scroll" viewBox="0 0 24 28">
    <title>Stack Scroll</title>
    <path d="M24 21v2c0 0.547-0.453 1-1 1h-22c-0.547 0-1-0.453-1-1v-2c0-0.547 0.453-1 1-1h22c0.547 0 1 0.453 1 1zM24 13v2c0 0.547-0.453 1-1 1h-22c-0.547 0-1-0.453-1-1v-2c0-0.547 0.453-1 1-1h22c0.547 0 1 0.453 1 1zM24 5v2c0 0.547-0.453 1-1 1h-22c-0.547 0-1-0.453-1-1v-2c0-0.547 0.453-1 1-1h22c0.547 0 1 0.453 1 1z"></path>
  </symbol>
  <symbol id="icon-tools-elliptical-roi" viewBox="0 0 24 28">
    <title>Elliptical ROI</title>
    <path d="M12 5.5c-4.688 0-8.5 3.813-8.5 8.5s3.813 8.5 8.5 8.5 8.5-3.813 8.5-8.5-3.813-8.5-8.5-8.5zM24 14c0 6.625-5.375 12-12 12s-12-5.375-12-12 5.375-12 12-12v0c6.625 0 12 5.375 12 12z"></path>
  </symbol>
  <symbol id="icon-tools-magnify" viewBox="0 0 24 28">
    <title>Magnify</title>
    <path d="M24 14c0 6.625-5.375 12-12 12s-12-5.375-12-12 5.375-12 12-12 12 5.375 12 12z"></path>
  </symbol>
  <symbol id="icon-tools-reset" viewBox="0 0 24 28">
    <title>Reset</title>
    <path d="M24 14c0 6.609-5.391 12-12 12-3.578 0-6.953-1.578-9.234-4.328-0.156-0.203-0.141-0.5 0.031-0.672l2.141-2.156c0.109-0.094 0.25-0.141 0.391-0.141 0.141 0.016 0.281 0.078 0.359 0.187 1.531 1.984 3.828 3.109 6.312 3.109 4.406 0 8-3.594 8-8s-3.594-8-8-8c-2.047 0-3.984 0.781-5.437 2.141l2.141 2.156c0.297 0.281 0.375 0.719 0.219 1.078-0.156 0.375-0.516 0.625-0.922 0.625h-7c-0.547 0-1-0.453-1-1v-7c0-0.406 0.25-0.766 0.625-0.922 0.359-0.156 0.797-0.078 1.078 0.219l2.031 2.016c2.203-2.078 5.187-3.313 8.266-3.313 6.609 0 12 5.391 12 12z"></path>
  </symbol>
  <symbol id="icon-tools-rotate" viewBox="0 0 24 28">
    <title>Rotate</title>
    <path d="M24 4v7c0 0.547-0.453 1-1 1h-7c-0.406 0-0.766-0.25-0.922-0.625-0.156-0.359-0.078-0.797 0.219-1.078l2.156-2.156c-1.469-1.359-3.406-2.141-5.453-2.141-4.406 0-8 3.594-8 8s3.594 8 8 8c2.484 0 4.781-1.125 6.312-3.109 0.078-0.109 0.219-0.172 0.359-0.187 0.141 0 0.281 0.047 0.391 0.141l2.141 2.156c0.187 0.172 0.187 0.469 0.031 0.672-2.281 2.75-5.656 4.328-9.234 4.328-6.609 0-12-5.391-12-12s5.391-12 12-12c3.078 0 6.062 1.234 8.266 3.313l2.031-2.016c0.281-0.297 0.719-0.375 1.094-0.219 0.359 0.156 0.609 0.516 0.609 0.922z"></path>
  </symbol>
  <symbol id="icon-tools-rotate-right" viewBox="0 0 24 24">
    <title>Rotate Right</title>
    <path d="M16.875 15.469c0.563-0.75 0.891-1.594 1.031-2.484h2.016c-0.188 1.406-0.703 2.719-1.594 3.891zM12.984 17.906c0.891-0.141 1.734-0.469 2.484-1.031l1.453 1.453c-1.172 0.891-2.531 1.406-3.938 1.594v-2.016zM19.922 11.016h-2.016c-0.141-0.891-0.469-1.734-1.031-2.484l1.453-1.406c0.891 1.172 1.406 2.484 1.594 3.891zM15.563 5.531l-4.547 4.453v-3.891c-2.859 0.469-5.016 2.953-5.016 5.906s2.156 5.438 5.016 5.906v2.016c-3.938-0.469-7.031-3.844-7.031-7.922s3.094-7.453 7.031-7.922v-3.094z"></path>
  </symbol>
  <symbol id="icon-tools-cineplay-toggle" viewBox="0 0 28 28">
    <title>Cineplay Toggle</title>
    <path d="M11.109 17.625l7.562-3.906-7.562-3.953v7.859zM14 4.156c5.891 0 9.797 0.281 9.797 0.281 0.547 0.063 1.75 0.063 2.812 1.188 0 0 0.859 0.844 1.109 2.781 0.297 2.266 0.281 4.531 0.281 4.531v2.125s0.016 2.266-0.281 4.531c-0.25 1.922-1.109 2.781-1.109 2.781-1.062 1.109-2.266 1.109-2.812 1.172 0 0-3.906 0.297-9.797 0.297v0c-7.281-0.063-9.516-0.281-9.516-0.281-0.625-0.109-2.031-0.078-3.094-1.188 0 0-0.859-0.859-1.109-2.781-0.297-2.266-0.281-4.531-0.281-4.531v-2.125s-0.016-2.266 0.281-4.531c0.25-1.937 1.109-2.781 1.109-2.781 1.062-1.125 2.266-1.125 2.812-1.188 0 0 3.906-0.281 9.797-0.281v0z"></path>
  </symbol>
  <symbol id="icon-tools-flip-vertical" viewBox="0 0 6 28">
    <title>Vertical</title>
    <path d="M6 19.5v3c0 0.828-0.672 1.5-1.5 1.5h-3c-0.828 0-1.5-0.672-1.5-1.5v-3c0-0.828 0.672-1.5 1.5-1.5h3c0.828 0 1.5 0.672 1.5 1.5zM6 11.5v3c0 0.828-0.672 1.5-1.5 1.5h-3c-0.828 0-1.5-0.672-1.5-1.5v-3c0-0.828 0.672-1.5 1.5-1.5h3c0.828 0 1.5 0.672 1.5 1.5zM6 3.5v3c0 0.828-0.672 1.5-1.5 1.5h-3c-0.828 0-1.5-0.672-1.5-1.5v-3c0-0.828 0.672-1.5 1.5-1.5h3c0.828 0 1.5 0.672 1.5 1.5z"></path>
  </symbol>
  <symbol id="icon-tools-flip-horizontal" viewBox="0 0 22 28">
    <title>Horizontal</title>
    <path d="M6 11.5v3c0 0.828-0.672 1.5-1.5 1.5h-3c-0.828 0-1.5-0.672-1.5-1.5v-3c0-0.828 0.672-1.5 1.5-1.5h3c0.828 0 1.5 0.672 1.5 1.5zM14 11.5v3c0 0.828-0.672 1.5-1.5 1.5h-3c-0.828 0-1.5-0.672-1.5-1.5v-3c0-0.828 0.672-1.5 1.5-1.5h3c0.828 0 1.5 0.672 1.5 1.5zM22 11.5v3c0 0.828-0.672 1.5-1.5 1.5h-3c-0.828 0-1.5-0.672-1.5-1.5v-3c0-0.828 0.672-1.5 1.5-1.5h3c0.828 0 1.5 0.672 1.5 1.5z"></path>
  </symbol>
  <symbol id="icon-trial-info" viewBox="0 0 20 20">
    <title>Trial Information</title>
    <g id="icon-trial-info-group" fill="none" stroke-width="2">
      <path id="icon-trial-info-circle" d="M10,1 a9 9 0 0 1 0 18 a9 9 0 0 1 0 -18 M10,5 l0,2 m0,2 0,6" />
    </g>
  </symbol>
  <symbol id="icon-ui-accordion-expand" viewBox="0 0 12 8">
    <title>Expand</title>
    <polygon transform="translate(6.000000, 3.700000) rotate(-270.000000) translate(-6.000000, -3.700000) " points="3.7 -2.3 2.3 -0.9 6.9 3.7 2.3 8.3 3.7 9.7 9.7 3.7"/>
  </symbol>
  <symbol id="icon-ui-add" viewBox="0 0 12 13">
    <title>Add</title>
    <path d="M6.5 7L6.5 12C6.5 12.28 6.28 12.5 6 12.5 5.72 12.5 5.5 12.28 5.5 12L5.5 7 0.5 7C0.22 7 0 6.78 0 6.5 0 6.22 0.22 6 0.5 6L5.5 6 5.5 1C5.5 0.72 5.72 0.5 6 0.5 6.28 0.5 6.5 0.72 6.5 1L6.5 6 11.5 6C11.78 6 12 6.22 12 6.5 12 6.78 11.78 7 11.5 7L6.5 7Z" id="Combined-Shape"/>
  </symbol>
  <symbol id="icon-ui-close" viewBox="0 0 14 14">
    <title>Close</title>
    <g id="icon-ui-close-group" stroke-width="1.75">
        <path id="icon-ui-close-path" d="M1,1 13,13 M1,13 13,1" />
    </g>
  </symbol>
  <symbol id="icon-create-comment" viewBox="0 0 37 34">
    <title>Comment</title>
    <path fill="#94a8b3" d="M22.32 14L35 14C36.1 14 37 14.9 37 16L37 28C37 29.1 36.1 30 35 30L21 30 17 34 17 20.39C19.45 18.97 21.36 16.71 22.32 14Z" id="Combined-Shape"/>
    <path d="M10 0C4.5 0 0 4.5 0 10 0 15.5 4.5 20 10 20 15.5 20 20 15.5 20 10 20 4.5 15.5 0 10 0L10 0ZM15 11L11 11 11 15 9 15 9 11 5 11 5 9 9 9 9 5 11 5 11 9 15 9 15 11 15 11Z" id="Shape"/>
  </symbol>
  <symbol id="icon-create-screen-capture" viewBox="0 0 37 35">
    <title>Capture Screen</title>
    <g id="camera-alt" transform="translate(17.000000, 17.000000)" fill="#94a8b3">
      <path d="M10 13C11.66 13 13 11.66 13 10 13 8.34 11.66 7 10 7 8.34 7 7 8.34 7 10 7 11.66 8.34 13 10 13Z" id="Oval"/>
      <path d="M7 0L5.2 2 2 2C0.9 2 0 2.9 0 4L0 16C0 17.1 0.9 18 2 18L18 18C19.1 18 20 17.1 20 16L20 4C20 2.9 19.1 2 18 2L14.8 2 13 0 7 0 7 0ZM10 15C7.2 15 5 12.8 5 10 5 7.2 7.2 5 10 5 12.8 5 15 7.2 15 10 15 12.8 12.8 15 10 15L10 15Z" id="Shape"/>
    </g>
    <path d="M10 0C4.5 0 0 4.5 0 10 0 15.5 4.5 20 10 20 15.5 20 20 15.5 20 10 20 4.5 15.5 0 10 0L10 0ZM15 11L11 11 11 15 9 15 9 11 5 11 5 9 9 9 9 5 11 5 11 9 15 9 15 11 15 11Z" id="Shape"/>
  </symbol>
  <symbol id="icon-ui-warning" viewBox="0 0 22 20">
    <title>Warning</title>
    <g id="icon-ui-warning-group" stroke="none">
      <path d="m11,0 11,20 -22,0Z m1,7 -2,0 0,6 2,0Z m0,8 -2,0 0,2 2,0Z" />
    </g>
  </symbol>
  <symbol id="icon-ohif-logo" viewBox="0 0 47 47">
    <title>Open Health Imaging Foundation</title>
    <g id="icon-ohif-logo" stroke="#fff" stroke-width="2.5" stroke-miterlimit="10">
      <rect x="1.25" y="1.25" width="18.8" height="18.8" rx="1" ry="1"/>
      <rect x="26" y="1.25" width="18.8" height="18.8" rx="1" ry="1"/>
      <rect x="1.25" y="26" width="18.8" height="18.8" rx="1" ry="1"/>
      <rect x="26" y="26" width="18.8" height="18.8" rx="1" ry="1"/>
    </g>
  </symbol>
  <symbol id="icon-viewport-link" viewBox="0 0 32 32">
    <title>Viewport Link</title>
    <g id="icon-viewport-link-group" stroke="none">
      <path d="m5.364 28.917c1.047 1.046 2.422 1.57 3.797 1.57 1.376 0 2.751-0.523 3.798-1.572l7.552-7.554c1.016-1.014 1.574-2.361 1.574-3.797 -0.001-1.432-0.558-2.781-1.574-3.796l-2.297-2.298 -2.009 2.009 2.297 2.298c0.478 0.478 0.741 1.113 0.741 1.788 0 0.674-0.264 1.309-0.741 1.786l-7.553 7.555c-0.987 0.985-2.59 0.985-3.576 0l-2.297-2.298c-0.987-0.985-0.987-2.589 0-3.576l3.775-3.776 -2.009-2.009 -3.776 3.776c-2.094 2.096-2.092 5.502 0 7.595l2.299 2.3zM26.695 2.992"/>
      <path d="m26.695 2.992c-1.014-1.016-2.362-1.575-3.797-1.575 -0.001 0-0.001 0-0.002 0 -1.435 0-2.784 0.56-3.798 1.573l-7.551 7.553c-1.017 1.016-1.576 2.363-1.576 3.799 0 1.434 0.558 2.784 1.574 3.797l2.297 2.297 2.01-2.009 -2.298-2.297c-0.477-0.477-0.741-1.113-0.741-1.788 0-0.676 0.265-1.311 0.742-1.788l7.553-7.555c0.477-0.477 1.111-0.74 1.789-0.74 0 0 0 0 0.001 0 0.674 0 1.309 0.264 1.786 0.74l2.297 2.299c0.477 0.477 0.74 1.111 0.74 1.788 0 0.674-0.264 1.311-0.74 1.788l-3.776 3.777 2.009 2.009 3.776-3.777c1.014-1.013 1.573-2.363 1.574-3.797 0-1.435-0.56-2.784-1.574-3.797l-2.295-2.296z"/>
    </g>
  </symbol>
  <symbol id="icon-freehand-menu" viewBox="0 0 18 18">
    <title>ROI</title>
    <g id="icon-freehand-menu" fill="none" stroke-width="1.5" stroke-linecap="round" stroke-linejoin="round">
      <line id="svg_4" y2="9.12785" x2="2.045199" y1="2.602749" x1="5.482813"/>
      <line id="svg_5" y2="16.607843" x2="6.565024" y1="9.509807" x1="2.204347"/>
      <line id="svg_6" y2="16.003078" x2="14.267826" y1="16.576014" x1="6.692343"/>
      <line id="svg_7" y2="10.942146" x2="15.572846" y1="15.939418" x1="14.331486"/>
      <line id="svg_8" y2="2.825558" x2="13.058295" y1="2.889217" x1="5.641961"/>
      <line id="svg_9" y2="7.568192" x2="15.795655" y1="3.398493" x1="12.930976"/>
      <line id="svg_10" y2="11.037635" x2="15.509187" y1="7.727341" x1="15.700165"/>
     </g>
   </symbol>

   <symbol id="icon-freehand-menu-help" viewBox="0 0 18 18">
     <title>ROI</title>
     <g id="icon-freehand-menu-help" fill="none" stroke-width="1.5" stroke-linecap="round" stroke-linejoin="round">
       <line id="svg_4" y2="9.12785" x2="2.045199" y1="2.602749" x1="5.482813"/>
       <line id="svg_5" y2="16.607843" x2="6.565024" y1="9.509807" x1="2.204347"/>
       <line id="svg_6" y2="16.003078" x2="14.267826" y1="16.576014" x1="6.692343"/>
       <line id="svg_7" y2="10.942146" x2="15.572846" y1="15.939418" x1="14.331486"/>
       <line id="svg_8" y2="2.825558" x2="13.058295" y1="2.889217" x1="5.641961"/>
       <line id="svg_9" y2="7.568192" x2="15.795655" y1="3.398493" x1="12.930976"/>
       <line id="svg_10" y2="11.037635" x2="15.509187" y1="7.727341" x1="15.700165"/>
       <text xml:space="preserve" text-anchor="start" font-family="Helvetica, Arial, sans-serif" font-size="13" id="svg_16" y="14.029172" x="5.761269">?</text>
      </g>
    </symbol>

   <symbol id="icon-freehand-draw" viewBox="0 0 18 18">
     <title>Draw</title>
     <g id="icon-freehand-draw" fill="none" stroke-width="1.5" stroke-linecap="round" stroke-linejoin="round">
       <ellipse ry="1" rx="1" id="svg_3" cy="4.240343" cx="14.306499"/>
       <line id="svg_4" y2="3.58462" x2="12.242186" y1="3.997482" x1="13.432202"/>
       <line id="svg_5" y2="3.268901" x2="10.857882" y1="3.608906" x1="12.387902"/>
       <line id="svg_6" y2="3.147471" x2="9.740724" y1="3.293187" x1="10.955026"/>
       <line id="svg_7" y2="3.147471" x2="8.089274" y1="3.196043" x1="9.983585"/>
       <line id="svg_8" y2="3.268901" x2="6.874972" y1="3.123185" x1="8.307848"/>
       <line id="svg_9" y2="3.657478" x2="5.587812" y1="3.220329" x1="7.020688"/>
       <line id="svg_10" y2="4.046054" x2="4.737801" y1="3.560334" x1="5.854959"/>
       <line id="svg_11" y2="4.337487" x2="4.300652" y1="3.997482" x1="4.834945"/>
       <line id="svg_12" y2="4.726063" x2="3.88779" y1="4.191771" x1="4.470655"/>
       <line id="svg_15" y2="5.3575" x2="3.377783" y1="4.604633" x1="3.960648"/>
       <line id="svg_16" y2="6.183226" x2="2.916348" y1="5.138926" x1="3.547785"/>
       <line id="svg_17" y2="6.960379" x2="2.770632" y1="5.867507" x1="3.037779"/>
       <line id="svg_18" y2="7.713246" x2="2.673488" y1="6.741804" x1="2.819204"/>
       <line id="svg_19" y2="8.684687" x2="2.697774" y1="7.616102" x1="2.673488"/>
       <line id="svg_20" y2="9.753273" x2="2.892062" y1="8.611829" x1="2.697774"/>
       <line id="svg_21" y2="10.724714" x2="3.134923" y1="9.534698" x1="2.84349"/>
       <line id="svg_23" y2="11.647583" x2="3.596357" y1="10.578998" x1="3.086351"/>
       <line id="svg_25" y2="12.521881" x2="4.276366" y1="11.501867" x1="3.499213"/>
       <line id="svg_26" y2="13.930471" x2="5.830673" y1="12.376165" x1="4.13065"/>
       <line id="svg_28" y2="14.707624" x2="7.263549" y1="13.881899" x1="5.733528"/>
       <line id="svg_29" y2="15.339061" x2="8.963571" y1="14.61048" x1="7.06926"/>
       <line id="svg_30" y2="15.581921" x2="10.882168" y1="15.314775" x1="8.817855"/>
       <line id="svg_31" y2="15.460491" x2="12.023612" y1="15.581921" x1="10.785024"/>
       <line id="svg_33" y2="15.120487" x2="13.092197" y1="15.484777" x1="11.877895"/>
       <line id="svg_34" y2="14.586194" x2="13.86935" y1="15.217631" x1="12.897909"/>
       <line id="svg_35" y2="13.833327" x2="14.597931" y1="14.756196" x1="13.699348"/>
       <line id="svg_37" y2="12.716169" x2="15.180796" y1="13.881899" x1="14.549359"/>
       <line id="svg_39" y2="11.429009" x2="15.520801" y1="12.813313" x1="15.15651"/>
       <ellipse ry="1" rx="1" id="svg_40" cy="10.967574" cx="15.520801"/>
    </g>
    </symbol>

    <symbol id="icon-freehand-sculpt" viewBox="0 0 18 18">
      <title>Sculpt</title>
      <g id="icon-freehand-sculpt" fill="none" stroke-width="1.5" stroke-linecap="round" stroke-linejoin="round">
        <line id="svg_1" y2="2.559367" x2="10.184807" y1="4.467781" x1="8.81711"/>
        <line id="svg_4" y2="1.493836" x2="11.727442" y1="2.766112" x1="10.089386"/>
        <line id="svg_7" y2="1.080346" x2="13.047428" y1="1.748291" x1="11.345759"/>
        <line id="svg_8" y2="1.000829" x2="14.351511" y1="1.112153" x1="12.77707"/>
        <line id="svg_9" y2="1.350705" x2="15.242104" y1="0.905408" x1="13.969828"/>
        <line id="svg_10" y2="2.098167" x2="15.862339" y1="1.14396" x1="14.955842"/>
        <line id="svg_11" y2="3.195505" x2="16.41896" y1="1.939133" x1="15.766918"/>
        <line id="svg_12" y2="4.292843" x2="16.530284" y1="2.925147" x1="16.387153"/>
        <line id="svg_16" y2="5.644637" x2="16.196311" y1="3.831643" x1="16.593898"/>
        <line id="svg_18" y2="7.266789" x2="15.623787" y1="5.19934" x1="16.275829"/>
        <line id="svg_19" y2="10.813258" x2="14.526449" y1="6.726071" x1="15.766918"/>
        <line id="svg_20" y2="5.056209" x2="8.085552" y1="4.181519" x1="8.976145"/>
        <line id="svg_23" y2="5.326568" x2="7.481221" y1="4.78585" x1="8.403621"/>
        <line id="svg_24" y2="5.565119" x2="6.749662" y1="5.294761" x1="7.624352"/>
        <line id="svg_25" y2="5.994512" x2="5.429675" y1="5.533312" x1="6.956407"/>
        <line id="svg_27" y2="6.551133" x2="4.284627" y1="5.962706" x1="5.572807"/>
        <line id="svg_28" y2="7.584858" x2="3.044158" y1="6.392099" x1="4.427758"/>
        <line id="svg_29" y2="8.84123" x2="2.185372" y1="7.489437" x1="3.219096"/>
        <line id="svg_31" y2="10.606513" x2="1.644654" y1="8.602678" x1="2.280792"/>
        <line id="svg_32" y2="13.214679" x2="1.48562" y1="10.352058" x1="1.724171"/>
        <line id="svg_33" y2="14.375631" x2="1.676461" y1="12.992031" x1="1.453813"/>
        <line id="svg_34" y2="15.298031" x2="2.264889" y1="14.152983" x1="1.517427"/>
        <line id="svg_35" y2="16.172721" x2="3.521261" y1="14.948155" x1="1.915013"/>
        <line id="svg_36" y2="16.824762" x2="5.207027" y1="15.997783" x1="3.28271"/>
        <line id="svg_38" y2="17.063314" x2="7.035924" y1="16.745245" x1="4.968475"/>
        <line id="svg_39" y2="16.888376" x2="9.278311" y1="17.047411" x1="6.733758"/>
        <line id="svg_40" y2="16.284045" x2="10.661911" y1="16.983797" x1="8.992048"/>
        <line id="svg_41" y2="15.313934" x2="11.647925" y1="16.395369" x1="10.455166"/>
        <line id="svg_44" y2="13.898527" x2="12.82478" y1="15.425259" x1="11.504794"/>
        <line id="svg_45" y2="12.037824" x2="14.144766" y1="14.312017" x1="12.522614"/>
        <line id="svg_47" y2="10.59061" x2="14.605966" y1="12.228665" x1="13.953925"/>
        <ellipse ry="1" rx="1" id="svg_48" cy="3.982726" cx="13.460918"/>
     </g>
     </symbol>

     <symbol id="icon-freehand-switch-volume" viewBox="0 0 18 18">
       <title>Volume</title>
       <g id="icon-freehand-switch-volume" fill="none" stroke-width="1.5" stroke-linecap="round" stroke-linejoin="round">
         <line  id="svg_3" y2="2.395644" x2="3.640793" y1="3.172672" x1="2.178153" />
         <line  id="svg_8" y2="2.167107" x2="4.280699" y1="2.441352" x1="3.572232" />
         <line  id="svg_9" y2="2.167107" x2="4.737774" y1="2.167107" x1="4.16643" />
         <line  id="svg_10" y2="2.212814" x2="5.012019" y1="2.144253" x1="4.692066" />
         <line  id="svg_12" y2="2.418498" x2="5.400533" y1="2.167107" x1="4.806335" />
         <line  id="svg_14" y2="2.784158" x2="5.674778" y1="2.349937" x1="5.240557" />
         <line  id="svg_15" y2="3.332649" x2="5.880462" y1="2.692743" x1="5.583363" />
         <line  id="svg_16" y2="3.881139" x2="5.971877" y1="3.21838" x1="5.834754" />
         <line  id="svg_17" y2="4.452483" x2="5.926169" y1="3.789724" x1="5.949023" />
         <line  id="svg_19" y2="3.515479" x2="1.926761" y1="3.081257" x1="2.292422" />
         <line  id="svg_20" y2="4.018261" x2="1.721078" y1="3.40121" x1="2.018176" />
         <line  id="svg_21" y2="4.49819" x2="1.721078" y1="3.926846" x1="1.721078" />
         <line  id="svg_22" y2="4.909558" x2="1.903908" y1="4.406775" x1="1.67537" />
         <line  id="svg_23" y2="5.252364" x2="2.22386" y1="4.818143" x1="1.8582" />
         <line  id="svg_24" y2="5.480902" x2="2.749497" y1="5.183803" x1="2.086738" />
         <line  id="svg_26" y2="5.572317" x2="3.412256" y1="5.480902" x1="2.612374" />
         <line  id="svg_27" y2="5.549463" x2="4.120722" y1="5.572317" x1="3.25228" />
         <line  id="svg_28" y2="5.435195" x2="5.034873" y1="5.549463" x1="4.029307" />
         <line  id="svg_29" y2="5.275218" x2="5.423387" y1="5.435195" x1="4.966312" />
         <line  id="svg_30" y2="4.978119" x2="5.743339" y1="5.343779" x1="5.309118" />
         <line  id="svg_31" y2="4.31536" x2="5.949023" y1="5.115242" x1="5.697632" />
         <line  id="svg_32" y2="7.720571" x2="4.89775" y1="8.38333" x1="5.834754" />
         <line  id="svg_33" y2="7.583448" x2="4.440675" y1="7.743424" x1="4.943458" />
         <line  id="svg_34" y2="7.560594" x2="4.029307" y1="7.629156" x1="4.554944" />
         <line  id="svg_35" y2="7.674863" x2="3.457963" y1="7.514887" x1="4.189284" />
         <line  id="svg_36" y2="7.971962" x2="3.046596" y1="7.629156" x1="3.526525" />
         <line  id="svg_37" y2="8.429037" x2="2.635228" y1="7.857693" x1="3.138011" />
         <line  id="svg_38" y2="8.840405" x2="2.452398" y1="8.269061" x1="2.726643" />
         <line  id="svg_39" y2="9.388895" x2="2.429544" y1="8.657575" x1="2.520959" />
         <line  id="svg_40" y2="10.143069" x2="2.520959" y1="9.320334" x1="2.429544" />
         <line  id="svg_41" y2="10.828682" x2="2.795204" y1="10.097362" x1="2.498105" />
         <line  id="svg_42" y2="11.400026" x2="3.389402" y1="10.737267" x1="2.749497" />
         <line  id="svg_45" y2="11.857101" x2="3.595086" y1="11.24005" x1="3.297987" />
         <line  id="svg_46" y2="12.565568" x2="3.549378" y1="11.719979" x1="3.572232" />
         <line  id="svg_47" y2="13.228327" x2="3.320841" y1="12.474153" x1="3.549378" />
         <line  id="svg_48" y2="13.891086" x2="3.25228" y1="13.045497" x1="3.343695" />
         <line  id="svg_51" y2="14.508137" x2="3.366548" y1="13.685402" x1="3.229426" />
         <line  id="svg_52" y2="15.19375" x2="3.686501" y1="14.348161" x1="3.320841" />
         <line  id="svg_54" y2="15.582264" x2="4.120722" y1="15.079481" x1="3.61794" />
         <line  id="svg_55" y2="15.970778" x2="4.920604" y1="15.536556" x1="4.052161" />
         <line  id="svg_57" y2="16.016485" x2="5.469094" y1="15.902217" x1="4.737774" />
         <line  id="svg_58" y2="15.810802" x2="5.926169" y1="15.993632" x1="5.331972" />
         <line  id="svg_61" y2="15.445141" x2="6.360391" y1="15.902217" x1="5.766193" />
         <line  id="svg_62" y2="14.942359" x2="6.680344" y1="15.582264" x1="6.223268" />
         <line  id="svg_64" y2="14.371015" x2="6.84032" y1="15.148043" x1="6.566075" />
         <line  id="svg_66" y2="13.708256" x2="6.726051" y1="14.553845" x1="6.84032" />
         <line  id="svg_67" y2="12.816959" x2="6.428952" y1="14.028208" x1="6.794612" />
         <line  id="svg_70" y2="12.039931" x2="6.063292" y1="13.022643" x1="6.451806" />
         <line  id="svg_71" y2="11.194342" x2="5.903316" y1="12.085639" x1="6.063292" />
         <line  id="svg_72" y2="10.554437" x2="5.949023" y1="11.331465" x1="5.949023" />
         <line  id="svg_73" y2="9.891678" x2="6.131853" y1="10.691559" x1="5.926169" />
         <line  id="svg_74" y2="9.320334" x2="6.200415" y1="9.983093" x1="6.131853" />
         <line  id="svg_75" y2="8.74899" x2="6.063292" y1="9.548871" x1="6.223268" />
         <line  id="svg_76" y2="8.314768" x2="5.766193" y1="8.840405" x1="6.109" />
         <line  id="svg_78" y2="8.497598" x2="13.10225" y1="7.857693" x1="13.65074" />
         <line  id="svg_79" y2="9.183211" x2="12.942274" y1="8.360476" x1="13.170811" />
         <line  id="svg_80" y2="9.868824" x2="12.965127" y1="9.068942" x1="12.965127" />
         <line  id="svg_81" y2="10.508729" x2="13.193665" y1="9.777409" x1="12.965127" />
         <line  id="svg_82" y2="10.760121" x2="13.83357" y1="10.39446" x1="13.10225" />
         <line  id="svg_83" y2="10.805828" x2="14.610598" y1="10.714413" x1="13.673594" />
         <line  id="svg_88" y2="10.668706" x2="15.159088" y1="10.828682" x1="14.473476" />
         <line  id="svg_89" y2="10.348753" x2="15.501895" y1="10.714413" x1="15.067673" />
         <line  id="svg_91" y2="9.777409" x2="15.821847" y1="10.440168" x1="15.364772" />
         <line  id="svg_92" y2="9.11465" x2="15.936116" y1="9.960239" x1="15.798994" />
         <line  id="svg_93" y2="8.451891" x2="15.844701" y1="9.343187" x1="15.981824" />
         <line  id="svg_94" y2="7.834839" x2="15.501895" y1="8.657575" x1="15.936116" />
         <line  id="svg_101" y2="7.560594" x2="14.382061" y1="7.926254" x1="13.536471"  />
         <line  id="svg_102" y2="7.53774" x2="14.953405" y1="7.629155" x1="14.153523"  />
         <line  id="svg_103" y2="7.560594" x2="15.319065" y1="7.583448" x1="14.816282"  />
         <line  id="svg_104" y2="7.994816" x2="15.616164" y1="7.492033" x1="15.136235"  />
         <line  id="svg_105" y2="12.999789" x2="12.622321" y1="13.045497" x1="13.559325"  />
         <line  id="svg_106" y2="12.70269" x2="12.028123" y1="12.999789" x1="12.73659"  />
         <line  id="svg_107" y2="12.199908" x2="11.479633" y1="12.748398" x1="12.073831"  />
         <line  id="svg_108" y2="11.78854" x2="10.953997" y1="12.291323" x1="11.571048"  />
         <line  id="svg_111" y2="11.60571" x2="10.314091" y1="11.857101" x1="11.136827"  />
         <line  id="svg_112" y2="11.628564" x2="9.87987" y1="11.628564" x1="10.496921"  />
         <line  id="svg_114" y2="11.78854" x2="9.468502" y1="11.560002" x1="10.108408"  />
         <line  id="svg_115" y2="12.131346" x2="9.262818" y1="11.674271" x1="9.582771"  />
         <line  id="svg_116" y2="12.611275" x2="9.194257" y1="11.902809" x1="9.33138"  />
         <line  id="svg_117" y2="13.25118" x2="9.14855" y1="12.382738" x1="9.239965"  />
         <line  id="svg_118" y2="13.822524" x2="9.14855" y1="13.022643" x1="9.14855"  />
         <line  id="svg_119" y2="14.530991" x2="9.377087" y1="13.685402" x1="9.102842"  />
         <line  id="svg_120" y2="15.125189" x2="9.765601" y1="14.416722" x1="9.33138"  />
         <line  id="svg_121" y2="15.490849" x2="10.336945" y1="15.079481" x1="9.651332"  />
         <line  id="svg_122" y2="15.582264" x2="11.182534" y1="15.467995" x1="10.24553"  />
         <line  id="svg_123" y2="15.513703" x2="13.330788" y1="15.582264" x1="11.113973"  />
         <line  id="svg_124" y2="15.422288" x2="14.244938" y1="15.513703" x1="13.307934"  />
         <line  id="svg_125" y2="15.262311" x2="15.090527" y1="15.422288" x1="14.244938"  />
         <line  id="svg_127" y2="14.896651" x2="15.387626" y1="15.285165" x1="14.884843"  />
         <line  id="svg_129" y2="14.302453" x2="15.684725" y1="14.988066" x1="15.273357"  />
         <line  id="svg_130" y2="13.731109" x2="15.639017" y1="14.416722" x1="15.661871"  />
         <line  id="svg_131" y2="13.25118" x2="15.296211" y1="13.868232" x1="15.661871"  />
         <line  id="svg_132" y2="13.045497" x2="14.656306" y1="13.388303" x1="15.41048"  />
         <line  id="svg_133" y2="13.045497" x2="13.445056" y1="13.091204" x1="14.884843"  />
         <line  id="svg_137" y2="7.994816" x2="8.942866" y1="7.012104" x1="7.731616" />
         <line  id="svg_138" y2="8.177646" x2="9.559917" y1="7.903401" x1="8.851451" />
         <line  id="svg_139" y2="8.131938" x2="10.405506" y1="8.086231" x1="9.422795" />
         <line  id="svg_140" y2="7.857693" x2="10.97685" y1="8.131938" x1="10.24553" />
         <line  id="svg_141" y2="7.057812" x2="11.82244" y1="7.949108" x1="10.885435" />
         <line  id="svg_142" y2="5.52661" x2="12.439491" y1="7.17208" x1="11.708171" />
         <line  id="svg_143" y2="4.818143" x2="13.125104" y1="5.572317" x1="12.393784" />
         <line  id="svg_144" y2="4.589605" x2="13.924985" y1="4.886704" x1="12.987981" />
         <line  id="svg_145" y2="4.383922" x2="15.273357" y1="4.612459" x1="13.83357" />
         <line  id="svg_146" y2="4.109676" x2="15.95897" y1="4.383922" x1="15.090527" />
         <line  id="svg_147" y2="3.721163" x2="16.393192" y1="4.109676" x1="15.844701" />
         <line  id="svg_149" y2="3.21838" x2="16.644583" y1="3.881139" x1="16.301776" />
         <line  id="svg_150" y2="2.715597" x2="16.667437" y1="3.40121" x1="16.598875" />
         <line  id="svg_151" y2="2.235668" x2="16.553168" y1="2.921281" x1="16.69029" />
         <line  id="svg_152" y2="1.801447" x2="16.1418" y1="2.372791" x1="16.667437" />
         <line  id="svg_153" y2="1.572909" x2="15.59331" y1="1.984277" x1="16.370338" />
         <line  id="svg_154" y2="1.435787" x2="14.930551" y1="1.664324" x1="15.844701" />
         <line  id="svg_155" y2="1.435787" x2="14.107816" y1="1.435787" x1="15.090527" />
         <line  id="svg_156" y2="1.595763" x2="11.319657" y1="1.435787" x1="14.336353" />
         <line  id="svg_157" y2="1.755739" x2="10.382653" y1="1.595763" x1="11.639609" />
         <line  id="svg_158" y2="1.984277" x2="9.742747" y1="1.710032" x1="10.451214" />
         <line  id="svg_159" y2="2.304229" x2="9.102842" y1="1.938569" x1="9.765601" />
         <line  id="svg_161" y2="2.807012" x2="8.417229" y1="2.098546" x1="9.377087" />
         <line  id="svg_162" y2="3.378356" x2="7.960154" y1="2.647036" x1="8.531498" />
         <line  id="svg_163" y2="4.109676" x2="7.57164" y1="3.241234" x1="8.028715" />
         <line  id="svg_165" y2="4.909558" x2="7.320249" y1="3.926846" x1="7.640201" />
         <line  id="svg_166" y2="5.846562" x2="7.228834" y1="4.703874" x1="7.343103" />
         <line  id="svg_167" y2="6.600736" x2="7.411664" y1="5.663732" x1="7.160272" />
         <line  id="svg_168" y2="7.17208" x2="7.891593" y1="6.463614" x1="7.343103" />
      </g>
      </symbol>


</svg>
