<svg xmlns="http://www.w3.org/2000/svg" xmlns:xlink="http://www.w3.org/1999/xlink">

  <symbol id="icon-segmentation-menu" viewBox="0 0 18 18">
    <title>Segmentation Menu</title>
    <g id="icon-segmentation-menu" fill="none" stroke-width="1.5" stroke-linecap="round" stroke-linejoin="round">
      <path d="M2.81 2.81L2.81 3.38L2.81 4.5L3.94 4.5L3.94 5.63L5.06 5.63L5.06 6.75L3.94 6.75L3.94 8.44L2.25 8.44L2.25 10.69L3.94 10.69L3.94 13.5L7.31 13.5L7.31 16.31L11.25 16.42L11.25 14.06L15.75 14.06L15.75 10.69L12.38 10.69L12.38 9L10.13 9L10.13 7.31L11.25 7.31L11.25 5.63L12.38 5.63L12.38 3.94L11.25 3.94L11.25 2.81L9.56 2.81L9.56 1.69L2.81 1.69L2.81 2.81Z" id="e30R35GvZV"></path>
    </g>
  </symbol>

  <symbol id="icon-seg-management-menu" viewBox="0 0 18 18">
    <title>Seg Management Menu</title>
    <g id="icon-seg-management-menu" fill="none" stroke-width="1.5" stroke-linecap="round" stroke-linejoin="round">
      <path d="M0.56 1.69L0.56 3.94L1.13 3.94L1.13 5.63L2.81 5.63L2.81 4.5L3.94 4.5L3.94 3.38L5.06 3.38L5.06 2.25L3.94 2.25L3.94 1.13L2.81 1.13L2.81 0.56L1.13 0.56L1.14 1.69L0.56 1.69Z" id="fe5Z9POHc"></path>
      <path d="M5.63 6.75L7.88 6.75L7.88 7.88L10.69 7.88L10.69 6.19L11.81 6.19L11.81 5.06L13.5 5.06L13.5 3.38L11.25 3.38L11.25 1.13L9 1.13L9 3.38L6.75 3.38L6.75 5.06L5.63 5.06L5.63 6.19L5.63 6.75Z" id="a3XPKFH8N"></path>
      <path d="M0.56 9.56L0.56 12.94L2.25 12.94L2.25 15.75L5.06 15.75L5.06 16.88L8.44 16.88L8.44 16.31L10.13 16.31L10.13 15.19L8.44 15.19L8.44 14.06L5.63 14.06L5.63 11.81L5.63 10.69L6.75 10.69L6.75 9L4.5 9L4.5 7.88L2.81 7.88L2.81 8.44L1.69 8.44L1.69 9.56L0.56 9.56Z" id="bShHj7KOZ"></path>
      <path d="M10.79 9.56L10.79 9L15.29 9L15.29 10.13L17.54 10.13L17.54 12.38L16.41 12.38L16.41 14.63L13.6 14.63L13.6 12.94L7.98 12.94L7.98 11.81L9.1 11.81L9.1 9.56L10.79 9.56Z" id="bHas4Cjjb"></path>
      <path d="M14.06 6.19L15.19 6.19L15.19 3.38L15.19 1.69L16.88 1.69L16.88 2.81L17.44 2.81L17.44 6.19L16.88 6.19L16.88 7.31L14.06 7.31L14.06 6.86L14.06 6.19Z" id="bxtFYpMxQ"></path>
    </g>
  </symbol>

  <symbol id="icon-freehand-interpolate-off" viewBox="0 0 48 48">
    <title>Freehand Interpolate Off</title>
    <g id="icon-freehand-interpolate-off-group" fill="none" stroke-width="3" stroke-linecap="round" stroke-linejoin="round">
      <path id="freehand-interpolate-off-group-1" d="M36.14 2.72L43.25 6.04L45.01 9.35L42.71 14.16L35.13 17.74L22.88 18.22L11.65 16.32L6.37 13.68L5.56 9.69L12.53 4.07L22.88 2.72L36.14 2.72Z"></path>
      <path id="freehand-interpolate-off-group-2" d="M24.51 34.18L33.17 35.6L37.29 40.27L33.17 44.6L27.08 46.16L18.76 45.48L12.73 42.57L12.13 37.97L17.34 35.33L24.51 34.18Z"></path>
    </g>
  </symbol>

  <symbol id="icon-freehand-interpolate-on" viewBox="0 0 48 48">
    <title>Freehand Interpolate On</title>
    <g id="icon-freehand-interpolate-on-group" fill="none" stroke-width="3" stroke-linecap="round" stroke-linejoin="round">
      <path id="freehand-interpolate-on-group-1" d="M36.14 2.72L43.25 6.04L45.01 9.35L42.71 14.16L35.13 17.74L22.88 18.22L11.65 16.32L6.37 13.68L5.56 9.69L12.53 4.07L22.88 2.72L36.14 2.72Z"></path>
      <path id="freehand-interpolate-on-group-2" d="M24.51 34.18L33.17 35.6L37.29 40.27L33.17 44.6L27.08 46.16L18.76 45.48L12.73 42.57L12.13 37.97L17.34 35.33L24.51 34.18Z"></path>
    </g>

    <g id="icon-freehand-interpolate-on-group2" fill="none"  stroke-dasharray="5,5" stroke-width="3" stroke-linecap="round" stroke-linejoin="round">
      <path d="M21.87 20.11L32.56 20.65L38.65 22.41L40.54 24.24L41.29 26.74L40.54 29.04L36.69 30.94L29.45 32.15L20.24 31.68L13.34 30.94L9.49 27.96L9.22 24.44L13.34 21.06L21.87 20.11Z" id="eN6kOHdJ"></path>
    </g>
  </symbol>

  <symbol id="icon-freehand-menu" viewBox="0 0 18 18">
    <title>ROI Menu</title>
    <g id="icon-freehand-menu" fill="none" stroke-width="1.5" stroke-linecap="round" stroke-linejoin="round">
      <line id="svg_4" y2="9.12785" x2="2.045199" y1="2.602749" x1="5.482813"/>
      <line id="svg_5" y2="16.607843" x2="6.565024" y1="9.509807" x1="2.204347"/>
      <line id="svg_6" y2="16.003078" x2="14.267826" y1="16.576014" x1="6.692343"/>
      <line id="svg_7" y2="10.942146" x2="15.572846" y1="15.939418" x1="14.331486"/>
      <line id="svg_8" y2="2.825558" x2="13.058295" y1="2.889217" x1="5.641961"/>
      <line id="svg_9" y2="7.568192" x2="15.795655" y1="3.398493" x1="12.930976"/>
      <line id="svg_10" y2="11.037635" x2="15.509187" y1="7.727341" x1="15.700165"/>
    </g>
  </symbol>

  <symbol id="icon-freehand-switch-volume" viewBox="0 0 18 18">
    <title>ROI Management</title>
    <g id="icon-freehand-switch-volume" fill="none" stroke-width="1.5" stroke-linecap="round" stroke-linejoin="round">
      <line  id="svg_3" y2="2.395644" x2="3.640793" y1="3.172672" x1="2.178153" />
      <line  id="svg_8" y2="2.167107" x2="4.280699" y1="2.441352" x1="3.572232" />
      <line  id="svg_9" y2="2.167107" x2="4.737774" y1="2.167107" x1="4.16643" />
      <line  id="svg_10" y2="2.212814" x2="5.012019" y1="2.144253" x1="4.692066" />
      <line  id="svg_12" y2="2.418498" x2="5.400533" y1="2.167107" x1="4.806335" />
      <line  id="svg_14" y2="2.784158" x2="5.674778" y1="2.349937" x1="5.240557" />
      <line  id="svg_15" y2="3.332649" x2="5.880462" y1="2.692743" x1="5.583363" />
      <line  id="svg_16" y2="3.881139" x2="5.971877" y1="3.21838" x1="5.834754" />
      <line  id="svg_17" y2="4.452483" x2="5.926169" y1="3.789724" x1="5.949023" />
      <line  id="svg_19" y2="3.515479" x2="1.926761" y1="3.081257" x1="2.292422" />
      <line  id="svg_20" y2="4.018261" x2="1.721078" y1="3.40121" x1="2.018176" />
      <line  id="svg_21" y2="4.49819" x2="1.721078" y1="3.926846" x1="1.721078" />
      <line  id="svg_22" y2="4.909558" x2="1.903908" y1="4.406775" x1="1.67537" />
      <line  id="svg_23" y2="5.252364" x2="2.22386" y1="4.818143" x1="1.8582" />
      <line  id="svg_24" y2="5.480902" x2="2.749497" y1="5.183803" x1="2.086738" />
      <line  id="svg_26" y2="5.572317" x2="3.412256" y1="5.480902" x1="2.612374" />
      <line  id="svg_27" y2="5.549463" x2="4.120722" y1="5.572317" x1="3.25228" />
      <line  id="svg_28" y2="5.435195" x2="5.034873" y1="5.549463" x1="4.029307" />
      <line  id="svg_29" y2="5.275218" x2="5.423387" y1="5.435195" x1="4.966312" />
      <line  id="svg_30" y2="4.978119" x2="5.743339" y1="5.343779" x1="5.309118" />
      <line  id="svg_31" y2="4.31536" x2="5.949023" y1="5.115242" x1="5.697632" />
      <line  id="svg_32" y2="7.720571" x2="4.89775" y1="8.38333" x1="5.834754" />
      <line  id="svg_33" y2="7.583448" x2="4.440675" y1="7.743424" x1="4.943458" />
      <line  id="svg_34" y2="7.560594" x2="4.029307" y1="7.629156" x1="4.554944" />
      <line  id="svg_35" y2="7.674863" x2="3.457963" y1="7.514887" x1="4.189284" />
      <line  id="svg_36" y2="7.971962" x2="3.046596" y1="7.629156" x1="3.526525" />
      <line  id="svg_37" y2="8.429037" x2="2.635228" y1="7.857693" x1="3.138011" />
      <line  id="svg_38" y2="8.840405" x2="2.452398" y1="8.269061" x1="2.726643" />
      <line  id="svg_39" y2="9.388895" x2="2.429544" y1="8.657575" x1="2.520959" />
      <line  id="svg_40" y2="10.143069" x2="2.520959" y1="9.320334" x1="2.429544" />
      <line  id="svg_41" y2="10.828682" x2="2.795204" y1="10.097362" x1="2.498105" />
      <line  id="svg_42" y2="11.400026" x2="3.389402" y1="10.737267" x1="2.749497" />
      <line  id="svg_45" y2="11.857101" x2="3.595086" y1="11.24005" x1="3.297987" />
      <line  id="svg_46" y2="12.565568" x2="3.549378" y1="11.719979" x1="3.572232" />
      <line  id="svg_47" y2="13.228327" x2="3.320841" y1="12.474153" x1="3.549378" />
      <line  id="svg_48" y2="13.891086" x2="3.25228" y1="13.045497" x1="3.343695" />
      <line  id="svg_51" y2="14.508137" x2="3.366548" y1="13.685402" x1="3.229426" />
      <line  id="svg_52" y2="15.19375" x2="3.686501" y1="14.348161" x1="3.320841" />
      <line  id="svg_54" y2="15.582264" x2="4.120722" y1="15.079481" x1="3.61794" />
      <line  id="svg_55" y2="15.970778" x2="4.920604" y1="15.536556" x1="4.052161" />
      <line  id="svg_57" y2="16.016485" x2="5.469094" y1="15.902217" x1="4.737774" />
      <line  id="svg_58" y2="15.810802" x2="5.926169" y1="15.993632" x1="5.331972" />
      <line  id="svg_61" y2="15.445141" x2="6.360391" y1="15.902217" x1="5.766193" />
      <line  id="svg_62" y2="14.942359" x2="6.680344" y1="15.582264" x1="6.223268" />
      <line  id="svg_64" y2="14.371015" x2="6.84032" y1="15.148043" x1="6.566075" />
      <line  id="svg_66" y2="13.708256" x2="6.726051" y1="14.553845" x1="6.84032" />
      <line  id="svg_67" y2="12.816959" x2="6.428952" y1="14.028208" x1="6.794612" />
      <line  id="svg_70" y2="12.039931" x2="6.063292" y1="13.022643" x1="6.451806" />
      <line  id="svg_71" y2="11.194342" x2="5.903316" y1="12.085639" x1="6.063292" />
      <line  id="svg_72" y2="10.554437" x2="5.949023" y1="11.331465" x1="5.949023" />
      <line  id="svg_73" y2="9.891678" x2="6.131853" y1="10.691559" x1="5.926169" />
      <line  id="svg_74" y2="9.320334" x2="6.200415" y1="9.983093" x1="6.131853" />
      <line  id="svg_75" y2="8.74899" x2="6.063292" y1="9.548871" x1="6.223268" />
      <line  id="svg_76" y2="8.314768" x2="5.766193" y1="8.840405" x1="6.109" />
      <line  id="svg_78" y2="8.497598" x2="13.10225" y1="7.857693" x1="13.65074" />
      <line  id="svg_79" y2="9.183211" x2="12.942274" y1="8.360476" x1="13.170811" />
      <line  id="svg_80" y2="9.868824" x2="12.965127" y1="9.068942" x1="12.965127" />
      <line  id="svg_81" y2="10.508729" x2="13.193665" y1="9.777409" x1="12.965127" />
      <line  id="svg_82" y2="10.760121" x2="13.83357" y1="10.39446" x1="13.10225" />
      <line  id="svg_83" y2="10.805828" x2="14.610598" y1="10.714413" x1="13.673594" />
      <line  id="svg_88" y2="10.668706" x2="15.159088" y1="10.828682" x1="14.473476" />
      <line  id="svg_89" y2="10.348753" x2="15.501895" y1="10.714413" x1="15.067673" />
      <line  id="svg_91" y2="9.777409" x2="15.821847" y1="10.440168" x1="15.364772" />
      <line  id="svg_92" y2="9.11465" x2="15.936116" y1="9.960239" x1="15.798994" />
      <line  id="svg_93" y2="8.451891" x2="15.844701" y1="9.343187" x1="15.981824" />
      <line  id="svg_94" y2="7.834839" x2="15.501895" y1="8.657575" x1="15.936116" />
      <line  id="svg_101" y2="7.560594" x2="14.382061" y1="7.926254" x1="13.536471"  />
      <line  id="svg_102" y2="7.53774" x2="14.953405" y1="7.629155" x1="14.153523"  />
      <line  id="svg_103" y2="7.560594" x2="15.319065" y1="7.583448" x1="14.816282"  />
      <line  id="svg_104" y2="7.994816" x2="15.616164" y1="7.492033" x1="15.136235"  />
      <line  id="svg_105" y2="12.999789" x2="12.622321" y1="13.045497" x1="13.559325"  />
      <line  id="svg_106" y2="12.70269" x2="12.028123" y1="12.999789" x1="12.73659"  />
      <line  id="svg_107" y2="12.199908" x2="11.479633" y1="12.748398" x1="12.073831"  />
      <line  id="svg_108" y2="11.78854" x2="10.953997" y1="12.291323" x1="11.571048"  />
      <line  id="svg_111" y2="11.60571" x2="10.314091" y1="11.857101" x1="11.136827"  />
      <line  id="svg_112" y2="11.628564" x2="9.87987" y1="11.628564" x1="10.496921"  />
      <line  id="svg_114" y2="11.78854" x2="9.468502" y1="11.560002" x1="10.108408"  />
      <line  id="svg_115" y2="12.131346" x2="9.262818" y1="11.674271" x1="9.582771"  />
      <line  id="svg_116" y2="12.611275" x2="9.194257" y1="11.902809" x1="9.33138"  />
      <line  id="svg_117" y2="13.25118" x2="9.14855" y1="12.382738" x1="9.239965"  />
      <line  id="svg_118" y2="13.822524" x2="9.14855" y1="13.022643" x1="9.14855"  />
      <line  id="svg_119" y2="14.530991" x2="9.377087" y1="13.685402" x1="9.102842"  />
      <line  id="svg_120" y2="15.125189" x2="9.765601" y1="14.416722" x1="9.33138"  />
      <line  id="svg_121" y2="15.490849" x2="10.336945" y1="15.079481" x1="9.651332"  />
      <line  id="svg_122" y2="15.582264" x2="11.182534" y1="15.467995" x1="10.24553"  />
      <line  id="svg_123" y2="15.513703" x2="13.330788" y1="15.582264" x1="11.113973"  />
      <line  id="svg_124" y2="15.422288" x2="14.244938" y1="15.513703" x1="13.307934"  />
      <line  id="svg_125" y2="15.262311" x2="15.090527" y1="15.422288" x1="14.244938"  />
      <line  id="svg_127" y2="14.896651" x2="15.387626" y1="15.285165" x1="14.884843"  />
      <line  id="svg_129" y2="14.302453" x2="15.684725" y1="14.988066" x1="15.273357"  />
      <line  id="svg_130" y2="13.731109" x2="15.639017" y1="14.416722" x1="15.661871"  />
      <line  id="svg_131" y2="13.25118" x2="15.296211" y1="13.868232" x1="15.661871"  />
      <line  id="svg_132" y2="13.045497" x2="14.656306" y1="13.388303" x1="15.41048"  />
      <line  id="svg_133" y2="13.045497" x2="13.445056" y1="13.091204" x1="14.884843"  />
      <line  id="svg_137" y2="7.994816" x2="8.942866" y1="7.012104" x1="7.731616" />
      <line  id="svg_138" y2="8.177646" x2="9.559917" y1="7.903401" x1="8.851451" />
      <line  id="svg_139" y2="8.131938" x2="10.405506" y1="8.086231" x1="9.422795" />
      <line  id="svg_140" y2="7.857693" x2="10.97685" y1="8.131938" x1="10.24553" />
      <line  id="svg_141" y2="7.057812" x2="11.82244" y1="7.949108" x1="10.885435" />
      <line  id="svg_142" y2="5.52661" x2="12.439491" y1="7.17208" x1="11.708171" />
      <line  id="svg_143" y2="4.818143" x2="13.125104" y1="5.572317" x1="12.393784" />
      <line  id="svg_144" y2="4.589605" x2="13.924985" y1="4.886704" x1="12.987981" />
      <line  id="svg_145" y2="4.383922" x2="15.273357" y1="4.612459" x1="13.83357" />
      <line  id="svg_146" y2="4.109676" x2="15.95897" y1="4.383922" x1="15.090527" />
      <line  id="svg_147" y2="3.721163" x2="16.393192" y1="4.109676" x1="15.844701" />
      <line  id="svg_149" y2="3.21838" x2="16.644583" y1="3.881139" x1="16.301776" />
      <line  id="svg_150" y2="2.715597" x2="16.667437" y1="3.40121" x1="16.598875" />
      <line  id="svg_151" y2="2.235668" x2="16.553168" y1="2.921281" x1="16.69029" />
      <line  id="svg_152" y2="1.801447" x2="16.1418" y1="2.372791" x1="16.667437" />
      <line  id="svg_153" y2="1.572909" x2="15.59331" y1="1.984277" x1="16.370338" />
      <line  id="svg_154" y2="1.435787" x2="14.930551" y1="1.664324" x1="15.844701" />
      <line  id="svg_155" y2="1.435787" x2="14.107816" y1="1.435787" x1="15.090527" />
      <line  id="svg_156" y2="1.595763" x2="11.319657" y1="1.435787" x1="14.336353" />
      <line  id="svg_157" y2="1.755739" x2="10.382653" y1="1.595763" x1="11.639609" />
      <line  id="svg_158" y2="1.984277" x2="9.742747" y1="1.710032" x1="10.451214" />
      <line  id="svg_159" y2="2.304229" x2="9.102842" y1="1.938569" x1="9.765601" />
      <line  id="svg_161" y2="2.807012" x2="8.417229" y1="2.098546" x1="9.377087" />
      <line  id="svg_162" y2="3.378356" x2="7.960154" y1="2.647036" x1="8.531498" />
      <line  id="svg_163" y2="4.109676" x2="7.57164" y1="3.241234" x1="8.028715" />
      <line  id="svg_165" y2="4.909558" x2="7.320249" y1="3.926846" x1="7.640201" />
      <line  id="svg_166" y2="5.846562" x2="7.228834" y1="4.703874" x1="7.343103" />
      <line  id="svg_167" y2="6.600736" x2="7.411664" y1="5.663732" x1="7.160272" />
      <line  id="svg_168" y2="7.17208" x2="7.891593" y1="6.463614" x1="7.343103" />
    </g>
  </symbol>
</svg>
